<svg viewBox="0 0 25 26" id="flag" fill="none" xmlns="http://www.w3.org/2000/svg">
  <path id="Rectangle-74" d="M4 3.91846C4 3.09003 4.67157 2.41846 5.5 2.41846H10.5C11.3284 2.41846 12 3.09003 12 3.91846V11.9185C12 12.7469 11.3284 13.4185 10.5 13.4185H4V3.91846Z" stroke-width="1.5"/>
  <path id="Rectangle 75" d="M12 4.41846H18.0362C18.8535 4.41846 19.3257 5.34566 18.845 6.00663L16.8555 8.74211C16.3455 9.44341 16.3455 10.3935 16.8555 11.0948L18.845 13.8303C19.3257 14.4913 18.8535 15.4185 18.0362 15.4185H13C12.4477 15.4185 12 14.9707 12 14.4185V4.41846Z" stroke-width="1.5"/>
  <path id="Line" d="M4.16663 23.335L4.16663 4.58496" stroke-width="1.5" stroke-linecap="round" stroke-linejoin="round"/>
</svg>
