<svg width="24" height="26" viewBox="0 0 24 26" fill="none" xmlns="http://www.w3.org/2000/svg">
<circle r="4" transform="matrix(-1 0 0 1 10 7.39551)" stroke="white" stroke-width="1.5"/>
<path d="M3 17.3302C3 16.4698 3.54085 15.7023 4.35109 15.413V15.413C8.00404 14.1084 11.996 14.1084 15.6489 15.413V15.413C16.4591 15.7023 17 16.4698 17 17.3302V18.6457C17 19.8331 15.9483 20.7453 14.7728 20.5773L13.8184 20.441C11.2856 20.0792 8.71435 20.0792 6.18162 20.441L5.22721 20.5773C4.0517 20.7453 3 19.8331 3 18.6457V17.3302Z" stroke="white" stroke-width="1.5"/>
<path d="M16.5442 11.854H20.437" stroke="white" stroke-width="1.5" stroke-linecap="round" stroke-linejoin="round"/>
<path d="M18.4906 9.77034L18.4906 13.937" stroke="white" stroke-width="1.5" stroke-linecap="round" stroke-linejoin="round"/>
</svg>
