<svg width="25" height="26" viewBox="0 0 25 26" fill="none" xmlns="http://www.w3.org/2000/svg">
<path d="M3.99999 15.4608L3.24999 15.4608L3.99999 15.4608ZM6.7329 18.6591L6.83591 17.9162L6.83591 17.9162L6.7329 18.6591ZM16.9192 18.6591L16.8162 17.9162L16.8162 17.9162L16.9192 18.6591ZM6.48912 8.66264C6.48912 5.71512 8.87856 3.32568 11.8261 3.32568V1.82568C8.05013 1.82568 4.98912 4.88669 4.98912 8.66264H6.48912ZM6.48912 10.7552V8.66264H4.98912V10.7552H6.48912ZM4.74999 15.4608C4.74999 14.9793 4.88169 14.5309 5.1106 14.1471L3.8223 13.3788C3.45869 13.9885 3.24999 14.7014 3.24999 15.4608L4.74999 15.4608ZM6.83591 17.9162C5.63627 17.7499 4.74999 16.707 4.74999 15.4608L3.24999 15.4608C3.24999 17.4205 4.6541 19.128 6.62989 19.402L6.83591 17.9162ZM11.8261 18.3476C10.3341 18.3476 8.4065 18.134 6.83591 17.9162L6.62989 19.402C8.21266 19.6215 10.2254 19.8476 11.8261 19.8476V18.3476ZM16.8162 17.9162C15.2456 18.134 13.3181 18.3476 11.8261 18.3476V19.8476C13.4268 19.8476 15.4395 19.6215 17.0223 19.402L16.8162 17.9162ZM18.9022 15.4608C18.9022 16.707 18.0159 17.7499 16.8162 17.9162L17.0223 19.402C18.998 19.128 20.4022 17.4205 20.4022 15.4608H18.9022ZM18.5415 14.1471C18.7705 14.5309 18.9022 14.9793 18.9022 15.4608H20.4022C20.4022 14.7014 20.1935 13.9885 19.8298 13.3788L18.5415 14.1471ZM17.163 8.66264V10.7552H18.663V8.66264H17.163ZM11.8261 3.32568C14.7736 3.32568 17.163 5.71512 17.163 8.66264H18.663C18.663 4.88669 15.602 1.82568 11.8261 1.82568V3.32568ZM19.8298 13.3788C19.521 12.8608 19.2404 12.4458 19.0091 11.9823C18.7876 11.5386 18.663 11.1427 18.663 10.7552H17.163C17.163 11.468 17.3931 12.1035 17.667 12.6523C17.9311 13.1813 18.2869 13.72 18.5415 14.1471L19.8298 13.3788ZM4.98912 10.7552C4.98912 11.1427 4.8646 11.5386 4.64309 11.9823C4.41175 12.4458 4.1312 12.8608 3.8223 13.3788L5.1106 14.1471C5.3653 13.72 5.72108 13.1813 5.98518 12.6522C6.2591 12.1035 6.48912 11.468 6.48912 10.7552H4.98912Z" fill="white"/>
<path d="M14 21.4097C13.5326 22.1126 12.7335 22.5758 11.8261 22.5758C10.9187 22.5758 10.1195 22.1126 9.65218 21.4097" stroke="white" stroke-width="1.5" stroke-linecap="round"/>
</svg>
