<svg width="25" height="26" viewBox="0 0 25 26" fill="none" xmlns="http://www.w3.org/2000/svg">
<path d="M12 4.39284V21.266M12 4.39284L13.1001 3.98C15.6036 3.04052 18.3964 3.04052 20.8999 3.98C21.5643 4.22934 22 4.83308 22 5.50446V19.3551C22 20.277 21.0075 20.9074 20.0951 20.565C18.1082 19.8194 15.8918 19.8194 13.9049 20.565L12.0137 21.2747C12.0071 21.2772 12 21.2726 12 21.266M12 4.39284L10.8999 3.98C8.39638 3.04052 5.60362 3.04052 3.10014 3.98C2.43569 4.22934 2 4.83308 2 5.50446V19.3551C2 20.277 2.99247 20.9074 3.90485 20.565C5.89175 19.8194 8.10825 19.8194 10.0951 20.565L11.9863 21.2747C11.9929 21.2772 12 21.2726 12 21.266" stroke="white" stroke-width="1.5"/>
</svg>
