<svg width="25" height="26" viewBox="0 0 25 26" fill="none" xmlns="http://www.w3.org/2000/svg">
<path d="M2 6.92204L1.71154 6.22973C1.43205 6.34618 1.25 6.61926 1.25 6.92204H2ZM12 22.7554L11.7115 23.4477C11.8962 23.5246 12.1038 23.5246 12.2885 23.4477L12 22.7554ZM22 6.92204H22.75C22.75 6.61926 22.5679 6.34618 22.2885 6.22973L22 6.92204ZM7 9.00537L6.71154 9.69768L6.71154 9.69768L7 9.00537ZM11.2308 3.07588L10.9423 2.38358L11.2308 3.07588ZM2.61538 18.8451L2.32692 19.5374L2.61538 18.8451ZM2.75 17.922V6.92204H1.25V17.922H2.75ZM11.25 11.0887V22.7554H12.75V11.0887H11.25ZM12.2885 22.0631L2.90385 18.1528L2.32692 19.5374L11.7115 23.4477L12.2885 22.0631ZM12.2885 23.4477L21.6731 19.5374L21.0962 18.1528L11.7115 22.0631L12.2885 23.4477ZM22.75 17.922V6.92204H21.25V17.922H22.75ZM21.7115 6.22973L11.7115 10.3964L12.2885 11.781L22.2885 7.61435L21.7115 6.22973ZM10.9423 2.38358L1.71154 6.22973L2.28846 7.61435L11.5192 3.76819L10.9423 2.38358ZM1.71154 7.61435L6.71154 9.69768L7.28846 8.31306L2.28846 6.22973L1.71154 7.61435ZM6.71154 9.69768L11.7115 11.781L12.2885 10.3964L7.28846 8.31306L6.71154 9.69768ZM22.2885 6.22973L17.2885 4.1464L16.7115 5.53101L21.7115 7.61435L22.2885 6.22973ZM17.2885 4.1464L13.0577 2.38358L12.4808 3.76819L16.7115 5.53101L17.2885 4.1464ZM7.28846 9.69768L17.2885 5.53101L16.7115 4.1464L6.71154 8.31306L7.28846 9.69768ZM11.5192 3.76819C11.8269 3.63999 12.1731 3.63999 12.4808 3.76819L13.0577 2.38358C12.3808 2.10152 11.6192 2.10153 10.9423 2.38358L11.5192 3.76819ZM21.6731 19.5374C22.3252 19.2657 22.75 18.6285 22.75 17.922H21.25C21.25 18.023 21.1893 18.114 21.0962 18.1528L21.6731 19.5374ZM1.25 17.922C1.25 18.6285 1.67479 19.2657 2.32692 19.5374L2.90385 18.1528C2.81068 18.114 2.75 18.023 2.75 17.922H1.25Z" fill="white"/>
</svg>
