<svg width="25" height="26" viewBox="0 0 25 26" fill="none" xmlns="http://www.w3.org/2000/svg">
<path d="M19.0621 20.5537C17.1077 22.5081 12.1028 20.6717 7.88327 16.4522C3.66372 12.2326 1.82739 7.22772 3.7817 5.2734L5.06847 3.98663C5.9568 3.09831 7.42054 3.12179 8.33784 4.03908L10.3309 6.03217C11.2482 6.94946 11.2717 8.41321 10.3834 9.30154L10.107 9.57792C9.62737 10.0575 9.58045 10.8313 10.0261 11.3713C10.456 11.8922 10.9194 12.4111 11.4219 12.9136C11.9244 13.416 12.4432 13.8795 12.9641 14.3093C13.5042 14.755 14.2779 14.7081 14.7575 14.2285L15.0339 13.9521C15.9222 13.0637 17.386 13.0872 18.3033 14.0045L20.2964 15.9976C21.2137 16.9149 21.2371 18.3787 20.3488 19.267L19.0621 20.5537Z" stroke="white" stroke-width="1.5"/>
</svg>
