<svg width="25" height="26" viewBox="0 0 25 26" fill="none" xmlns="http://www.w3.org/2000/svg">
<path d="M19.0621 20.5537L19.5924 21.0841L19.5924 21.0841L19.0621 20.5537ZM3.7817 5.2734L3.25137 4.74307L3.25137 4.74307L3.7817 5.2734ZM5.06847 3.98663L5.5988 4.51696L5.06847 3.98663ZM8.33784 4.03908L8.86817 3.50875L8.33784 4.03908ZM10.3309 6.03217L9.80059 6.5625L10.3309 6.03217ZM10.3834 9.30154L10.9137 9.83187L10.9137 9.83187L10.3834 9.30154ZM15.0339 13.9521L15.5642 14.4824L15.5642 14.4824L15.0339 13.9521ZM18.3033 14.0045L18.8336 13.4742L18.8336 13.4742L18.3033 14.0045ZM20.2964 15.9976L19.766 16.5279L19.766 16.5279L20.2964 15.9976ZM20.3488 19.267L19.8185 18.7366L19.8185 18.7366L20.3488 19.267ZM14.7575 14.2285L14.2272 13.6981L14.2272 13.6981L14.7575 14.2285ZM10.107 9.57792L9.57666 9.04759L9.57666 9.04759L10.107 9.57792ZM10.0261 11.3713L9.44763 11.8487L10.0261 11.3713ZM13.8973 13.862C13.487 13.9187 13.2003 14.2973 13.2571 14.7076C13.3138 15.118 13.6924 15.4046 14.1027 15.3479L13.8973 13.862ZM11.0159 18.1502C10.6804 17.9073 10.2115 17.9825 9.96862 18.318C9.72576 18.6536 9.8009 19.1225 10.1365 19.3653L11.0159 18.1502ZM3.25137 4.74307C1.94366 6.05079 2.04947 8.19018 2.81319 10.2717C3.60074 12.4181 5.18405 14.8136 7.35294 16.9825L8.4136 15.9218C6.36295 13.8712 4.91831 11.6544 4.22139 9.75499C3.50063 7.79056 3.66544 6.45033 4.31203 5.80373L3.25137 4.74307ZM8.86817 3.50875C7.67415 2.31473 5.73527 2.25917 4.53814 3.4563L5.5988 4.51696C6.17832 3.93744 7.16694 3.92884 7.80751 4.56941L8.86817 3.50875ZM10.8613 5.50184L8.86817 3.50875L7.80751 4.56941L9.80059 6.5625L10.8613 5.50184ZM10.9137 9.83187C12.1108 8.63473 12.0553 6.69586 10.8613 5.50184L9.80059 6.5625C10.4412 7.20307 10.4326 8.19168 9.85304 8.77121L10.9137 9.83187ZM10.6373 10.1082L10.9137 9.83187L9.85304 8.77121L9.57666 9.04759L10.6373 10.1082ZM11.9522 12.3832C11.4691 11.9002 11.0217 11.3994 10.6046 10.894L9.44763 11.8487C9.89023 12.385 10.3697 12.922 10.8915 13.4439L11.9522 12.3832ZM14.5036 13.4217L14.2272 13.6981L15.2879 14.7588L15.5642 14.4824L14.5036 13.4217ZM18.8336 13.4742C17.6396 12.2802 15.7007 12.2246 14.5036 13.4217L15.5642 14.4824C16.1438 13.9029 17.1324 13.8943 17.7729 14.5349L18.8336 13.4742ZM20.8267 15.4673L18.8336 13.4742L17.7729 14.5349L19.766 16.5279L20.8267 15.4673ZM20.8791 19.7973C22.0763 18.6002 22.0207 16.6613 20.8267 15.4673L19.766 16.5279C20.4066 17.1685 20.398 18.1571 19.8185 18.7366L20.8791 19.7973ZM9.57666 9.04759C8.82565 9.7986 8.75424 11.0084 9.44763 11.8487L10.6046 10.894C10.4067 10.6541 10.4291 10.3165 10.6373 10.1082L9.57666 9.04759ZM4.53814 3.4563L3.25137 4.74307L4.31203 5.80373L5.5988 4.51696L4.53814 3.4563ZM19.5924 21.0841L20.8791 19.7973L19.8185 18.7366L18.5317 20.0234L19.5924 21.0841ZM14.1027 15.3479C14.5392 15.2875 14.9582 15.0885 15.2879 14.7588L14.2272 13.6981C14.1355 13.7898 14.0197 13.8451 13.8973 13.862L14.1027 15.3479ZM12.6546 13.0512C12.4173 12.8362 12.1827 12.6138 11.9522 12.3832L10.8915 13.4439C11.1407 13.693 11.3932 13.9325 11.6475 14.1628L12.6546 13.0512ZM7.35294 16.9825C7.56324 17.1928 7.7755 17.3974 7.98927 17.5962L9.01073 16.4978C8.81026 16.3113 8.61108 16.1193 8.4136 15.9218L7.35294 16.9825ZM10.1365 19.3653C11.9279 20.6619 13.756 21.5544 15.3791 21.9114C16.9781 22.263 18.5526 22.1239 19.5924 21.0841L18.5317 20.0234C18.0226 20.5326 17.09 20.7518 15.7012 20.4464C14.3366 20.1462 12.6961 19.3663 11.0159 18.1502L10.1365 19.3653Z" fill="white"/>
<path d="M20.8334 5.54395L5.20837 21.1689" stroke="white" stroke-width="1.5" stroke-linecap="round" stroke-linejoin="round"/>
</svg>
