<svg width="25" height="26" viewBox="0 0 25 26" fill="none" xmlns="http://www.w3.org/2000/svg">
<path d="M19.0621 21.3047C17.1077 23.259 12.1028 21.4227 7.88327 17.2032C3.66372 12.9836 1.82739 7.9787 3.7817 6.02438L5.06847 4.73761C5.9568 3.84928 7.42054 3.87276 8.33784 4.79006L10.3309 6.78315C11.2482 7.70044 11.2717 9.16419 10.3834 10.0525L10.107 10.3289C9.62737 10.8085 9.58045 11.5822 10.0261 12.1223C10.456 12.6432 10.9194 13.1621 11.4219 13.6645C11.9244 14.167 12.4432 14.6305 12.9641 15.0603C13.5042 15.506 14.2779 15.4591 14.7575 14.9794L15.0339 14.7031C15.9222 13.8147 17.386 13.8382 18.3033 14.7555L20.2964 16.7486C21.2137 17.6659 21.2371 19.1296 20.3488 20.018L19.0621 21.3047Z" stroke="white" stroke-width="1.5"/>
<path d="M17.6264 10.0862C17.3825 9.49098 17.0188 8.93335 16.5356 8.45008C16.0796 7.9941 15.5574 7.64463 14.9999 7.40167" stroke="white" stroke-width="1.5" stroke-linecap="round"/>
<path d="M15 3.99886C16.3347 4.48236 17.5869 5.2591 18.6569 6.32909C19.7537 7.42594 20.5424 8.71428 21.023 10.0866" stroke="white" stroke-width="1.5" stroke-linecap="round"/>
</svg>
