<svg width="25" height="26" viewBox="0 0 25 26" fill="none" xmlns="http://www.w3.org/2000/svg">
<path d="M2 11.1518C2 8.96668 3.77136 7.19531 5.95645 7.19531V7.19531C6.58953 7.19531 7.16169 6.81803 7.41107 6.23614L7.72075 5.51356C8.19349 4.4105 9.2781 3.69531 10.4782 3.69531H12H13.5218C14.7219 3.69531 15.8065 4.4105 16.2792 5.51355L16.5889 6.23614C16.8383 6.81803 17.4105 7.19531 18.0435 7.19531V7.19531C20.2286 7.19531 22 8.96668 22 11.1518V16.1953C22 18.9567 19.7614 21.1953 17 21.1953H7C4.23858 21.1953 2 18.9567 2 16.1953V11.1518Z" stroke="white" stroke-width="1.5"/>
<circle r="3" transform="matrix(-1 0 0 1 12 13.1953)" stroke="white" stroke-width="1.5"/>
</svg>
