<svg width="25" height="26" viewBox="0 0 25 26" fill="none" xmlns="http://www.w3.org/2000/svg">
<path d="M2.14709 2.78019C1.74092 2.69896 1.3458 2.96237 1.26456 3.36854C1.18333 3.77471 1.44674 4.16983 1.85291 4.25106L2.14709 2.78019ZM4.8 7.01562L4.05372 7.09025L4.05446 7.09763L4.05534 7.10498L4.8 7.01562ZM21.2855 9.87346L20.5579 9.69155L21.2855 9.87346ZM20.1628 14.3645L19.4352 14.1826L20.1628 14.3645ZM4.6472 5.48765L3.90092 5.56228L4.6472 5.48765ZM1.85291 4.25106L2.90227 4.46093L3.19645 2.99006L2.14709 2.78019L1.85291 4.25106ZM7.77435 17.7656H16.7673V16.2656H7.77435V17.7656ZM20.8904 14.5464L22.0131 10.0554L20.5579 9.69155L19.4352 14.1826L20.8904 14.5464ZM3.90092 5.56228L4.05372 7.09025L5.54628 6.941L5.39348 5.41302L3.90092 5.56228ZM4.05534 7.10498L5.04394 15.3433L6.53325 15.1646L5.54466 6.92627L4.05534 7.10498ZM19.0542 6.26562H4.8V7.76562H19.0542V6.26562ZM22.0131 10.0554C22.4944 8.13036 21.0385 6.26562 19.0542 6.26562V7.76562C20.0626 7.76562 20.8025 8.71328 20.5579 9.69155L22.0131 10.0554ZM16.7673 17.7656C18.7175 17.7656 20.4174 16.4384 20.8904 14.5464L19.4352 14.1826C19.1291 15.4068 18.0292 16.2656 16.7673 16.2656V17.7656ZM7.77435 16.2656C7.1416 16.2656 6.60864 15.7928 6.53325 15.1646L5.04394 15.3433C5.20979 16.7254 6.3823 17.7656 7.77435 17.7656V16.2656ZM2.90227 4.46093C3.44102 4.56868 3.84626 5.01559 3.90092 5.56228L5.39348 5.41302C5.27321 4.2103 4.3817 3.22711 3.19645 2.99006L2.90227 4.46093Z" fill="white"/>
<path d="M13.5417 14.5781H9.375" stroke="white" stroke-width="1.5" stroke-linecap="round" stroke-linejoin="round"/>
<circle cx="8.5" cy="20.5156" r="1.5" fill="white"/>
<circle cx="17.5" cy="20.5156" r="1.5" fill="white"/>
</svg>
