<svg width="25" height="26" viewBox="0 0 25 26" fill="none" xmlns="http://www.w3.org/2000/svg">
<path d="M2 8.94434C2 7.83977 2.89543 6.94434 4 6.94434H20C21.1046 6.94434 22 7.83977 22 8.94434V10.5991C22 11.4823 21.4207 12.261 20.5747 12.5148L13.1494 14.7423C12.3996 14.9673 11.6004 14.9673 10.8506 14.7423L3.42531 12.5148C2.57934 12.261 2 11.4823 2 10.5991V8.94434Z" stroke="white" stroke-width="1.5"/>
<path d="M12.5 12.5694L12.5 10.7837" stroke="white" stroke-width="1.5" stroke-linecap="round" stroke-linejoin="round"/>
<path d="M2.83337 12.0869L2.83337 17.5154C2.83337 19.7246 4.62424 21.5154 6.83338 21.5154H17.1667C19.3758 21.5154 21.1667 19.7246 21.1667 17.5154V12.0869" stroke="white" stroke-width="1.5"/>
<path d="M15.3333 6.94418V5.51563C15.3333 4.41106 14.4379 3.51562 13.3333 3.51562H10.6666C9.56206 3.51562 8.66663 4.41106 8.66663 5.51563L8.66663 6.94418" stroke="white" stroke-width="1.5"/>
</svg>
