<svg width="25" height="26" viewBox="0 0 25 26" fill="none" xmlns="http://www.w3.org/2000/svg">
<path d="M22.75 9.63574C22.75 9.22153 22.4142 8.88574 22 8.88574C21.5858 8.88574 21.25 9.22153 21.25 9.63574H22.75ZM16 3.38574C16.4142 3.38574 16.75 3.04996 16.75 2.63574C16.75 2.22153 16.4142 1.88574 16 1.88574V3.38574ZM17 21.8857H7V23.3857H17V21.8857ZM2.75 17.6357V7.63574H1.25V17.6357H2.75ZM21.25 9.63574V17.6357H22.75V9.63574H21.25ZM7 3.38574H16V1.88574H7V3.38574ZM7 21.8857C4.65279 21.8857 2.75 19.983 2.75 17.6357H1.25C1.25 20.8114 3.82436 23.3857 7 23.3857V21.8857ZM17 23.3857C20.1756 23.3857 22.75 20.8114 22.75 17.6357H21.25C21.25 19.983 19.3472 21.8857 17 21.8857V23.3857ZM2.75 7.63574C2.75 5.28853 4.65279 3.38574 7 3.38574V1.88574C3.82436 1.88574 1.25 4.4601 1.25 7.63574H2.75Z" fill="white"/>
<circle r="2" transform="matrix(-1 0 0 1 21 4.63574)" stroke="white" stroke-width="1.5"/>
<path d="M7.29171 16.0005L10.9375 11.8338L14.0625 14.438L17.7084 10.2713" stroke="white" stroke-width="1.5" stroke-linecap="round" stroke-linejoin="round"/>
</svg>
