<svg width="24" height="26" viewBox="0 0 24 26" fill="none" xmlns="http://www.w3.org/2000/svg">
<path d="M5.33333 18.6778L5.33333 17.9278H5.33333V18.6778ZM17.5556 18.6778L17.5556 19.4278H17.5556V18.6778ZM16.9093 9.82861L17.5796 9.49213L16.9093 9.82861ZM16.9198 9.83404L17.0261 10.5765L16.9198 9.83404ZM5.35907 12.002L6.10594 12.0705L5.35907 12.002ZM5.34902 12.0112L5.34967 11.2612L5.34902 12.0112ZM5.33333 17.9278C3.9066 17.9278 2.75 16.7712 2.75 15.3445H1.25C1.25 17.5996 3.07817 19.4278 5.33333 19.4278V17.9278ZM6.10594 12.0705C6.35585 9.3426 8.65101 7.20557 11.4444 7.20557V5.70557C7.86848 5.70557 4.93219 8.44071 4.6122 11.9336L6.10594 12.0705ZM11.4444 7.20557C13.5406 7.20557 15.3572 8.40848 16.239 10.1651L17.5796 9.49213C16.4531 7.2482 14.1296 5.70557 11.4444 5.70557V7.20557ZM21.25 14.2333C21.25 16.2737 19.5959 17.9278 17.5556 17.9278V19.4278C20.4244 19.4278 22.75 17.1022 22.75 14.2333H21.25ZM17.5556 17.9278L5.33333 17.9278L5.33333 19.4278L17.5556 19.4278L17.5556 17.9278ZM2.75 15.3445C2.75 13.9353 3.9362 12.76 5.34837 12.7612L5.34967 11.2612C3.11793 11.2593 1.25 13.097 1.25 15.3445H2.75ZM17.0261 10.5765C19.2032 10.2647 21.25 12.0206 21.25 14.2333H22.75C22.75 11.1003 19.8872 8.65143 16.8134 9.09161L17.0261 10.5765ZM16.239 10.1651C16.3871 10.46 16.7057 10.6223 17.0261 10.5765L16.8134 9.09161C17.1252 9.04696 17.4354 9.20494 17.5796 9.49213L16.239 10.1651ZM4.6122 11.9336C4.6472 11.5516 4.96779 11.2609 5.34967 11.2612L5.34837 12.7612C5.74063 12.7615 6.07 12.4628 6.10594 12.0705L4.6122 11.9336Z" fill="white"/>
</svg>
