<svg width="25" height="26" viewBox="0 0 25 26" fill="none" xmlns="http://www.w3.org/2000/svg">
<path d="M6 10.2754H18L17.2292 19.5245C17.0997 21.0794 15.7999 22.2754 14.2396 22.2754H9.7604C8.20013 22.2754 6.90033 21.0794 6.77076 19.5245L6 10.2754Z" stroke="white" stroke-width="1.5"/>
<circle r="2" transform="matrix(-1 0 0 1 12 16.2754)" stroke="white" stroke-width="1.5"/>
<path d="M4 8.27539C4 7.17082 4.89543 6.27539 6 6.27539H18C19.1046 6.27539 20 7.17082 20 8.27539V8.27539C20 9.37996 19.1046 10.2754 18 10.2754H6C4.89543 10.2754 4 9.37996 4 8.27539V8.27539Z" stroke="white" stroke-width="1.5"/>
<path d="M6 4.27539C6 3.17082 6.89543 2.27539 8 2.27539H16C17.1046 2.27539 18 3.17082 18 4.27539V5.27539C18 5.82768 17.5523 6.27539 17 6.27539H7C6.44772 6.27539 6 5.82768 6 5.27539V4.27539Z" stroke="white" stroke-width="1.5"/>
</svg>
