<svg width="25" height="26" viewBox="0 0 25 26" fill="none" xmlns="http://www.w3.org/2000/svg">
<path d="M19 7.31543C19 8.69614 15.866 9.81543 12 9.81543C8.13401 9.81543 5 8.69614 5 7.31543M19 7.31543C19 5.93472 15.866 4.81543 12 4.81543C8.13401 4.81543 5 5.93472 5 7.31543M19 7.31543V19.3154C19 20.6961 15.866 21.8154 12 21.8154C8.13401 21.8154 5 20.6961 5 19.3154V7.31543M19 11.3154C19 12.6961 15.866 13.8154 12 13.8154C8.13401 13.8154 5 12.6961 5 11.3154M19 15.3154C19 16.6961 15.866 17.8154 12 17.8154C8.13401 17.8154 5 16.6961 5 15.3154" stroke="white" stroke-width="1.5"/>
</svg>
