<svg width="25" height="26" viewBox="0 0 25 26" fill="none" xmlns="http://www.w3.org/2000/svg">
<path d="M2.31525 10.1516L2.07079 10.8606L2.31525 10.1516ZM2.31525 14.8797L2.07079 14.1706L2.31525 14.8797ZM21.6847 14.8797L21.9292 14.1706L21.6847 14.8797ZM21.6847 10.1516L21.4403 9.44253L21.6847 10.1516ZM6 3.76562C3.37665 3.76562 1.25 5.89227 1.25 8.51562H2.75C2.75 6.7207 4.20507 5.26562 6 5.26562V3.76562ZM18 3.76562H6V5.26562H18V3.76562ZM22.75 8.51562C22.75 5.89227 20.6234 3.76562 18 3.76562V5.26562C19.7949 5.26562 21.25 6.7207 21.25 8.51562H22.75ZM22.75 9.73867V8.51562H21.25V9.73867H22.75ZM20.75 12.5156C20.75 11.7501 21.242 11.0976 21.9292 10.8606L21.4403 9.44253C20.1667 9.88166 19.25 11.0906 19.25 12.5156H20.75ZM21.9292 14.1706C21.242 13.9337 20.75 13.2811 20.75 12.5156H19.25C19.25 13.9406 20.1667 15.1496 21.4403 15.5887L21.9292 14.1706ZM22.75 16.5156V15.2926H21.25V16.5156H22.75ZM18 21.2656C20.6234 21.2656 22.75 19.139 22.75 16.5156H21.25C21.25 18.3106 19.7949 19.7656 18 19.7656V21.2656ZM6 21.2656H18V19.7656H6V21.2656ZM1.25 16.5156C1.25 19.139 3.37665 21.2656 6 21.2656V19.7656C4.20507 19.7656 2.75 18.3106 2.75 16.5156H1.25ZM1.25 15.2926V16.5156H2.75V15.2926H1.25ZM2.55972 15.5887C3.83334 15.1496 4.75 13.9406 4.75 12.5156H3.25C3.25 13.2811 2.75802 13.9337 2.07079 14.1706L2.55972 15.5887ZM4.75 12.5156C4.75 11.0906 3.83334 9.88166 2.55972 9.44253L2.07079 10.8606C2.75802 11.0976 3.25 11.7501 3.25 12.5156H4.75ZM1.25 8.51562V9.73867H2.75V8.51562H1.25ZM2.55972 9.44253C2.62653 9.46556 2.75 9.55358 2.75 9.73867H1.25C1.25 10.3042 1.64428 10.7136 2.07079 10.8606L2.55972 9.44253ZM2.75 15.2926C2.75 15.4777 2.62653 15.5657 2.55972 15.5887L2.07079 14.1706C1.64428 14.3177 1.25 14.727 1.25 15.2926H2.75ZM21.4403 15.5887C21.3735 15.5657 21.25 15.4777 21.25 15.2926H22.75C22.75 14.727 22.3557 14.3177 21.9292 14.1706L21.4403 15.5887ZM21.25 9.73867C21.25 9.55358 21.3735 9.46556 21.4403 9.44253L21.9292 10.8606C22.3557 10.7136 22.75 10.3042 22.75 9.73867H21.25Z" fill="white"/>
<path d="M12.101 9.37743C12.3011 9.11254 12.699 9.11254 12.899 9.37743L13.9512 10.7706C14.011 10.8498 14.0931 10.9094 14.1869 10.9418L15.837 11.512C16.1508 11.6204 16.2737 11.9988 16.0836 12.2709L15.0838 13.7021C15.0269 13.7835 14.9956 13.88 14.9937 13.9792L14.9614 15.7248C14.9553 16.0566 14.6334 16.2905 14.3158 16.1938L12.6457 15.6852C12.5508 15.6562 12.4493 15.6562 12.3544 15.6852L10.6843 16.1938C10.3667 16.2905 10.0448 16.0566 10.0387 15.7248L10.0063 13.9792C10.0045 13.88 9.97316 13.7835 9.91631 13.7021L8.91646 12.2709C8.72636 11.9988 8.84931 11.6204 9.16305 11.512L10.8132 10.9419C10.907 10.9094 10.9891 10.8498 11.0489 10.7706L12.101 9.37743Z" stroke="white" stroke-width="1.5"/>
</svg>
