<svg width="25" height="26" viewBox="0 0 25 26" fill="none" xmlns="http://www.w3.org/2000/svg">
<path d="M2 18.5618C2 17.9545 2.15479 17.3571 2.44975 16.8262L8.63566 5.69155C9.18399 4.70456 10.1381 4.00813 11.2452 3.7867V3.7867C11.7435 3.68705 12.2565 3.68705 12.7548 3.7867V3.7867C13.8619 4.00813 14.816 4.70456 15.3643 5.69155L21.5502 16.8262C21.8452 17.3571 22 17.9545 22 18.5618V18.5618C22 20.5356 20.3999 22.1357 18.4261 22.1357H5.57391C3.60009 22.1357 2 20.5356 2 18.5618V18.5618Z" stroke="white" stroke-width="1.5"/>
<path d="M12.5 10.0106L12.5 14.1772" stroke="white" stroke-width="1.5" stroke-linecap="round" stroke-linejoin="round"/>
<path d="M12.5 17.3024L12.5 17.8232" stroke="white" stroke-width="1.5" stroke-linecap="round" stroke-linejoin="round"/>
</svg>
