<svg width="25" height="26" viewBox="0 0 25 26" fill="none" xmlns="http://www.w3.org/2000/svg">
<path d="M18.25 12.8154C18.25 13.2296 18.5858 13.5654 19 13.5654C19.4142 13.5654 19.75 13.2296 19.75 12.8154H18.25ZM12 23.5654C12.4142 23.5654 12.75 23.2296 12.75 22.8154C12.75 22.4012 12.4142 22.0654 12 22.0654V23.5654ZM18.5364 8.25916L19.1126 7.77902L18.5364 8.25916ZM3.75 18.8154V6.81543H2.25V18.8154H3.75ZM7 3.56543H11V2.06543H7V3.56543ZM11 3.56543H13.0633V2.06543H11V3.56543ZM18.25 9.53953V12.8154H19.75V9.53953H18.25ZM14.0235 4.0152L17.9603 8.7393L19.1126 7.77902L15.1759 3.05492L14.0235 4.0152ZM12 22.0654H7V23.5654H12V22.0654ZM13.0633 3.56543C13.4342 3.56543 13.786 3.73021 14.0235 4.0152L15.1759 3.05492C14.6534 2.42794 13.8794 2.06543 13.0633 2.06543V3.56543ZM2.25 18.8154C2.25 21.4388 4.37665 23.5654 7 23.5654V22.0654C5.20507 22.0654 3.75 20.6104 3.75 18.8154H2.25ZM19.75 9.53953C19.75 8.8962 19.5245 8.27324 19.1126 7.77902L17.9603 8.7393C18.1475 8.96394 18.25 9.24711 18.25 9.53953H19.75ZM3.75 6.81543C3.75 5.0205 5.20507 3.56543 7 3.56543V2.06543C4.37665 2.06543 2.25 4.19208 2.25 6.81543H3.75Z" fill="white"/>
<path d="M16.6666 20.6069H22.9166" stroke="white" stroke-width="1.5" stroke-linecap="round" stroke-linejoin="round"/>
<path d="M14 3.31543V6.81543C14 7.92 14.8954 8.81543 16 8.81543H18.5" stroke="white" stroke-width="1.5" stroke-linecap="round"/>
</svg>
