<svg width="25" height="26" viewBox="0 0 25 26" fill="none" xmlns="http://www.w3.org/2000/svg">
<path d="M9 9.20557C9.41421 9.20557 9.75 8.86978 9.75 8.45557C9.75 8.04135 9.41421 7.70557 9 7.70557L9 9.20557ZM17 7.70557C16.5858 7.70557 16.25 8.04135 16.25 8.45557C16.25 8.86978 16.5858 9.20557 17 9.20557L17 7.70557ZM22.25 12.4556L22.25 17.4556L23.75 17.4556L23.75 12.4556L22.25 12.4556ZM19 20.7056L7 20.7056L7 22.2056L19 22.2056L19 20.7056ZM3.75 17.4556L3.75 12.4556L2.25 12.4556L2.25 17.4556L3.75 17.4556ZM7 9.20557L9 9.20557L9 7.70557L7 7.70557L7 9.20557ZM17 9.20557L19 9.20557L19 7.70557L17 7.70557L17 9.20557ZM3.75 12.4556C3.75 10.6606 5.20507 9.20557 7 9.20557L7 7.70557C4.37665 7.70557 2.25 9.83221 2.25 12.4556L3.75 12.4556ZM7 20.7056C5.20507 20.7056 3.75 19.2505 3.75 17.4556L2.25 17.4556C2.25 20.0789 4.37665 22.2056 7 22.2056L7 20.7056ZM22.25 17.4556C22.25 19.2505 20.7949 20.7056 19 20.7056L19 22.2056C21.6234 22.2056 23.75 20.0789 23.75 17.4556L22.25 17.4556ZM23.75 12.4556C23.75 9.83221 21.6234 7.70557 19 7.70557L19 9.20557C20.7949 9.20557 22.25 10.6606 22.25 12.4556L23.75 12.4556Z" fill="white"/>
<path d="M10 13.4556L12.2929 15.7485C12.6834 16.139 13.3166 16.139 13.7071 15.7485L16 13.4556" stroke="white" stroke-width="1.5" stroke-linecap="round"/>
<path d="M13 15.4556L13 3.45557" stroke="white" stroke-width="1.5" stroke-linecap="round"/>
</svg>
