<svg width="25" height="26" viewBox="0 0 25 26" fill="none" xmlns="http://www.w3.org/2000/svg">
<path fill-rule="evenodd" clip-rule="evenodd" d="M13.5137 4.14146C14.5869 3.0667 16.3274 3.06605 17.4013 4.13999L19.8932 6.63184C20.958 7.69662 20.969 9.42038 19.918 10.4988L18.3034 12.1553C18.3864 12.4144 18.3252 12.7096 18.1198 12.9153C17.919 13.1164 17.6326 13.1796 17.3779 13.1049L10.6849 19.972C9.97933 20.6959 9.01167 21.1041 8.00124 21.104L5.24909 21.1039C3.96984 21.1038 2.94823 20.0375 3.00203 18.7584L3.12019 15.9494C3.15968 15.0103 3.54996 14.1203 4.2138 13.4555L13.5137 4.14146ZM18.8446 9.45099L17.3005 11.0353L13.022 6.75683L14.5744 5.20212C15.0622 4.71359 15.8533 4.71329 16.3415 5.20145L18.8333 7.6933C19.3173 8.17729 19.3224 8.96082 18.8446 9.45099ZM5.27446 14.5161L11.9622 7.8183L16.2534 12.1096L9.61148 18.9242C9.18816 19.3586 8.60756 19.6035 8.0013 19.6035L5.24916 19.6033C4.82274 19.6033 4.4822 19.2479 4.50014 18.8215L4.61829 16.0125C4.64199 15.449 4.87616 14.915 5.27446 14.5161ZM21.3696 21.8617C21.7837 21.8617 22.1193 21.5258 22.1193 21.1115C22.1193 20.6971 21.7837 20.3612 21.3696 20.3612H14.9928C14.5788 20.3612 14.2431 20.6971 14.2431 21.1115C14.2431 21.5258 14.5788 21.8617 14.9928 21.8617H21.3696Z" fill="white"/>
</svg>
