<svg width="25" height="26" viewBox="0 0 25 26" fill="none" xmlns="http://www.w3.org/2000/svg">
<path fill-rule="evenodd" clip-rule="evenodd" d="M20.0378 3.05555C19.0731 2.0949 17.5097 2.09549 16.5457 3.05686L9.0903 10.4938C8.49401 11.0885 8.14344 11.8846 8.10796 12.7246L8.00182 15.2373C7.9535 16.3814 8.87116 17.3353 10.0203 17.3353L12.4924 17.3354C13.4 17.3355 14.2692 16.9704 14.9029 16.3229L22.2984 8.74349C23.2425 7.77889 23.2326 6.23697 22.2761 5.28452L20.0378 3.05555ZM17.4985 4.00563C17.9366 3.56864 18.6473 3.56837 19.0858 4.00503L21.3241 6.23401C21.7588 6.66694 21.7634 7.36781 21.3342 7.80626L19.8489 9.32382L16.0046 5.49553L17.4985 4.00563ZM15.0526 6.44501L10.043 11.4426C9.68526 11.7994 9.47492 12.277 9.45363 12.781L9.3475 15.2937C9.33139 15.6751 9.63728 15.9931 10.0203 15.9931L12.4924 15.9932C13.037 15.9932 13.5585 15.7741 13.9388 15.3856L18.9084 10.2848L15.0526 6.44501Z" fill="white"/>
<path d="M21.75 13.3354C21.75 12.9212 21.4142 12.5854 21 12.5854C20.5858 12.5854 20.25 12.9212 20.25 13.3354H21.75ZM12 5.08545C12.4142 5.08545 12.75 4.74966 12.75 4.33545C12.75 3.92124 12.4142 3.58545 12 3.58545V5.08545ZM16 21.5854H8V23.0854H16V21.5854ZM3.75 17.3354V9.33545H2.25V17.3354H3.75ZM20.25 13.3354V17.3354H21.75V13.3354H20.25ZM8 5.08545H12V3.58545H8V5.08545ZM8 21.5854C5.65279 21.5854 3.75 19.6827 3.75 17.3354H2.25C2.25 20.5111 4.82436 23.0854 8 23.0854V21.5854ZM16 23.0854C19.1756 23.0854 21.75 20.5111 21.75 17.3354H20.25C20.25 19.6827 18.3472 21.5854 16 21.5854V23.0854ZM3.75 9.33545C3.75 6.98824 5.65279 5.08545 8 5.08545V3.58545C4.82436 3.58545 2.25 6.15981 2.25 9.33545H3.75Z" fill="white"/>
</svg>
