<svg width="25" height="26" viewBox="0 0 25 26" fill="none" xmlns="http://www.w3.org/2000/svg">
<path d="M5 5.60872C5 3.76777 6.49239 2.27539 8.33333 2.27539H11.6667V8.94206H8.33333C6.49238 8.94206 5 7.44967 5 5.60872V5.60872Z" stroke="white" stroke-width="1.5"/>
<path d="M18.3334 5.60872C18.3334 3.76777 16.841 2.27539 15 2.27539H11.6667V8.94206H15C16.841 8.94206 18.3334 7.44967 18.3334 5.60872V5.60872Z" stroke="white" stroke-width="1.5"/>
<path d="M18.3334 12.2752C18.3334 10.4343 16.841 8.94189 15 8.94189V8.94189C13.1591 8.94189 11.6667 10.4343 11.6667 12.2752V12.2752C11.6667 14.1162 13.1591 15.6086 15 15.6086V15.6086C16.841 15.6086 18.3334 14.1162 18.3334 12.2752V12.2752Z" stroke="white" stroke-width="1.5"/>
<path d="M5 12.2752C5 10.4343 6.49239 8.94189 8.33333 8.94189H11.6667V15.6086H8.33333C6.49238 15.6086 5 14.1162 5 12.2752V12.2752Z" stroke="white" stroke-width="1.5"/>
<path d="M5 18.9422C5 17.1013 6.49239 15.6089 8.33333 15.6089H11.6667V18.9422C11.6667 20.7832 10.1743 22.2756 8.33333 22.2756V22.2756C6.49238 22.2756 5 20.7832 5 18.9422V18.9422Z" stroke="white" stroke-width="1.5"/>
</svg>
