<svg width="25" height="26" viewBox="0 0 25 26" fill="none" xmlns="http://www.w3.org/2000/svg">
<path d="M4 3.77539C4 2.94696 4.67157 2.27539 5.5 2.27539H10.5C11.3284 2.27539 12 2.94696 12 3.77539V11.7754C12 12.6038 11.3284 13.2754 10.5 13.2754H4V3.77539Z" stroke="white" stroke-width="1.5"/>
<path d="M12 4.27539H18.0362C18.8535 4.27539 19.3257 5.20259 18.845 5.86356L16.8555 8.59905C16.3455 9.30035 16.3455 10.2504 16.8555 10.9517L18.845 13.6872C19.3257 14.3482 18.8535 15.2754 18.0362 15.2754H13C12.4477 15.2754 12 14.8277 12 14.2754V4.27539Z" stroke="white" stroke-width="1.5"/>
<path d="M4.16663 23.1919L4.16663 4.44189" stroke="white" stroke-width="1.5" stroke-linecap="round" stroke-linejoin="round"/>
</svg>
