<svg width="25" height="26" viewBox="0 0 25 26" fill="none" xmlns="http://www.w3.org/2000/svg">
<path d="M12.1027 6.05914L12.713 5.62322L12.713 5.62322L12.1027 6.05914ZM11.3973 5.07172L10.787 5.50764L10.787 5.50764L11.3973 5.07172ZM21.25 12.3154V16.8154H22.75V12.3154H21.25ZM17 21.0654H7V22.5654H17V21.0654ZM2.75 16.8154V8.81543H1.25V16.8154H2.75ZM7 4.56543H8.95615V3.06543H7V4.56543ZM10.787 5.50764L11.4924 6.49507L12.713 5.62322L12.0076 4.63579L10.787 5.50764ZM14.5439 8.06543H17V6.56543H14.5439V8.06543ZM11.4924 6.49507C12.1963 7.48056 13.3328 8.06543 14.5439 8.06543V6.56543C13.8172 6.56543 13.1353 6.21451 12.713 5.62322L11.4924 6.49507ZM8.95615 4.56543C9.68279 4.56543 10.3647 4.91635 10.787 5.50764L12.0076 4.63579C11.3037 3.6503 10.1672 3.06543 8.95615 3.06543V4.56543ZM7 21.0654C4.65279 21.0654 2.75 19.1626 2.75 16.8154H1.25C1.25 19.9911 3.82436 22.5654 7 22.5654V21.0654ZM21.25 16.8154C21.25 19.1626 19.3472 21.0654 17 21.0654V22.5654C20.1756 22.5654 22.75 19.9911 22.75 16.8154H21.25ZM22.75 12.3154C22.75 9.13979 20.1756 6.56543 17 6.56543V8.06543C19.3472 8.06543 21.25 9.96822 21.25 12.3154H22.75ZM2.75 8.81543C2.75 6.46822 4.65279 4.56543 7 4.56543V3.06543C3.82436 3.06543 1.25 5.63979 1.25 8.81543H2.75ZM11 5.56543H16.5V4.06543H11V5.56543ZM16.5 5.56543C18.5711 5.56543 20.25 7.24436 20.25 9.31543H21.75C21.75 6.41593 19.3995 4.06543 16.5 4.06543V5.56543Z" fill="white"/>
<path d="M12.5 18.0028H18.75" stroke="white" stroke-width="1.5" stroke-linecap="round" stroke-linejoin="round"/>
</svg>
