<svg width="24" height="26" viewBox="0 0 24 26" fill="none" xmlns="http://www.w3.org/2000/svg">
<path d="M2 10.396C2 7.43789 4.55409 5.12647 7.49752 5.42081L11.403 5.81135C11.8 5.85106 12.2 5.85106 12.597 5.81135L16.5025 5.42081C19.4459 5.12647 22 7.43789 22 10.396V16.3955C22 19.9887 17.3041 21.3507 15.3815 18.3151C14.0112 16.1514 10.8803 16.0791 9.4116 18.1773L9.12736 18.5833C6.93073 21.7214 2 20.1671 2 16.3366V10.396Z" stroke="white" stroke-width="1.5"/>
<circle cx="18" cy="10.3711" r="1" fill="white"/>
<circle cx="16" cy="13.3711" r="1" fill="white"/>
<path d="M7.78552 14.4328L7.78552 10.2661" stroke="white" stroke-width="1.5" stroke-linecap="round" stroke-linejoin="round"/>
<path d="M5.83917 12.3491H9.73193" stroke="white" stroke-width="1.5" stroke-linecap="round" stroke-linejoin="round"/>
</svg>
