<svg width="25" height="26" viewBox="0 0 25 26" fill="none" xmlns="http://www.w3.org/2000/svg">
<path d="M14.5 11.4556H20V18.4556C20 20.6647 18.2091 22.4556 16 22.4556H8C5.79086 22.4556 4 20.6647 4 18.4556V11.4556H9.5" stroke="white" stroke-width="1.5"/>
<path d="M16.5 11.4556H19.5C20.3284 11.4556 21 10.784 21 9.95557V7.95557C21 7.12714 20.3284 6.45557 19.5 6.45557H4.5C3.67157 6.45557 3 7.12714 3 7.95557V9.95557C3 10.784 3.67157 11.4556 4.5 11.4556H7.5" stroke="white" stroke-width="1.5"/>
<path d="M12 4.95557C12 3.57485 13.1193 2.45557 14.5 2.45557H15C16.1046 2.45557 17 3.351 17 4.45557V4.45557C17 5.56014 16.1046 6.45557 15 6.45557H12V4.95557Z" stroke="white" stroke-width="1.5"/>
<path d="M12 4.95557C12 3.57485 10.8807 2.45557 9.5 2.45557H9C7.89543 2.45557 7 3.351 7 4.45557V4.45557C7 5.56014 7.89543 6.45557 9 6.45557H12V4.95557Z" stroke="white" stroke-width="1.5"/>
<path d="M14.5 6.45557L14.5 22.4556L9.5 22.4556L9.5 6.45557L14.5 6.45557Z" stroke="white" stroke-width="1.5"/>
</svg>
