<svg width="25" height="26" viewBox="0 0 25 26" fill="none" xmlns="http://www.w3.org/2000/svg">
<path d="M11 6.75537C11 6.20309 10.5506 5.74893 10.0026 5.81779C8.77376 5.9722 7.59275 6.4105 6.55544 7.10361C5.23985 7.98267 4.21446 9.23209 3.60896 10.6939C3.00346 12.1557 2.84504 13.7642 3.15372 15.3161C3.4624 16.8679 4.22433 18.2934 5.34315 19.4122C6.46197 20.531 7.88743 21.293 9.43928 21.6017C10.9911 21.9103 12.5997 21.7519 14.0615 21.1464C15.5233 20.5409 16.7727 19.5155 17.6518 18.1999C18.3449 17.1626 18.7832 15.9816 18.9376 14.7528C19.0064 14.2048 18.5523 13.7554 18 13.7554H12.5C11.6716 13.7554 11 13.0838 11 12.2554V6.75537Z" stroke="white" stroke-width="1.5"/>
<path d="M14 4.75537C14 4.20309 14.45 3.74805 14.9966 3.82668C15.5731 3.9096 16.1383 4.06433 16.6788 4.28821C17.5281 4.64 18.2997 5.15561 18.9497 5.80562C19.5998 6.45563 20.1154 7.22731 20.4672 8.07659C20.691 8.61708 20.8458 9.18227 20.9287 9.75876C21.0073 10.3054 20.5523 10.7554 20 10.7554L15 10.7554C14.4477 10.7554 14 10.3077 14 9.75537V4.75537Z" stroke="white" stroke-width="1.5"/>
</svg>
