<svg width="25" height="26" viewBox="0 0 25 26" fill="none" xmlns="http://www.w3.org/2000/svg">
<path d="M21 19.6953V12.6953C21 7.72475 16.9706 3.69531 12 3.69531V3.69531C7.02944 3.69531 3 7.72475 3 12.6953V19.6953" stroke="white" stroke-width="1.5" stroke-linecap="round"/>
<path d="M16 15.6953C16 14.5907 16.8954 13.6953 18 13.6953H19C20.1046 13.6953 21 14.5907 21 15.6953V19.6953C21 20.7999 20.1046 21.6953 19 21.6953H18C16.8954 21.6953 16 20.7999 16 19.6953V15.6953Z" stroke="white" stroke-width="1.5"/>
<path d="M8 15.6953C8 14.5907 7.10457 13.6953 6 13.6953H5C3.89543 13.6953 3 14.5907 3 15.6953V19.6953C3 20.7999 3.89543 21.6953 5 21.6953H6C7.10457 21.6953 8 20.7999 8 19.6953V15.6953Z" stroke="white" stroke-width="1.5"/>
</svg>
