<svg width="25" height="26" viewBox="0 0 25 26" fill="none" xmlns="http://www.w3.org/2000/svg">
<path d="M2.5 11.5141C2.5 10.2899 3.06058 9.13312 4.02142 8.37456L9.52142 4.03245C10.9747 2.88516 13.0253 2.88516 14.4786 4.03245L19.9786 8.37456C20.9394 9.13312 21.5 10.2899 21.5 11.5141V18.0757C21.5 20.2848 19.7091 22.0757 17.5 22.0757H16C15.4477 22.0757 15 21.628 15 21.0757V18.0757C15 16.9711 14.1046 16.0757 13 16.0757H11C9.89543 16.0757 9 16.9711 9 18.0757V21.0757C9 21.628 8.55228 22.0757 8 22.0757H6.5C4.29086 22.0757 2.5 20.2848 2.5 18.0757L2.5 11.5141Z" stroke="white" stroke-width="1.5"/>
</svg>
