<svg width="25" height="26" viewBox="0 0 25 26" fill="none" xmlns="http://www.w3.org/2000/svg">
<rect x="2" y="2.51562" width="20" height="20" rx="5" stroke="white" stroke-width="1.5"/>
<path d="M2.06407 17.4053C1.72701 17.6461 1.64894 18.1145 1.8897 18.4516C2.13046 18.7886 2.59887 18.8667 2.93593 18.6259L2.06407 17.4053ZM21.5199 17.0918C21.8381 17.357 22.311 17.314 22.5762 16.9958C22.8413 16.6776 22.7983 16.2046 22.4801 15.9395L21.5199 17.0918ZM7.07822 16.5938L6.54789 17.1242L7.07822 16.5938ZM2.93593 18.6259L5.19512 17.0122L4.32327 15.7916L2.06407 17.4053L2.93593 18.6259ZM6.54789 17.1242L7.62114 18.1974L8.6818 17.1368L7.60855 16.0635L6.54789 17.1242ZM10.3789 18.1974L15.368 13.2083L14.3073 12.1476L9.3182 17.1368L10.3789 18.1974ZM16.7827 13.1441L21.5199 17.0918L22.4801 15.9395L17.7429 11.9918L16.7827 13.1441ZM15.368 13.2083C15.752 12.8243 16.3655 12.7965 16.7827 13.1441L17.7429 11.9918C16.7297 11.1475 15.2399 11.215 14.3073 12.1476L15.368 13.2083ZM7.62114 18.1974C8.38266 18.9589 9.61734 18.9589 10.3789 18.1974L9.3182 17.1368C9.14246 17.3125 8.85754 17.3125 8.6818 17.1368L7.62114 18.1974ZM5.19512 17.0122C5.6128 16.7139 6.18494 16.7612 6.54789 17.1242L7.60855 16.0635C6.72711 15.1821 5.33762 15.0671 4.32327 15.7916L5.19512 17.0122Z" fill="white"/>
<circle r="2" transform="matrix(-1 0 0 1 8 8.51562)" stroke="white" stroke-width="1.5"/>
</svg>
