<svg width="25" height="26" viewBox="0 0 25 26" fill="none" xmlns="http://www.w3.org/2000/svg">
<path d="M17.7189 10.2827L19.8442 11.4323L20.2891 11.6823C21.237 12.2149 21.237 13.5879 20.2891 14.1204L14.2525 17.512C12.8524 18.2986 11.1476 18.2986 9.74754 17.512L3.71092 14.1204C2.76302 13.5879 2.76303 12.2149 3.71093 11.6823L4.15585 11.4323L6.16334 10.2827M18.1811 15.4015L20.1129 16.3739C21.1092 16.8754 21.1412 18.2951 20.1685 18.8416L14.2525 22.1654C12.8524 22.952 11.1476 22.952 9.74754 22.1654L3.9178 18.8901C2.9284 18.3342 2.98291 16.8831 4.0112 16.4041L6.16334 15.4015M14.2525 12.5665L20.2891 9.17498C21.237 8.64242 21.237 7.26942 20.2891 6.73686L14.2525 3.3453C12.8524 2.55873 11.1476 2.55873 9.74754 3.3453L3.71093 6.73686C2.76303 7.26942 2.76302 8.64242 3.71092 9.17498L9.74754 12.5665C11.1476 13.3531 12.8524 13.3531 14.2525 12.5665Z" stroke="white" stroke-width="1.5"/>
</svg>
