<svg width="25" height="26" viewBox="0 0 25 26" fill="none" xmlns="http://www.w3.org/2000/svg">
<path d="M15.8839 13.533C15.591 13.8259 15.591 14.3008 15.8839 14.5937C16.1768 14.8866 16.6517 14.8866 16.9445 14.5937L15.8839 13.533ZM8.81282 6.46197C8.51992 6.75487 8.51992 7.22974 8.81282 7.52263C9.10571 7.81553 9.58058 7.81553 9.87348 7.52263L8.81282 6.46197ZM14.1161 17.4221C14.409 17.1292 14.409 16.6544 14.1161 16.3615C13.8232 16.0686 13.3483 16.0686 13.0555 16.3615L14.1161 17.4221ZM7.04505 10.3511C7.33794 10.0582 7.33794 9.58329 7.04505 9.2904C6.75216 8.99751 6.27728 8.99751 5.98439 9.2904L7.04505 10.3511ZM18.0052 11.4117L15.8839 13.533L16.9445 14.5937L19.0659 12.4724L18.0052 11.4117ZM9.87348 7.52263L11.9948 5.40131L10.9341 4.34065L8.81282 6.46197L9.87348 7.52263ZM13.0555 16.3615L10.9341 18.4828L11.9948 19.5434L14.1161 17.4221L13.0555 16.3615ZM4.92373 12.4724L7.04505 10.3511L5.98439 9.2904L3.86307 11.4117L4.92373 12.4724ZM4.92373 18.4828C3.264 16.8231 3.264 14.1321 4.92373 12.4724L3.86307 11.4117C1.61755 13.6572 1.61755 17.2979 3.86307 19.5434L4.92373 18.4828ZM3.86307 19.5434C6.10858 21.789 9.74928 21.789 11.9948 19.5434L10.9341 18.4828C9.27441 20.1425 6.58346 20.1425 4.92373 18.4828L3.86307 19.5434ZM18.0052 5.40131C19.6649 7.06104 19.6649 9.75199 18.0052 11.4117L19.0659 12.4724C21.3114 10.2269 21.3114 6.58617 19.0659 4.34065L18.0052 5.40131ZM19.0659 4.34065C16.8203 2.09514 13.1797 2.09514 10.9341 4.34065L11.9948 5.40131C13.6545 3.74158 16.3455 3.74158 18.0052 5.40131L19.0659 4.34065Z" fill="white"/>
<path d="M14.1518 10.2158L9.73242 14.6353" stroke="white" stroke-width="1.5" stroke-linecap="round" stroke-linejoin="round"/>
</svg>
