<svg width="25" height="26" viewBox="0 0 25 26" fill="none" xmlns="http://www.w3.org/2000/svg">
<path d="M19.25 10.9924C19.25 13.4386 17.7887 16.0376 16.0314 18.0803C15.164 19.0887 14.2537 19.9267 13.4767 20.5059C13.0876 20.796 12.7439 21.0121 12.4658 21.1522C12.327 21.2221 12.2139 21.2683 12.1268 21.2959C12.0354 21.3249 11.9969 21.3257 12 21.3257V22.8257C12.3812 22.8257 12.786 22.6704 13.1405 22.4919C13.5186 22.3015 13.9374 22.0334 14.3733 21.7085C15.2463 21.0577 16.236 20.1425 17.1686 19.0586C19.0113 16.9166 20.75 13.9739 20.75 10.9924H19.25ZM12 21.3257C12.0031 21.3257 11.9646 21.3249 11.8732 21.2959C11.7861 21.2683 11.673 21.2221 11.5342 21.1522C11.2561 21.0121 10.9124 20.796 10.5233 20.5059C9.74629 19.9267 8.83605 19.0887 7.96856 18.0803C6.21128 16.0376 4.75 13.4386 4.75 10.9924H3.25C3.25 13.9739 4.98872 16.9166 6.83144 19.0586C7.76395 20.1425 8.75371 21.0577 9.62674 21.7085C10.0626 22.0334 10.4814 22.3015 10.8595 22.4919C11.214 22.6704 11.6188 22.8257 12 22.8257V21.3257ZM4.75 10.9924C4.75 7.04169 7.98851 3.82568 12 3.82568V2.32568C7.17493 2.32568 3.25 6.1985 3.25 10.9924H4.75ZM12 3.82568C16.0115 3.82568 19.25 7.04169 19.25 10.9924H20.75C20.75 6.1985 16.8251 2.32568 12 2.32568V3.82568Z" fill="white"/>
<circle r="3" transform="matrix(-1 0 0 1 12 10.5757)" stroke="white" stroke-width="1.5"/>
</svg>
