<svg width="25" height="26" viewBox="0 0 25 26" fill="none" xmlns="http://www.w3.org/2000/svg">
<rect x="4" y="9.75537" width="16" height="12" rx="4" stroke="white" stroke-width="1.5"/>
<path d="M12.5 17.4222L12.5 15.3389" stroke="white" stroke-width="1.5" stroke-linecap="round" stroke-linejoin="round"/>
<path d="M14.6667 5.89766C14.9035 6.23754 15.3709 6.32112 15.7108 6.08436C16.0507 5.84759 16.1343 5.38013 15.8975 5.04026L14.6667 5.89766ZM8.27819 4.80399C8.02082 5.12855 8.07528 5.60029 8.39984 5.85766C8.72439 6.11502 9.19613 6.06056 9.4535 5.73601L8.27819 4.80399ZM8.75 9.75537V7.75537H7.25V9.75537H8.75ZM8.75 7.75537C8.75 5.96045 10.2051 4.50537 12 4.50537V3.00537C9.37665 3.00537 7.25 5.13202 7.25 7.75537H8.75ZM15.8975 5.04026C15.331 4.22707 14.5244 3.61143 13.5905 3.27958L13.0883 4.69299C13.7272 4.92005 14.2791 5.34127 14.6667 5.89766L15.8975 5.04026ZM13.5905 3.27958C12.6567 2.94773 11.6424 2.91628 10.6898 3.18963L11.1036 4.63145C11.7554 4.44441 12.4493 4.46593 13.0883 4.69299L13.5905 3.27958ZM10.6898 3.18963C9.73722 3.46299 8.89397 4.02747 8.27819 4.80399L9.4535 5.73601C9.87482 5.2047 10.4518 4.81848 11.1036 4.63145L10.6898 3.18963Z" fill="white"/>
</svg>
