<svg width="25" height="26" viewBox="0 0 25 26" fill="none" xmlns="http://www.w3.org/2000/svg">
<path d="M9.75 16.4556C9.75 16.0414 9.41421 15.7056 9 15.7056C8.58579 15.7056 8.25 16.0414 8.25 16.4556H9.75ZM8.25 8.45557C8.25 8.86978 8.58579 9.20557 9 9.20557C9.41421 9.20557 9.75 8.86978 9.75 8.45557H8.25ZM13 3.20557H18V1.70557H13V3.20557ZM21.25 6.45557V18.4556H22.75V6.45557H21.25ZM18 21.7056H13V23.2056H18V21.7056ZM9.75 18.4556V16.4556H8.25V18.4556H9.75ZM9.75 8.45557V6.45557H8.25V8.45557H9.75ZM13 21.7056C11.2051 21.7056 9.75 20.2505 9.75 18.4556H8.25C8.25 21.0789 10.3766 23.2056 13 23.2056V21.7056ZM21.25 18.4556C21.25 20.2505 19.7949 21.7056 18 21.7056V23.2056C20.6234 23.2056 22.75 21.0789 22.75 18.4556H21.25ZM18 3.20557C19.7949 3.20557 21.25 4.66064 21.25 6.45557H22.75C22.75 3.83221 20.6234 1.70557 18 1.70557V3.20557ZM13 1.70557C10.3766 1.70557 8.25 3.83221 8.25 6.45557H9.75C9.75 4.66064 11.2051 3.20557 13 3.20557V1.70557Z" fill="white"/>
<path d="M14 15.4556L16.2929 13.1627C16.6834 12.7721 16.6834 12.139 16.2929 11.7485L14 9.45557" stroke="white" stroke-width="1.5" stroke-linecap="round"/>
<path d="M16 12.4556L4 12.4556" stroke="white" stroke-width="1.5" stroke-linecap="round"/>
</svg>
