<svg width="25" height="26" viewBox="0 0 25 26" fill="none" xmlns="http://www.w3.org/2000/svg">
<path d="M16.5 9.70557C16.0858 9.70557 15.75 9.36978 15.75 8.95557C15.75 8.54135 16.0858 8.20557 16.5 8.20557L16.5 9.70557ZM8.5 8.20557C8.91421 8.20557 9.25 8.54135 9.25 8.95557C9.25 9.36978 8.91421 9.70557 8.5 9.70557L8.5 8.20557ZM3.25 12.9556L3.25 17.9556L1.75 17.9556L1.75 12.9556L3.25 12.9556ZM6.5 21.2056L18.5 21.2056L18.5 22.7056L6.5 22.7056L6.5 21.2056ZM21.75 17.9556L21.75 12.9556L23.25 12.9556L23.25 17.9556L21.75 17.9556ZM18.5 9.70557L16.5 9.70557L16.5 8.20557L18.5 8.20557L18.5 9.70557ZM8.5 9.70557L6.5 9.70557L6.5 8.20557L8.5 8.20557L8.5 9.70557ZM21.75 12.9556C21.75 11.1606 20.2949 9.70557 18.5 9.70557L18.5 8.20557C21.1234 8.20557 23.25 10.3322 23.25 12.9556L21.75 12.9556ZM18.5 21.2056C20.2949 21.2056 21.75 19.7505 21.75 17.9556L23.25 17.9556C23.25 20.5789 21.1234 22.7056 18.5 22.7056L18.5 21.2056ZM3.25 17.9556C3.25 19.7505 4.70508 21.2056 6.5 21.2056L6.5 22.7056C3.87665 22.7056 1.75 20.5789 1.75 17.9556L3.25 17.9556ZM1.75 12.9556C1.75 10.3322 3.87665 8.20557 6.5 8.20557L6.5 9.70557C4.70507 9.70557 3.25 11.1606 3.25 12.9556L1.75 12.9556Z" fill="white"/>
<path d="M15.5 5.95557L13.2071 3.66267C12.8166 3.27215 12.1834 3.27215 11.7929 3.66267L9.5 5.95557" stroke="white" stroke-width="1.5" stroke-linecap="round"/>
<path d="M12.5 3.95557L12.5 15.9556" stroke="white" stroke-width="1.5" stroke-linecap="round"/>
</svg>
