<svg width="25" height="26" viewBox="0 0 25 26" fill="none" xmlns="http://www.w3.org/2000/svg">
<path d="M3.6247 22.2759L4.09322 22.8616L4.09322 22.8616L3.6247 22.2759ZM6.45217 20.0139L6.92069 20.5996L6.45217 20.0139ZM2.75 8.57568C2.75 6.22847 4.65279 4.32568 7 4.32568V2.82568C3.82436 2.82568 1.25 5.40005 1.25 8.57568H2.75ZM2.75 14.0757V8.57568H1.25V14.0757H2.75ZM2.75 14.5757V14.0757H1.25V14.5757H2.75ZM2.75 21.4951V14.5757H1.25V21.4951H2.75ZM3.15617 21.6903C2.99248 21.8212 2.75 21.7047 2.75 21.4951H1.25C1.25 22.9624 2.94738 23.7782 4.09322 22.8616L3.15617 21.6903ZM5.98365 19.4283L3.15617 21.6903L4.09322 22.8616L6.92069 20.5996L5.98365 19.4283ZM17 18.8257H7.70156V20.3257H17V18.8257ZM21.25 14.5757C21.25 16.9229 19.3472 18.8257 17 18.8257V20.3257C20.1756 20.3257 22.75 17.7513 22.75 14.5757H21.25ZM21.25 8.57568V14.5757H22.75V8.57568H21.25ZM17 4.32568C19.3472 4.32568 21.25 6.22847 21.25 8.57568H22.75C22.75 5.40005 20.1756 2.82568 17 2.82568V4.32568ZM7 4.32568H17V2.82568H7V4.32568ZM6.92069 20.5996C7.14233 20.4223 7.41772 20.3257 7.70156 20.3257V18.8257C7.07712 18.8257 6.47126 19.0382 5.98365 19.4283L6.92069 20.5996Z" fill="white"/>
<circle cx="7.05005" cy="11.6255" r="1.25" fill="white"/>
<circle cx="12.05" cy="11.6255" r="1.25" fill="white"/>
<circle cx="17.05" cy="11.6255" r="1.25" fill="white"/>
</svg>
