<svg width="25" height="26" viewBox="0 0 25 26" fill="none" xmlns="http://www.w3.org/2000/svg">
<path d="M2.23903 20.6049L1.53188 20.355L1.53188 20.355L2.23903 20.6049ZM3.77027 22.1361L4.02015 22.8433L4.02015 22.8433L3.77027 22.1361ZM6.29286 21.2448L6.54274 21.9519L6.29286 21.2448ZM7.15817 21.3274L6.79451 21.9834L7.15817 21.3274ZM3.10104 17.1419L2.43404 17.4849L3.10104 17.1419ZM2.75 12.5757C2.75 7.46705 6.89137 3.32568 12 3.32568V1.82568C6.06294 1.82568 1.25 6.63862 1.25 12.5757H2.75ZM3.76804 16.799C3.11751 15.5338 2.75 14.0987 2.75 12.5757H1.25C1.25 14.3428 1.67697 16.0124 2.43404 17.4849L3.76804 16.799ZM2.94618 20.8548L3.87446 18.2278L2.46016 17.728L1.53188 20.355L2.94618 20.8548ZM3.52039 21.429C3.16372 21.555 2.82014 21.2115 2.94618 20.8548L1.53188 20.355C0.985728 21.9006 2.47455 23.3894 4.02015 22.8433L3.52039 21.429ZM6.04298 20.5376L3.52039 21.429L4.02015 22.8433L6.54274 21.9519L6.04298 20.5376ZM12 21.8257C10.3739 21.8257 8.84798 21.4068 7.52184 20.6715L6.79451 21.9834C8.33751 22.8389 10.113 23.3257 12 23.3257V21.8257ZM21.25 12.5757C21.25 17.6843 17.1086 21.8257 12 21.8257V23.3257C17.9371 23.3257 22.75 18.5127 22.75 12.5757H21.25ZM12 3.32568C17.1086 3.32568 21.25 7.46705 21.25 12.5757H22.75C22.75 6.63862 17.9371 1.82568 12 1.82568V3.32568ZM6.54274 21.9519C6.60823 21.9288 6.7001 21.931 6.79451 21.9834L7.52184 20.6715C7.08623 20.43 6.54889 20.3589 6.04298 20.5376L6.54274 21.9519ZM2.43404 17.4849C2.4814 17.577 2.48243 17.665 2.46016 17.728L3.87446 18.2278C4.04633 17.7414 3.98714 17.2251 3.76804 16.799L2.43404 17.4849Z" fill="white"/>
<circle cx="7.05005" cy="12.6255" r="1.25" fill="white"/>
<circle cx="12.05" cy="12.6255" r="1.25" fill="white"/>
<circle cx="17.05" cy="12.6255" r="1.25" fill="white"/>
</svg>
