<svg width="25" height="25" viewBox="0 0 25 25" fill="none" xmlns="http://www.w3.org/2000/svg">
<path d="M16.4136 12.7686C16.5559 12.3796 16.3559 11.9489 15.9669 11.8066C15.5779 11.6643 15.1472 11.8642 15.0049 12.2532L16.4136 12.7686ZM13.1102 14.3066C12.7272 14.4644 12.5447 14.9028 12.7025 15.2857C12.8603 15.6687 13.2987 15.8512 13.6817 15.6934L13.1102 14.3066ZM8.75 10.8513V6.42565H7.25V10.8513H8.75ZM12 2.75C13.7254 2.75 15.25 4.32249 15.25 6.42565H16.75C16.75 3.64037 14.6929 1.25 12 1.25V2.75ZM12 1.25C9.3071 1.25 7.25 3.64037 7.25 6.42565H8.75C8.75 4.32249 10.2746 2.75 12 2.75V1.25ZM15.25 6.42565V9.08527H16.75V6.42565H15.25ZM13.6817 15.6934C14.9441 15.1732 15.9279 14.0961 16.4136 12.7686L15.0049 12.2532C14.6509 13.2208 13.9503 13.9604 13.1102 14.3066L13.6817 15.6934ZM10.2969 13.9814C9.38426 13.3438 8.75 12.1938 8.75 10.8513H7.25C7.25 12.6624 8.10638 14.2809 9.43794 15.211L10.2969 13.9814Z" fill="white"/>
<path d="M20.75 11.5C20.75 11.0858 20.4142 10.75 20 10.75C19.5858 10.75 19.25 11.0858 19.25 11.5H20.75ZM4.75 11.5C4.75 11.0858 4.41421 10.75 4 10.75C3.58579 10.75 3.25 11.0858 3.25 11.5H4.75ZM6.62372 18.4039C6.95037 18.6586 7.42165 18.6003 7.67635 18.2737C7.93105 17.947 7.87273 17.4757 7.54608 17.221L6.62372 18.4039ZM9.47148 18.2971C9.08328 18.1526 8.65146 18.3502 8.50699 18.7384C8.36251 19.1266 8.56009 19.5584 8.94829 19.7029L9.47148 18.2971ZM19.25 11.5C19.25 15.5041 16.0041 18.75 12 18.75V20.25C16.8325 20.25 20.75 16.3325 20.75 11.5H19.25ZM7.54608 17.221C5.84299 15.8931 4.75 13.8244 4.75 11.5H3.25C3.25 14.3062 4.5718 16.804 6.62372 18.4039L7.54608 17.221ZM12 18.75C11.1093 18.75 10.2578 18.5897 9.47148 18.2971L8.94829 19.7029C9.89945 20.0569 10.928 20.25 12 20.25V18.75Z" fill="white"/>
<path d="M11.25 22C11.25 22.4142 11.5858 22.75 12 22.75C12.4142 22.75 12.75 22.4142 12.75 22H11.25ZM12.75 20C12.75 19.5858 12.4142 19.25 12 19.25C11.5858 19.25 11.25 19.5858 11.25 20H12.75ZM12.75 22V20H11.25V22H12.75Z" fill="white"/>
<path d="M20.8334 5.2085L5.20837 20.8335" stroke="white" stroke-width="1.5" stroke-linecap="round" stroke-linejoin="round"/>
</svg>
