<svg width="24" height="26" viewBox="0 0 24 26" fill="none" xmlns="http://www.w3.org/2000/svg">
<rect x="2" y="8.39551" width="20" height="14" rx="5" stroke="white" stroke-width="1.5"/>
<path d="M11.25 7.89551C11.25 8.30972 11.5858 8.64551 12 8.64551C12.4142 8.64551 12.75 8.30972 12.75 7.89551H11.25ZM9.75 3.39551C9.75 2.98129 9.41421 2.64551 9 2.64551C8.58579 2.64551 8.25 2.98129 8.25 3.39551H9.75ZM12.75 7.89551V7.39551H11.25V7.89551H12.75ZM9.75 4.39551V3.39551H8.25V4.39551H9.75ZM10.5 5.14551C10.0858 5.14551 9.75 4.80972 9.75 4.39551H8.25C8.25 5.63815 9.25736 6.64551 10.5 6.64551V5.14551ZM12.75 7.39551C12.75 6.15287 11.7426 5.14551 10.5 5.14551V6.64551C10.9142 6.64551 11.25 6.98129 11.25 7.39551H12.75Z" fill="white"/>
<circle cx="18" cy="13.8955" r="1" fill="white"/>
<circle cx="16" cy="16.8955" r="1" fill="white"/>
<path d="M7.78552 18.1037L7.78552 13.937" stroke="white" stroke-width="1.5" stroke-linecap="round" stroke-linejoin="round"/>
<path d="M5.83916 16.0205H9.73193" stroke="white" stroke-width="1.5" stroke-linecap="round" stroke-linejoin="round"/>
</svg>
