<svg width="25" height="26" viewBox="0 0 25 26" fill="none" xmlns="http://www.w3.org/2000/svg">
<path d="M5 4.31543H19V20.281C19 21.1113 18.0466 21.58 17.3892 21.0728L16.0584 20.0462C15.7236 19.7879 15.2625 19.7681 14.9068 19.9968L13.0815 21.1702C12.4227 21.5937 11.5773 21.5937 10.9185 21.1702L9.0932 19.9968C8.73751 19.7681 8.27644 19.7879 7.94164 20.0462L6.6108 21.0728C5.95338 21.58 5 21.1113 5 20.281V4.31543Z" stroke="white" stroke-width="1.5"/>
<path d="M9.375 10.7113H12.5" stroke="white" stroke-width="1.5" stroke-linecap="round" stroke-linejoin="round"/>
<path d="M3.125 4.46126H21.875" stroke="white" stroke-width="1.5" stroke-linecap="round" stroke-linejoin="round"/>
<path d="M9.375 14.8778H12.5" stroke="white" stroke-width="1.5" stroke-linecap="round" stroke-linejoin="round"/>
<path d="M15.625 10.7113H16.1458" stroke="white" stroke-width="1.5" stroke-linecap="round" stroke-linejoin="round"/>
<path d="M15.625 14.8778H16.1458" stroke="white" stroke-width="1.5" stroke-linecap="round" stroke-linejoin="round"/>
</svg>
