<svg width="25" height="26" viewBox="0 0 25 26" fill="none" xmlns="http://www.w3.org/2000/svg">
<g clip-path="url(#clip0_11_3452)">
<path d="M18.3036 13.3245L17.7537 12.8145L18.3036 13.3245ZM11.2326 6.25346L11.7426 6.80336L11.2326 6.25346ZM21.661 4.78795L22.4047 4.88521L21.661 4.78795ZM19.7691 2.89609L19.8664 3.63975L19.8664 3.63975L19.7691 2.89609ZM6.49447 13.1662L7.16789 13.4964L6.49447 13.1662ZM11.3909 18.0626L11.0607 17.3892L11.0607 17.3892L11.3909 18.0626ZM8.2274 10.6728C7.93451 10.3799 7.45963 10.3799 7.16674 10.6728C6.87385 10.9657 6.87385 11.4406 7.16674 11.7335L8.2274 10.6728ZM12.8236 17.3903C13.1165 17.6832 13.5914 17.6832 13.8843 17.3903C14.1771 17.0975 14.1771 16.6226 13.8843 16.3297L12.8236 17.3903ZM6.45963 19.1581C6.75253 18.8652 6.75253 18.3903 6.45963 18.0975C6.16674 17.8046 5.69187 17.8046 5.39897 18.0975L6.45963 19.1581ZM2.57055 20.9259C2.27765 21.2188 2.27765 21.6936 2.57055 21.9865C2.86344 22.2794 3.33831 22.2794 3.63121 21.9865L2.57055 20.9259ZM4.33831 17.0368C4.63121 16.7439 4.63121 16.269 4.33831 15.9761C4.04542 15.6832 3.57054 15.6832 3.27765 15.9761L4.33831 17.0368ZM1.86344 17.3903C1.57055 17.6832 1.57055 18.1581 1.86344 18.451C2.15633 18.7439 2.63121 18.7439 2.9241 18.451L1.86344 17.3903ZM8.58095 21.2794C8.87384 20.9865 8.87384 20.5117 8.58095 20.2188C8.28806 19.9259 7.81318 19.9259 7.52029 20.2188L8.58095 21.2794ZM6.10608 21.633C5.81319 21.9259 5.81319 22.4008 6.10608 22.6936C6.39897 22.9865 6.87385 22.9865 7.16674 22.6936L6.10608 21.633ZM10.5962 21.5976L11.3387 21.4916L11.3387 21.4916L10.5962 21.5976ZM15.7581 18.1328L16.5005 18.0267L16.5005 18.0267L15.7581 18.1328ZM2.95943 13.9609L3.0655 13.2184L3.0655 13.2184L2.95943 13.9609ZM6.42426 8.79902L6.31819 9.54148L6.31819 9.54148L6.42426 8.79902ZM9.75035 17.1456L7.41149 14.8067L6.35083 15.8674L8.68969 18.2063L9.75035 17.1456ZM17.7537 12.8145C15.8601 14.8562 12.7854 16.5437 11.0607 17.3892L11.721 18.7361C13.4612 17.8829 16.7569 16.0952 18.8535 13.8345L17.7537 12.8145ZM7.16789 13.4964C8.01343 11.7717 9.70084 8.697 11.7426 6.80336L10.7226 5.70356C8.46194 7.80021 6.67418 11.0959 5.82104 12.8361L7.16789 13.4964ZM20.9173 4.69068C20.6135 7.01403 19.8062 10.6016 17.7537 12.8145L18.8535 13.8345C21.249 11.2517 22.0961 7.24421 22.4047 4.88521L20.9173 4.69068ZM11.7426 6.80336C13.9555 4.75094 17.5431 3.94362 19.8664 3.63975L19.6719 2.15242C17.3129 2.46095 13.3054 3.30805 10.7226 5.70356L11.7426 6.80336ZM22.4047 4.88521C22.6157 3.27133 21.2858 1.94135 19.6719 2.15242L19.8664 3.63975C20.5034 3.55645 21.0006 4.05372 20.9173 4.69068L22.4047 4.88521ZM7.41149 14.8067C7.04831 14.4436 6.95957 13.9213 7.16789 13.4964L5.82104 12.8361C5.31284 13.8727 5.56304 15.0796 6.35083 15.8674L7.41149 14.8067ZM8.68969 18.2063C9.47748 18.9941 10.6844 19.2442 11.721 18.7361L11.0607 17.3892C10.6358 17.5975 10.1135 17.5088 9.75035 17.1456L8.68969 18.2063ZM7.16674 11.7335L12.8236 17.3903L13.8843 16.3297L8.2274 10.6728L7.16674 11.7335ZM5.39897 18.0975L2.57055 20.9259L3.63121 21.9865L6.45963 19.1581L5.39897 18.0975ZM3.27765 15.9761L1.86344 17.3903L2.9241 18.451L4.33831 17.0368L3.27765 15.9761ZM7.52029 20.2188L6.10608 21.633L7.16674 22.6936L8.58095 21.2794L7.52029 20.2188ZM13.1771 7.49085C12.1032 8.5648 12.1032 10.306 13.1771 11.3799L14.2378 10.3193C13.7497 9.83113 13.7497 9.03967 14.2378 8.55151L13.1771 7.49085ZM13.1771 11.3799C14.2511 12.4539 15.9923 12.4539 17.0662 11.3799L16.0056 10.3193C15.5174 10.8074 14.726 10.8074 14.2378 10.3193L13.1771 11.3799ZM17.0662 11.3799C18.1402 10.306 18.1402 8.5648 17.0662 7.49085L16.0056 8.55151C16.4937 9.03967 16.4937 9.83113 16.0056 10.3193L17.0662 11.3799ZM17.0662 7.49085C15.9923 6.41691 14.2511 6.41691 13.1771 7.49085L14.2378 8.55151C14.726 8.06336 15.5174 8.06336 16.0056 8.55151L17.0662 7.49085ZM14.9449 18.451L11.7629 21.633L12.8236 22.6936L16.0056 19.5117L14.9449 18.451ZM11.3387 21.4916L10.9144 18.5217L9.42948 18.7339L9.85375 21.7037L11.3387 21.4916ZM14.7328 16.259L15.0156 18.2389L16.5005 18.0267L16.2177 16.0468L14.7328 16.259ZM11.7629 21.633C11.6173 21.7787 11.3678 21.6955 11.3387 21.4916L9.85375 21.7037C10.0577 23.1313 11.8039 23.7134 12.8236 22.6936L11.7629 21.633ZM16.0056 19.5117C16.3951 19.1222 16.5784 18.572 16.5005 18.0267L15.0156 18.2389C15.0268 18.3168 15.0006 18.3954 14.9449 18.451L16.0056 19.5117ZM5.0454 8.55154L1.86342 11.7335L2.92408 12.7942L6.10606 9.6122L5.0454 8.55154ZM2.85337 14.7034L5.82321 15.1276L6.03535 13.6427L3.0655 13.2184L2.85337 14.7034ZM8.51022 8.3394L6.53032 8.05656L6.31819 9.54148L8.29809 9.82433L8.51022 8.3394ZM1.86342 11.7335C0.843712 12.7532 1.42578 14.4994 2.85337 14.7034L3.0655 13.2184C2.86156 13.1893 2.77841 12.9398 2.92408 12.7942L1.86342 11.7335ZM6.10606 9.6122C6.1617 9.55655 6.24029 9.53036 6.31819 9.54148L6.53032 8.05656C5.98503 7.97866 5.43489 8.16204 5.0454 8.55154L6.10606 9.6122Z" fill="white"/>
</g>
<defs>
<clipPath id="clip0_11_3452">
<rect width="25" height="25" fill="white" transform="translate(0 0.515625)"/>
</clipPath>
</defs>
</svg>
