<svg width="25" height="26" viewBox="0 0 25 26" fill="none" xmlns="http://www.w3.org/2000/svg">
<path d="M3.42805 17.6682L2.78562 18.0552L3.42805 17.6682ZM18.3707 20.2239L17.8926 19.646L18.3707 20.2239ZM19.7087 18.8859L20.2866 19.364L19.7087 18.8859ZM21.5783 15.3983L22.2965 15.6142L21.5783 15.3983ZM21.1699 8.51992L21.8573 8.21998L21.1699 8.51992ZM21.9064 11.1413L21.1634 11.2434L21.9064 11.1413ZM14.8829 22.0936L14.667 21.3754L14.8829 22.0936ZM16.295 2.65791C16.176 2.606 16.0558 2.55617 15.9346 2.50848L15.3854 3.90431C15.4896 3.9453 15.5928 3.98814 15.6952 4.03277L16.295 2.65791ZM22.6494 11.0392C22.5136 10.0505 22.2432 9.10425 21.8573 8.21998L20.4825 8.81986C20.8141 9.57986 21.0465 10.3931 21.1634 11.2434L22.6494 11.0392ZM20.2866 19.364C21.1878 18.2747 21.8788 17.004 22.2965 15.6142L20.86 15.1824C20.5011 16.3765 19.907 17.4696 19.1308 18.4078L20.2866 19.364ZM15.0988 22.8119C16.4887 22.3941 17.7595 21.7031 18.8488 20.8018L17.8926 19.646C16.9544 20.4223 15.8612 21.0164 14.667 21.3754L15.0988 22.8119ZM8.79994 22.7809C9.35668 22.9543 9.93273 23.0836 10.5239 23.1648L10.7281 21.6788C10.2196 21.6089 9.72436 21.4977 9.24595 21.3487L8.79994 22.7809ZM1.9931 16.45C2.2133 17.0096 2.47901 17.5462 2.78562 18.0552L4.07049 17.2812C3.80668 16.8432 3.5782 16.3818 3.38894 15.9008L1.9931 16.45ZM2.14263 8.2203C2.09068 8.33937 2.04082 8.45958 1.9931 8.58087L3.38893 9.13009C3.42995 9.02584 3.47281 8.9225 3.51748 8.82013L2.14263 8.2203ZM8.06547 2.50848C7.94428 2.55617 7.82416 2.60599 7.70517 2.6579L8.30497 4.03276C8.40727 3.98814 8.51052 3.94531 8.6147 3.90432L8.06547 2.50848ZM6.51997 7.03514C6.82125 6.73386 7.0286 6.37226 7.18667 6.04084C7.34003 5.71929 7.4797 5.35092 7.59502 5.07285C7.86447 4.42313 8.06059 4.13938 8.30497 4.03276L7.70517 2.6579C6.83959 3.03553 6.45615 3.90336 6.20945 4.49824C6.06669 4.84247 5.96415 5.11965 5.83277 5.39512C5.70609 5.66072 5.58619 5.8476 5.45931 5.97448L6.51997 7.03514ZM3.51748 8.82013C3.6241 8.57575 3.90787 8.37962 4.55762 8.11019C4.8357 7.99487 5.20408 7.8552 5.52565 7.70184C5.85708 7.54377 6.21869 7.33642 6.51997 7.03514L5.45931 5.97448C5.33243 6.10135 5.14555 6.22126 4.87995 6.34793C4.60448 6.47931 4.32729 6.58184 3.98304 6.7246C3.38815 6.97129 2.52028 7.35471 2.14263 8.2203L3.51748 8.82013ZM4.25005 12.5154C4.25005 12.0892 4.14087 11.6867 4.01819 11.3405C3.89917 11.0046 3.73731 10.6453 3.62219 10.3671C3.35312 9.717 3.29139 9.37798 3.38893 9.13009L1.9931 8.58087C1.64707 9.46028 1.98986 10.3455 2.23621 10.9407C2.37878 11.2852 2.50235 11.5537 2.60434 11.8415C2.70266 12.119 2.75005 12.336 2.75005 12.5154H4.25005ZM3.38894 15.9008C3.2914 15.6529 3.35313 15.3139 3.62219 14.6638C3.73732 14.3856 3.89918 14.0262 4.01819 13.6904C4.14087 13.3441 4.25005 12.9417 4.25005 12.5154H2.75005C2.75005 12.6949 2.70266 12.9119 2.60434 13.1894C2.50235 13.4772 2.37878 13.7457 2.23621 14.0902C1.98986 14.6854 1.64708 15.5706 1.9931 16.45L3.38894 15.9008ZM7.51997 18.9955C7.18942 18.665 6.78955 18.4573 6.41955 18.3087C6.05596 18.1628 5.65653 18.0504 5.33431 17.9523C4.59679 17.7277 4.23477 17.5539 4.07049 17.2812L2.78562 18.0552C3.2911 18.8943 4.25097 19.1904 4.89735 19.3872C5.26708 19.4998 5.57511 19.5861 5.8607 19.7007C6.13989 19.8128 6.33096 19.9278 6.45931 20.0562L7.51997 18.9955ZM9.24595 21.3487C9.04038 21.2847 8.84429 21.0864 8.55809 20.5865C8.49126 20.4698 8.4262 20.3496 8.35439 20.2179C8.28437 20.0895 8.20871 19.9516 8.12855 19.8155C7.97025 19.5467 7.77476 19.2503 7.51997 18.9955L6.45931 20.0562C6.58159 20.1785 6.70152 20.3483 6.83606 20.5767C6.90232 20.6892 6.96743 20.8076 7.03743 20.936C7.10564 21.0611 7.17983 21.1982 7.25638 21.3319C7.54373 21.8337 7.98721 22.5278 8.79994 22.7809L9.24595 21.3487ZM18.4801 18.9952C18.3379 19.1375 18.2085 19.2993 18.1228 19.4018C18.0244 19.5195 17.9574 19.5924 17.8926 19.646L18.8488 20.8018C19.0273 20.6541 19.1686 20.4895 19.2734 20.3641C19.3909 20.2237 19.4597 20.137 19.5408 20.0559L18.4801 18.9952ZM19.1308 18.4078C19.0772 18.4726 19.0043 18.5395 18.8867 18.6379C18.7841 18.7237 18.6223 18.853 18.4801 18.9952L19.5408 20.0559C19.6219 19.9748 19.7085 19.906 19.849 19.7885C19.9743 19.6837 20.1389 19.5424 20.2866 19.364L19.1308 18.4078ZM20.7501 13.5154C20.7501 13.8967 20.8308 14.319 20.8637 14.566C20.9032 14.8624 20.9023 15.0416 20.86 15.1824L22.2965 15.6142C22.4355 15.1517 22.3955 14.7045 22.3506 14.3677C22.2991 13.9816 22.2501 13.764 22.2501 13.5154H20.7501ZM17.4801 7.03492C17.7814 7.33619 18.143 7.54354 18.4744 7.7016C18.796 7.85496 19.1643 7.99462 19.4424 8.10993C20.0921 8.37936 20.3759 8.57547 20.4825 8.81986L21.8573 8.21998C21.4797 7.35444 20.6119 6.97103 20.017 6.72435C19.6728 6.5816 19.3956 6.47907 19.1201 6.3477C18.8545 6.22103 18.6677 6.10113 18.5408 5.97425L17.4801 7.03492ZM13.0001 21.2654C12.4664 21.2654 11.9494 21.4374 11.5998 21.5397C11.1977 21.6572 10.9475 21.7089 10.7281 21.6788L10.5239 23.1648C11.0984 23.2438 11.6345 23.0923 12.0207 22.9794C12.4593 22.8512 12.7325 22.7654 13.0001 22.7654V21.2654ZM15.6952 4.03277C15.9395 4.13938 16.1356 4.42312 16.4051 5.07278C16.5204 5.35082 16.6601 5.71917 16.8135 6.04069C16.9715 6.37208 17.1789 6.73366 17.4801 7.03492L18.5408 5.97426C18.4139 5.84738 18.294 5.66051 18.1673 5.39493C18.036 5.11948 17.9334 4.84233 17.7907 4.49812C17.5439 3.90328 17.1605 3.03552 16.295 2.65791L15.6952 4.03277ZM12 4.76544C12.4263 4.76544 12.8288 4.65626 13.175 4.53358C13.5108 4.41456 13.8702 4.2527 14.1484 4.13757C14.7985 3.8685 15.1375 3.80677 15.3854 3.90431L15.9346 2.50848C15.0552 2.16245 14.17 2.50524 13.5747 2.75159C13.2303 2.89417 12.9617 3.01774 12.6739 3.11972C12.3965 3.21804 12.1795 3.26544 12 3.26544V4.76544ZM21.1634 11.2434C21.1935 11.4628 21.1418 11.7131 21.0243 12.1151C20.922 12.4648 20.7501 12.9818 20.7501 13.5154H22.2501C22.2501 13.2479 22.3358 12.9746 22.464 12.536C22.5769 12.1498 22.7284 11.6137 22.6494 11.0392L21.1634 11.2434ZM14.667 21.3754C14.5263 21.4177 14.347 21.4186 14.0506 21.3791C13.8036 21.3462 13.3814 21.2654 13.0001 21.2654V22.7654C13.2487 22.7654 13.4662 22.8145 13.8524 22.8659C14.1891 22.9109 14.6363 22.9509 15.0988 22.8119L14.667 21.3754ZM12 3.26544C11.8206 3.26544 11.6036 3.21804 11.3261 3.11972C11.0383 3.01774 10.7698 2.89417 10.4253 2.75159C9.83013 2.50524 8.94488 2.16246 8.06547 2.50848L8.6147 3.90432C8.86259 3.80678 9.20161 3.86851 9.8517 4.13757C10.1299 4.2527 10.4892 4.41456 10.8251 4.53358C11.1713 4.65626 11.5738 4.76544 12 4.76544V3.26544Z" fill="white"/>
<circle cx="9.79858" cy="10.3142" r="0.791538" transform="rotate(45 9.79858 10.3142)" fill="white"/>
<circle cx="14.2015" cy="14.7171" r="0.791538" transform="rotate(45 14.2015 14.7171)" fill="white"/>
<path d="M9.76128 14.7545L14.2389 10.2769" stroke="white" stroke-width="1.5" stroke-linecap="round" stroke-linejoin="round"/>
</svg>
