<svg width="25" height="26" viewBox="0 0 25 26" fill="none" xmlns="http://www.w3.org/2000/svg">
<path d="M2 6.45557C2 4.24643 3.79086 2.45557 6 2.45557H12H14.7574C15.553 2.45557 16.3161 2.77164 16.8787 3.33425L21.1213 7.57689C21.6839 8.1395 22 8.90256 22 9.69821V12.4556V18.4556C22 20.6647 20.2091 22.4556 18 22.4556H6C3.79086 22.4556 2 20.6647 2 18.4556V6.45557Z" stroke="white" stroke-width="1.5"/>
<path d="M6 15.4556C6 14.351 6.89543 13.4556 8 13.4556H16C17.1046 13.4556 18 14.351 18 15.4556V22.4556H6V15.4556Z" stroke="white" stroke-width="1.5"/>
<path d="M8 2.45557V6.45557C8 7.00785 8.44772 7.45557 9 7.45557H15C15.5523 7.45557 16 7.00785 16 6.45557V2.45557" stroke="white" stroke-width="1.5"/>
</svg>
