<svg width="25" height="26" viewBox="0 0 25 26" fill="none" xmlns="http://www.w3.org/2000/svg">
<circle r="3" transform="matrix(-1 0 0 1 12 12.5156)" stroke="white" stroke-width="1.5"/>
<path d="M16.5001 5.45312L16.8751 4.80361L16.8751 4.80361L16.5001 5.45312ZM16.5 19.5778L16.125 18.9283L16.125 18.9283L16.5 19.5778ZM7.49999 19.5778L7.12499 20.2273L7.12499 20.2273L7.49999 19.5778ZM7.49999 5.45312L7.87499 6.10264L7.87499 6.10264L7.49999 5.45312ZM8.92293 3.53071L9.65362 3.69978L8.92293 3.53071ZM9.53914 2.82067L9.35515 2.09358L9.53914 2.82067ZM2.90639 10.1991L2.42947 10.778L2.90639 10.1991ZM5.31183 19.2558L5.13965 18.5259L5.31183 19.2558ZM4.40294 19.0186L3.83341 19.5066L4.40294 19.0186ZM9.53921 22.2106L9.72319 21.4835L9.53921 22.2106ZM8.92299 21.5005L9.6537 21.3315L8.92299 21.5005ZM15.077 21.5005L14.3463 21.3314L15.077 21.5005ZM14.4608 22.2106L14.2768 21.4835L14.4608 22.2106ZM19.597 19.0186L19.0274 18.5306L19.597 19.0186ZM18.6881 19.2558L18.5159 19.9858L18.6881 19.2558ZM21.8776 10.9465L21.1367 11.0633L21.8776 10.9465ZM21.6615 11.6362L22.2458 12.1064L21.6615 11.6362ZM2.90638 14.8321L2.42947 14.2533L2.90638 14.8321ZM19.5967 6.01234L19.0272 6.50034L19.5967 6.01234ZM4.40321 6.0123L3.83369 5.52429L4.40321 6.0123ZM21.3828 14.9831L20.7289 15.3505L21.3828 14.9831ZM21.4819 15.7009L20.771 15.4622L21.4819 15.7009ZM15.0771 3.53073L15.8078 3.36166L15.0771 3.53073ZM14.3464 3.69981C14.5722 4.67567 15.1878 5.56155 16.1251 6.10264L16.8751 4.80361C16.3127 4.47892 15.9438 3.94943 15.8078 3.36166L14.3464 3.69981ZM16.1251 6.10264C16.986 6.5997 17.9638 6.71643 18.8601 6.50511L18.5158 5.04514C17.9767 5.17226 17.3921 5.10213 16.8751 4.80361L16.1251 6.10264ZM22.6184 10.8298C22.302 8.8219 21.43 6.99924 20.1662 5.52433L19.0272 6.50034C20.1156 7.77057 20.8648 9.33795 21.1367 11.0633L22.6184 10.8298ZM21.7499 13.5156C21.7499 12.9813 21.9353 12.4922 22.2458 12.1064L21.0772 11.166C20.56 11.8087 20.2499 12.627 20.2499 13.5156H21.7499ZM22.0366 14.6157C21.8542 14.2912 21.7499 13.9167 21.7499 13.5156H20.2499C20.2499 14.1807 20.4237 14.8074 20.7289 15.3505L22.0366 14.6157ZM20.1665 19.5066C21.0542 18.4705 21.7486 17.2629 22.1929 15.9397L20.771 15.4622C20.3891 16.5992 19.792 17.6383 19.0274 18.5306L20.1665 19.5066ZM16.875 20.2273C17.3921 19.9287 17.9767 19.8586 18.5159 19.9858L18.8603 18.5258C17.9639 18.3145 16.986 18.4311 16.125 18.9283L16.875 20.2273ZM15.8077 21.6695C15.9437 21.0816 16.3126 20.552 16.875 20.2273L16.125 18.9283C15.1877 19.4694 14.572 20.3554 14.3463 21.3314L15.8077 21.6695ZM11.9999 23.2656C12.9117 23.2656 13.7979 23.152 14.6448 22.9377L14.2768 21.4835C13.5492 21.6676 12.7866 21.7656 11.9999 21.7656V23.2656ZM9.35524 22.9377C10.2021 23.152 11.0883 23.2656 11.9999 23.2656V21.7656C11.2134 21.7656 10.4508 21.6676 9.72319 21.4835L9.35524 22.9377ZM7.12499 20.2273C7.68743 20.552 8.05631 21.0816 8.19227 21.6695L9.6537 21.3315C9.42796 20.3555 8.81232 19.4694 7.87499 18.9283L7.12499 20.2273ZM5.484 19.9858C6.02321 19.8586 6.60787 19.9287 7.12499 20.2273L7.87499 18.9283C7.01395 18.4311 6.036 18.3144 5.13965 18.5259L5.484 19.9858ZM1.84816 16.0599C2.29368 17.3361 2.97267 18.502 3.83341 19.5066L4.97248 18.5307C4.23112 17.6654 3.6472 16.6622 3.26434 15.5656L1.84816 16.0599ZM3.24998 12.5156C3.24998 13.215 2.93179 13.8394 2.42947 14.2533L3.3833 15.4109C4.21662 14.7244 4.74998 13.682 4.74998 12.5156H3.24998ZM2.42947 10.778C2.93179 11.1918 3.24998 11.8163 3.24998 12.5156H4.74998C4.74998 11.3493 4.21662 10.3069 3.3833 9.6203L2.42947 10.778ZM3.83369 5.52429C2.97282 6.52896 2.29373 7.69497 1.84816 8.9713L3.26434 9.46569C3.64724 8.36889 4.23126 7.36563 4.97273 6.5003L3.83369 5.52429ZM7.12499 4.80361C6.60792 5.10214 6.02331 5.17226 5.48414 5.04513L5.13988 6.50509C6.03617 6.71644 7.01403 6.59972 7.87499 6.10264L7.12499 4.80361ZM8.19223 3.36164C8.05623 3.94942 7.68737 4.47892 7.12499 4.80361L7.87499 6.10264C8.81221 5.56154 9.42782 4.67565 9.65362 3.69978L8.19223 3.36164ZM11.9999 1.76562C11.0883 1.76562 10.202 1.87929 9.35515 2.09358L9.72312 3.54775C10.4507 3.36364 11.2133 3.26562 11.9999 3.26562V1.76562ZM14.6449 2.09363C13.798 1.8793 12.9117 1.76562 11.9999 1.76562V3.26562C12.7866 3.26562 13.5493 3.36366 14.2769 3.54779L14.6449 2.09363ZM9.65362 3.69978C9.66923 3.63231 9.69568 3.58472 9.7162 3.55976C9.73383 3.53832 9.73697 3.54425 9.72312 3.54775L9.35515 2.09358C8.66395 2.26849 8.30705 2.86542 8.19223 3.36164L9.65362 3.69978ZM3.3833 9.6203C3.32242 9.57014 3.28703 9.51587 3.27283 9.47957C3.26089 9.44904 3.26968 9.4504 3.26434 9.46569L1.84816 8.9713C1.58215 9.73328 1.9943 10.4194 2.42947 10.778L3.3833 9.6203ZM5.13965 18.5259C5.07242 18.5417 5.01815 18.5391 4.98668 18.5318C4.95963 18.5255 4.96335 18.52 4.97248 18.5307L3.83341 19.5066C4.29646 20.0471 4.98843 20.1027 5.484 19.9858L5.13965 18.5259ZM9.72319 21.4835C9.73705 21.487 9.7339 21.493 9.71627 21.4715C9.69575 21.4465 9.6693 21.3989 9.6537 21.3315L8.19227 21.6695C8.30705 22.1657 8.66396 22.7628 9.35524 22.9377L9.72319 21.4835ZM14.3463 21.3314C14.3307 21.3989 14.3042 21.4465 14.2837 21.4715C14.2661 21.4929 14.263 21.487 14.2768 21.4835L14.6448 22.9377C15.336 22.7627 15.6929 22.1657 15.8077 21.6695L14.3463 21.3314ZM19.0274 18.5306C19.0366 18.52 19.0403 18.5255 19.0132 18.5318C18.9818 18.5391 18.9275 18.5417 18.8603 18.5258L18.5159 19.9858C19.0115 20.1027 19.7035 20.047 20.1665 19.5066L19.0274 18.5306ZM21.1367 11.0633C21.135 11.0527 21.1386 11.0539 21.1323 11.0725C21.1254 11.0932 21.109 11.1264 21.0772 11.166L22.2458 12.1064C22.4899 11.803 22.7005 11.3504 22.6184 10.8298L21.1367 11.0633ZM3.26434 15.5656C3.26968 15.5808 3.26089 15.5822 3.27283 15.5517C3.28703 15.5154 3.32242 15.4611 3.3833 15.4109L2.42947 14.2533C1.9943 14.6118 1.58215 15.298 1.84816 16.0599L3.26434 15.5656ZM18.8601 6.50511C18.9273 6.48926 18.9815 6.49187 19.013 6.4992C19.04 6.5055 19.0363 6.511 19.0272 6.50034L20.1662 5.52433C19.7032 4.98398 19.0114 4.92831 18.5158 5.04514L18.8601 6.50511ZM4.97273 6.5003C4.9636 6.51096 4.95988 6.50546 4.98693 6.49916C5.01839 6.49184 5.07265 6.48923 5.13988 6.50509L5.48414 5.04513C4.98861 4.92828 4.29672 4.98392 3.83369 5.52429L4.97273 6.5003ZM20.7289 15.3505C20.754 15.3951 20.7647 15.4308 20.7681 15.4525C20.7712 15.472 20.7675 15.4725 20.771 15.4622L22.1929 15.9397C22.3613 15.4384 22.2276 14.9557 22.0366 14.6157L20.7289 15.3505ZM15.8078 3.36166C15.693 2.86546 15.3361 2.26854 14.6449 2.09363L14.2769 3.54779C14.2631 3.54428 14.2662 3.53836 14.2838 3.55979C14.3044 3.58475 14.3308 3.63234 14.3464 3.69981L15.8078 3.36166Z" fill="white"/>
</svg>
