<svg width="25" height="26" viewBox="0 0 25 26" fill="none" xmlns="http://www.w3.org/2000/svg">
<path d="M11.4718 3.2656C11.9382 2.49061 13.0617 2.49061 13.5281 3.26559L16.0094 7.38868C16.177 7.6671 16.4503 7.86566 16.7669 7.93898L21.4549 9.02474C22.3361 9.22882 22.6833 10.2974 22.0904 10.9804L18.9358 14.6144C18.7228 14.8598 18.6184 15.1811 18.6465 15.5048L19.0626 20.2989C19.1408 21.2 18.2318 21.8605 17.399 21.5076L12.9681 19.6304C12.6689 19.5037 12.3311 19.5037 12.0319 19.6304L7.60094 21.5076C6.7681 21.8604 5.85912 21.2 5.93732 20.2989L6.35339 15.5048C6.38149 15.1811 6.2771 14.8598 6.06408 14.6144L2.90956 10.9804C2.31663 10.2974 2.66383 9.22882 3.54501 9.02474L8.23306 7.93898C8.54963 7.86566 8.82293 7.6671 8.99048 7.38868L11.4718 3.2656Z" stroke="white" stroke-width="1.5"/>
</svg>
