<svg width="25" height="26" viewBox="0 0 25 26" fill="none" xmlns="http://www.w3.org/2000/svg">
<path d="M6.07167 8.38525C6.80935 7.10754 7.88601 6.05871 9.1826 5.35472C10.4792 4.65073 11.9452 4.319 13.4186 4.39622C14.8919 4.47344 16.3152 4.95658 17.5311 5.79225C18.747 6.62791 19.7081 7.78354 20.3082 9.13136M4.23169 5.90062L4.9611 9.06016C5.08534 9.59829 5.62229 9.93382 6.16042 9.80958L9.31996 9.08017M19.9281 16.3851C19.1904 17.6629 18.1138 18.7117 16.8172 19.4157C15.5206 20.1197 14.0546 20.4514 12.5812 20.3742C11.1079 20.297 9.68456 19.8138 8.46866 18.9782C7.25276 18.1425 6.29164 16.9869 5.69155 15.639M21.7681 18.8698L21.0387 15.7102C20.9144 15.1721 20.3775 14.8366 19.8394 14.9608L16.6798 15.6902" stroke="white" stroke-width="1.5" stroke-linecap="round"/>
</svg>
