<svg width="25" height="26" viewBox="0 0 25 26" fill="none" xmlns="http://www.w3.org/2000/svg">
<path d="M5.05063 9.2498C4.20573 8.12326 5.00954 6.51562 6.41772 6.51562H17.5823C18.9905 6.51562 19.7943 8.12326 18.9494 9.2498V9.2498C18.3331 10.0715 18 11.0708 18 12.0979V18.5156C18 20.7248 16.2091 22.5156 14 22.5156H10C7.79086 22.5156 6 20.7248 6 18.5156V12.0979C6 11.0708 5.66688 10.0715 5.05063 9.2498V9.2498Z" stroke="white" stroke-width="1.5"/>
<path d="M14.5834 18.2241L14.5834 11.9741" stroke="white" stroke-width="1.5" stroke-linecap="round" stroke-linejoin="round"/>
<path d="M10.4166 18.2241L10.4166 11.9741" stroke="white" stroke-width="1.5" stroke-linecap="round" stroke-linejoin="round"/>
<path d="M16 6.51562L15.4558 4.88317C15.1836 4.06649 14.4193 3.51562 13.5585 3.51562H10.4415C9.58066 3.51562 8.81638 4.06649 8.54415 4.88317L8 6.51562" stroke="white" stroke-width="1.5" stroke-linecap="round"/>
</svg>
