<svg width="24" height="26" viewBox="0 0 24 26" fill="none" xmlns="http://www.w3.org/2000/svg">
<circle r="3.40426" transform="matrix(-1 0 0 1 12.2128 8.79976)" stroke="white" stroke-width="1.5"/>
<path d="M6.25537 17.2549C6.25537 16.5227 6.71567 15.8695 7.40524 15.6232V15.6232C10.5141 14.5129 13.9115 14.5129 17.0204 15.6232V15.6232C17.71 15.8695 18.1703 16.5227 18.1703 17.2549V18.3745C18.1703 19.3851 17.2752 20.1614 16.2748 20.0184L15.9412 19.9708C13.4682 19.6175 10.9575 19.6175 8.48442 19.9708L8.15087 20.0184C7.15044 20.1614 6.25537 19.3851 6.25537 18.3745V17.2549Z" stroke="white" stroke-width="1.5"/>
<path d="M17.3191 12.2983C18.7964 12.2983 19.9939 11.1007 19.9939 9.6235C19.9939 8.14627 18.7964 6.94873 17.3191 6.94873" stroke="white" stroke-width="1.5" stroke-linecap="round"/>
<path d="M20.2486 18.4006L20.5106 18.438C21.2967 18.5503 22 17.9404 22 17.1463V16.2667C22 15.6913 21.6383 15.1781 21.0965 14.9846C20.5561 14.7916 20.0045 14.6413 19.4468 14.5337" stroke="white" stroke-width="1.5" stroke-linecap="round"/>
<path d="M6.68088 12.2983C5.20364 12.2983 4.0061 11.1007 4.0061 9.6235C4.0061 8.14627 5.20364 6.94873 6.68088 6.94873" stroke="white" stroke-width="1.5" stroke-linecap="round"/>
<path d="M3.75143 18.4006L3.48935 18.438C2.7033 18.5503 2.00003 17.9404 2.00003 17.1463V16.2667C2.00003 15.6913 2.3617 15.1781 2.9035 14.9846C3.44395 14.7916 3.99549 14.6413 4.55322 14.5337" stroke="white" stroke-width="1.5" stroke-linecap="round"/>
</svg>
