<svg width="25" height="26" viewBox="0 0 25 26" fill="none" xmlns="http://www.w3.org/2000/svg">
<path d="M18.75 13.6953C18.75 13.2811 18.4142 12.9453 18 12.9453C17.5858 12.9453 17.25 13.2811 17.25 13.6953H18.75ZM14.4 20.3179L14.8903 19.7503L14.8799 19.7413L14.8692 19.7327L14.4 20.3179ZM13.4692 18.6102C13.146 18.3511 12.674 18.403 12.4149 18.7261C12.1558 19.0493 12.2077 19.5213 12.5308 19.7804L13.4692 18.6102ZM8.49998 8.91505L8.49998 8.16505L8.49998 8.91505ZM14.6926 20.5706L15.1828 20.003L14.6926 20.5706ZM10.0558 8.91504L10.0558 8.16504L10.0558 8.91504ZM11.8535 8.99608L15.1828 6.11999L14.2023 4.98487L10.8729 7.86097L11.8535 8.99608ZM8.49999 9.66505L10.0558 9.66504L10.0558 8.16504L8.49998 8.16505L8.49999 9.66505ZM6.75 14.708V11.4151H5.25V14.708H6.75ZM10.8 16.458H8.5V17.958H10.8V16.458ZM17.25 15.1953V19.0571H18.75V15.1953H17.25ZM17.25 7.06592V9.69531H18.75V7.06592H17.25ZM17.25 13.6953V15.1953H18.75V13.6953H17.25ZM15.1828 20.003L14.8903 19.7503L13.9097 20.8854L14.2023 21.1382L15.1828 20.003ZM14.8692 19.7327L13.4692 18.6102L12.5308 19.7804L13.9308 20.903L14.8692 19.7327ZM5.25 14.708C5.25 16.503 6.70507 17.958 8.5 17.958V16.458C7.5335 16.458 6.75 15.6745 6.75 14.708H5.25ZM8.49998 8.16505C6.70506 8.16506 5.25 9.62014 5.25 11.4151H6.75C6.75 10.4486 7.53349 9.66506 8.49999 9.66505L8.49998 8.16505ZM15.1828 6.11999C15.9927 5.42038 17.25 5.99571 17.25 7.06592H18.75C18.75 4.71146 15.984 3.44573 14.2023 4.98487L15.1828 6.11999ZM17.25 19.0571C17.25 20.1273 15.9927 20.7026 15.1828 20.003L14.2023 21.1382C15.984 22.6773 18.75 21.4116 18.75 19.0571H17.25ZM10.8729 7.86097C10.6458 8.05711 10.3558 8.16504 10.0558 8.16504L10.0558 9.66504C10.7159 9.66503 11.3539 9.42759 11.8535 8.99608L10.8729 7.86097Z" fill="white"/>
<path d="M22.9166 5.90381L7.29163 21.5288" stroke="white" stroke-width="1.5" stroke-linecap="round" stroke-linejoin="round"/>
</svg>
