<svg width="25" height="26" viewBox="0 0 25 26" fill="none" xmlns="http://www.w3.org/2000/svg">
<path d="M15 7.06592C15 5.35358 12.9884 4.43306 11.6926 5.55243L8.36317 8.42852C7.99988 8.74235 7.53583 8.91503 7.05576 8.91504L5.49998 8.91505C4.11928 8.91506 3 10.0343 3 11.4151V14.708C3 16.0887 4.11929 17.208 5.5 17.208H7.0558C7.53587 17.208 7.99993 17.3807 8.36322 17.6945L11.6926 20.5706C12.9884 21.69 15 20.7694 15 19.0571V13.0615V7.06592Z" stroke="white" stroke-width="1.5"/>
<path d="M18 16.062C18.6279 15.2264 19 14.1876 19 13.062C19 11.9364 18.6279 10.8977 18 10.062" stroke="white" stroke-width="1.5" stroke-linecap="round"/>
<path d="M20 19.062C21.2558 17.3907 22 15.3132 22 13.062C22 10.8108 21.2558 8.73333 20 7.06201" stroke="white" stroke-width="1.5" stroke-linecap="round"/>
</svg>
