<svg width="25" height="25" viewBox="0 0 25 25" fill="none" xmlns="http://www.w3.org/2000/svg">
<rect x="2" y="2" width="20" height="20" rx="10" stroke="#28293D" stroke-width="1.5"/>
<path d="M19 4.8584C15.0549 8.72587 15.0549 15.2738 19 19.1413" stroke="#28293D" stroke-width="1.5" stroke-linecap="round"/>
<path d="M4.99996 5C8.93816 8.78423 8.93816 15.2158 4.99996 19" stroke="#28293D" stroke-width="1.5" stroke-linecap="round"/>
<path d="M12.75 2C12.75 1.58579 12.4142 1.25 12 1.25C11.5858 1.25 11.25 1.58579 11.25 2H12.75ZM11.25 22C11.25 22.4142 11.5858 22.75 12 22.75C12.4142 22.75 12.75 22.4142 12.75 22H11.25ZM11.25 2V22H12.75V2H11.25Z" fill="#28293D"/>
<path d="M22 11.25C22.4142 11.25 22.75 11.5858 22.75 12C22.75 12.4142 22.4142 12.75 22 12.75L22 11.25ZM2 12.75C1.58579 12.75 1.25 12.4142 1.25 12C1.25 11.5858 1.58579 11.25 2 11.25L2 12.75ZM22 12.75L2 12.75L2 11.25L22 11.25L22 12.75Z" fill="#28293D"/>
</svg>
