<svg width="25" height="25" viewBox="0 0 25 26" fill="none" xmlns="http://www.w3.org/2000/svg">
<path d="M3.99999 14.9266L3.24999 14.9266L3.99999 14.9266ZM6.7329 18.1249L6.83591 17.382L6.83591 17.382L6.7329 18.1249ZM16.9192 18.1249L16.8162 17.382L16.8162 17.382L16.9192 18.1249ZM6.48912 8.12846C6.48912 5.18094 8.87856 2.7915 11.8261 2.7915V1.2915C8.05013 1.2915 4.98912 4.35251 4.98912 8.12846H6.48912ZM6.48912 10.221V8.12846H4.98912V10.221H6.48912ZM4.74999 14.9266C4.74999 14.4452 4.88169 13.9967 5.1106 13.6129L3.8223 12.8446C3.45869 13.4543 3.24999 14.1672 3.24999 14.9266L4.74999 14.9266ZM6.83591 17.382C5.63627 17.2157 4.74999 16.1728 4.74999 14.9266L3.24999 14.9266C3.24999 16.8863 4.6541 18.5939 6.62989 18.8678L6.83591 17.382ZM11.8261 17.8135C10.3341 17.8135 8.4065 17.5998 6.83591 17.382L6.62989 18.8678C8.21266 19.0873 10.2254 19.3135 11.8261 19.3135V17.8135ZM16.8162 17.382C15.2456 17.5998 13.3181 17.8135 11.8261 17.8135V19.3135C13.4268 19.3135 15.4395 19.0873 17.0223 18.8678L16.8162 17.382ZM18.9022 14.9266C18.9022 16.1728 18.0159 17.2157 16.8162 17.382L17.0223 18.8678C18.998 18.5939 20.4022 16.8863 20.4022 14.9266H18.9022ZM18.5415 13.6129C18.7705 13.9967 18.9022 14.4452 18.9022 14.9266H20.4022C20.4022 14.1672 20.1935 13.4543 19.8298 12.8446L18.5415 13.6129ZM17.163 8.12846V10.221H18.663V8.12846H17.163ZM11.8261 2.7915C14.7736 2.7915 17.163 5.18094 17.163 8.12846H18.663C18.663 4.35251 15.602 1.2915 11.8261 1.2915V2.7915ZM19.8298 12.8446C19.521 12.3266 19.2404 11.9116 19.0091 11.4481C18.7876 11.0044 18.663 10.6085 18.663 10.221H17.163C17.163 10.9339 17.3931 11.5693 17.667 12.1181C17.9311 12.6471 18.2869 13.1858 18.5415 13.6129L19.8298 12.8446ZM4.98912 10.221C4.98912 10.6085 4.8646 11.0044 4.64309 11.4481C4.41175 11.9116 4.1312 12.3266 3.8223 12.8446L5.1106 13.6129C5.3653 13.1858 5.72108 12.6471 5.98518 12.1181C6.2591 11.5693 6.48912 10.9338 6.48912 10.221H4.98912Z" fill="#28293D"/>
<path d="M14 20.8755C13.5326 21.5784 12.7335 22.0417 11.8261 22.0417C10.9187 22.0417 10.1195 21.5784 9.65218 20.8755" stroke="#28293D" stroke-width="1.5" stroke-linecap="round"/>
</svg>
