<svg width="25" height="25" viewBox="0 0 25 26" fill="none" xmlns="http://www.w3.org/2000/svg">
<path d="M12 4.53591V21.4091M12 4.53591L13.1001 4.12306C15.6036 3.18359 18.3964 3.18359 20.8999 4.12306C21.5643 4.37241 22 4.97615 22 5.64753V19.4982C22 20.4201 21.0075 21.0505 20.0951 20.7081C18.1082 19.9625 15.8918 19.9625 13.9049 20.7081L12.0137 21.4178C12.0071 21.4202 12 21.4157 12 21.4091M12 4.53591L10.8999 4.12306C8.39638 3.18359 5.60362 3.18359 3.10014 4.12306C2.43569 4.37241 2 4.97615 2 5.64753V19.4982C2 20.4201 2.99247 21.0505 3.90485 20.7081C5.89175 19.9625 8.10825 19.9625 10.0951 20.7081L11.9863 21.4178C11.9929 21.4202 12 21.4157 12 21.4091" stroke="#28293D" stroke-width="1.5"/>
</svg>
