<svg width="25" height="25" viewBox="0 0 25 26" fill="none" xmlns="http://www.w3.org/2000/svg">
<path d="M19.0621 20.7617C17.1077 22.7161 12.1028 20.8797 7.88327 16.6602C3.66372 12.4406 1.82739 7.43573 3.7817 5.48141L5.06847 4.19464C5.9568 3.30631 7.42054 3.32979 8.33784 4.24709L10.3309 6.24018C11.2482 7.15747 11.2717 8.62122 10.3834 9.50954L10.107 9.78593C9.62737 10.2655 9.58045 11.0393 10.0261 11.5793C10.456 12.1002 10.9194 12.6191 11.4219 13.1216C11.9244 13.6241 12.4432 14.0875 12.9641 14.5174C13.5042 14.963 14.2779 14.9161 14.7575 14.4365L15.0339 14.1601C15.9222 13.2718 17.386 13.2952 18.3033 14.2125L20.2964 16.2056C21.2137 17.1229 21.2371 18.5867 20.3488 19.475L19.0621 20.7617Z" stroke="#28293D" stroke-width="1.5"/>
</svg>
