<svg width="25" height="25" viewBox="0 0 25 26" fill="none" xmlns="http://www.w3.org/2000/svg">
<path d="M19.0621 21.5127C17.1077 23.467 12.1028 21.6307 7.88327 17.4112C3.66372 13.1916 1.82739 8.18671 3.7817 6.23238L5.06847 4.94562C5.9568 4.05729 7.42054 4.08077 8.33784 4.99806L10.3309 6.99115C11.2482 7.90845 11.2717 9.37219 10.3834 10.2605L10.107 10.5369C9.62737 11.0165 9.58045 11.7902 10.0261 12.3303C10.456 12.8512 10.9194 13.3701 11.4219 13.8726C11.9244 14.375 12.4432 14.8385 12.9641 15.2683C13.5042 15.714 14.2779 15.6671 14.7575 15.1874L15.0339 14.9111C15.9222 14.0227 17.386 14.0462 18.3033 14.9635L20.2964 16.9566C21.2137 17.8739 21.2371 19.3376 20.3488 20.226L19.0621 21.5127Z" stroke="#28293D" stroke-width="1.5"/>
<path d="M17.6264 10.2942C17.3825 9.69898 17.0188 9.14136 16.5356 8.65809C16.0796 8.20211 15.5574 7.85264 14.9999 7.60968" stroke="#28293D" stroke-width="1.5" stroke-linecap="round"/>
<path d="M15 4.20687C16.3347 4.69037 17.5869 5.46711 18.6569 6.5371C19.7537 7.63394 20.5424 8.92229 21.023 10.2946" stroke="#28293D" stroke-width="1.5" stroke-linecap="round"/>
</svg>
