<svg width="25" height="25" viewBox="0 0 24 26" fill="none" xmlns="http://www.w3.org/2000/svg">
<path d="M5.33333 19.0147L5.33333 18.2647H5.33333V19.0147ZM17.5556 19.0147L17.5556 19.7647H17.5556V19.0147ZM16.9093 10.1655L17.5796 9.82904L16.9093 10.1655ZM16.9198 10.171L17.0261 10.9134L16.9198 10.171ZM5.35907 12.339L6.10594 12.4074L5.35907 12.339ZM5.34902 12.3481L5.34967 11.5981L5.34902 12.3481ZM5.33333 18.2647C3.9066 18.2647 2.75 17.1081 2.75 15.6814H1.25C1.25 17.9365 3.07817 19.7647 5.33333 19.7647V18.2647ZM6.10594 12.4074C6.35585 9.67952 8.65101 7.54248 11.4444 7.54248V6.04248C7.86848 6.04248 4.93219 8.77762 4.6122 12.2705L6.10594 12.4074ZM11.4444 7.54248C13.5406 7.54248 15.3572 8.74539 16.239 10.502L17.5796 9.82904C16.4531 7.58511 14.1296 6.04248 11.4444 6.04248V7.54248ZM21.25 14.5703C21.25 16.6106 19.5959 18.2647 17.5556 18.2647V19.7647C20.4244 19.7647 22.75 17.4391 22.75 14.5703H21.25ZM17.5556 18.2647L5.33333 18.2647L5.33333 19.7647L17.5556 19.7647L17.5556 18.2647ZM2.75 15.6814C2.75 14.2722 3.9362 13.0969 5.34837 13.0981L5.34967 11.5981C3.11793 11.5962 1.25 13.4339 1.25 15.6814H2.75ZM17.0261 10.9134C19.2032 10.6016 21.25 12.3575 21.25 14.5703H22.75C22.75 11.4372 19.8872 8.98834 16.8134 9.42853L17.0261 10.9134ZM16.239 10.502C16.3871 10.7969 16.7057 10.9593 17.0261 10.9134L16.8134 9.42853C17.1252 9.38388 17.4354 9.54186 17.5796 9.82904L16.239 10.502ZM4.6122 12.2705C4.6472 11.8885 4.96779 11.5978 5.34967 11.5981L5.34837 13.0981C5.74063 13.0984 6.07 12.7998 6.10594 12.4074L4.6122 12.2705Z" fill="#28293D"/>
</svg>
