<svg width="25" height="25" viewBox="0 0 25 26" fill="none" xmlns="http://www.w3.org/2000/svg">
<path d="M9 9.54248C9.41421 9.54248 9.75 9.20669 9.75 8.79248C9.75 8.37827 9.41421 8.04248 9 8.04248L9 9.54248ZM17 8.04248C16.5858 8.04248 16.25 8.37827 16.25 8.79248C16.25 9.20669 16.5858 9.54248 17 9.54248L17 8.04248ZM22.25 12.7925L22.25 17.7925L23.75 17.7925L23.75 12.7925L22.25 12.7925ZM19 21.0425L7 21.0425L7 22.5425L19 22.5425L19 21.0425ZM3.75 17.7925L3.75 12.7925L2.25 12.7925L2.25 17.7925L3.75 17.7925ZM7 9.54248L9 9.54248L9 8.04248L7 8.04248L7 9.54248ZM17 9.54248L19 9.54248L19 8.04248L17 8.04248L17 9.54248ZM3.75 12.7925C3.75 10.9976 5.20507 9.54248 7 9.54248L7 8.04248C4.37665 8.04248 2.25 10.1691 2.25 12.7925L3.75 12.7925ZM7 21.0425C5.20507 21.0425 3.75 19.5874 3.75 17.7925L2.25 17.7925C2.25 20.4158 4.37665 22.5425 7 22.5425L7 21.0425ZM22.25 17.7925C22.25 19.5874 20.7949 21.0425 19 21.0425L19 22.5425C21.6234 22.5425 23.75 20.4158 23.75 17.7925L22.25 17.7925ZM23.75 12.7925C23.75 10.1691 21.6234 8.04248 19 8.04248L19 9.54248C20.7949 9.54248 22.25 10.9976 22.25 12.7925L23.75 12.7925Z" fill="#28293D"/>
<path d="M10 13.7925L12.2929 16.0854C12.6834 16.4759 13.3166 16.4759 13.7071 16.0854L16 13.7925" stroke="#28293D" stroke-width="1.5" stroke-linecap="round"/>
<path d="M13 15.7925L13 3.79248" stroke="#28293D" stroke-width="1.5" stroke-linecap="round"/>
</svg>
