<svg width="25" height="25" viewBox="0 0 25 26" fill="none" xmlns="http://www.w3.org/2000/svg">
<path d="M5 5.75179C5 3.91084 6.49239 2.41846 8.33333 2.41846H11.6667V9.08512H8.33333C6.49238 9.08512 5 7.59274 5 5.75179V5.75179Z" stroke="#28293D" stroke-width="1.5"/>
<path d="M18.3334 5.75179C18.3334 3.91084 16.841 2.41846 15 2.41846H11.6667V9.08512H15C16.841 9.08512 18.3334 7.59274 18.3334 5.75179V5.75179Z" stroke="#28293D" stroke-width="1.5"/>
<path d="M18.3334 12.4183C18.3334 10.5773 16.841 9.08496 15 9.08496V9.08496C13.1591 9.08496 11.6667 10.5773 11.6667 12.4183V12.4183C11.6667 14.2592 13.1591 15.7516 15 15.7516V15.7516C16.841 15.7516 18.3334 14.2592 18.3334 12.4183V12.4183Z" stroke="#28293D" stroke-width="1.5"/>
<path d="M5 12.4183C5 10.5773 6.49239 9.08496 8.33333 9.08496H11.6667V15.7516H8.33333C6.49238 15.7516 5 14.2592 5 12.4183V12.4183Z" stroke="#28293D" stroke-width="1.5"/>
<path d="M5 19.0853C5 17.2443 6.49239 15.752 8.33333 15.752H11.6667V19.0853C11.6667 20.9262 10.1743 22.4186 8.33333 22.4186V22.4186C6.49238 22.4186 5 20.9262 5 19.0853V19.0853Z" stroke="#28293D" stroke-width="1.5"/>
</svg>
