<svg width="25" height="25" viewBox="0 0 25 26" fill="none" xmlns="http://www.w3.org/2000/svg">
<path d="M12.1027 5.78375L12.713 5.34783L12.713 5.34782L12.1027 5.78375ZM11.3973 4.79632L10.787 5.23225L10.787 5.23225L11.3973 4.79632ZM21.25 12.04V16.54H22.75V12.04H21.25ZM17 20.79H7V22.29H17V20.79ZM2.75 16.54V8.54004H1.25V16.54H2.75ZM7 4.29004H8.95615V2.79004H7V4.29004ZM10.787 5.23225L11.4924 6.21968L12.713 5.34782L12.0076 4.3604L10.787 5.23225ZM14.5439 7.79004H17V6.29004H14.5439V7.79004ZM11.4924 6.21968C12.1963 7.20517 13.3328 7.79004 14.5439 7.79004V6.29004C13.8172 6.29004 13.1353 5.93912 12.713 5.34783L11.4924 6.21968ZM8.95615 4.29004C9.68279 4.29004 10.3647 4.64096 10.787 5.23225L12.0076 4.3604C11.3037 3.37491 10.1672 2.79004 8.95615 2.79004V4.29004ZM7 20.79C4.65279 20.79 2.75 18.8872 2.75 16.54H1.25C1.25 19.7157 3.82436 22.29 7 22.29V20.79ZM21.25 16.54C21.25 18.8872 19.3472 20.79 17 20.79V22.29C20.1756 22.29 22.75 19.7157 22.75 16.54H21.25ZM22.75 12.04C22.75 8.8644 20.1756 6.29004 17 6.29004V7.79004C19.3472 7.79004 21.25 9.69283 21.25 12.04H22.75ZM2.75 8.54004C2.75 6.19283 4.65279 4.29004 7 4.29004V2.79004C3.82436 2.79004 1.25 5.3644 1.25 8.54004H2.75ZM11 5.29004H16.5V3.79004H11V5.29004ZM16.5 5.29004C18.5711 5.29004 20.25 6.96897 20.25 9.04004H21.75C21.75 6.14054 19.3995 3.79004 16.5 3.79004V5.29004Z" fill="#28293D"/>
<path d="M12.5 17.7274H18.75" stroke="#28293D" stroke-width="1.5" stroke-linecap="round" stroke-linejoin="round"/>
</svg>
