<svg width="25" height="25" viewBox="0 0 24 26" fill="none" xmlns="http://www.w3.org/2000/svg">
<path d="M2 10.6685C2 7.71035 4.55409 5.39893 7.49752 5.69327L11.403 6.08382C11.8 6.12352 12.2 6.12352 12.597 6.08382L16.5025 5.69327C19.4459 5.39893 22 7.71035 22 10.6685V16.668C22 20.2612 17.3041 21.6232 15.3815 18.5875C14.0112 16.4238 10.8803 16.3516 9.4116 18.4497L9.12736 18.8558C6.93073 21.9938 2 20.4395 2 16.6091V10.6685Z" stroke="#28293D" stroke-width="1.5"/>
<circle cx="18" cy="10.6436" r="1" fill="#28293D"/>
<circle cx="16" cy="13.6436" r="1" fill="#28293D"/>
<path d="M7.79395 14.7052L7.79395 10.5386" stroke="#28293D" stroke-width="1.5" stroke-linecap="round" stroke-linejoin="round"/>
<path d="M5.84546 12.6216H9.74243" stroke="#28293D" stroke-width="1.5" stroke-linecap="round" stroke-linejoin="round"/>
</svg>
