<svg width="25" height="25" viewBox="0 0 25 26" fill="none" xmlns="http://www.w3.org/2000/svg">
<path d="M2.5 10.9799C2.5 9.75572 3.06058 8.59894 4.02142 7.84038L9.52142 3.49827C10.9747 2.35098 13.0253 2.35098 14.4786 3.49828L19.9786 7.84038C20.9394 8.59894 21.5 9.75572 21.5 10.9799V17.5415C21.5 19.7506 19.7091 21.5415 17.5 21.5415H16C15.4477 21.5415 15 21.0938 15 20.5415V17.5415C15 16.4369 14.1046 15.5415 13 15.5415H11C9.89543 15.5415 9 16.4369 9 17.5415V20.5415C9 21.0938 8.55228 21.5415 8 21.5415H6.5C4.29086 21.5415 2.5 19.7506 2.5 17.5415L2.5 10.9799Z" stroke="#28293D" stroke-width="1.5"/>
</svg>
