<svg width="25" height="25" viewBox="0 0 25 26" fill="none" xmlns="http://www.w3.org/2000/svg">
<path d="M15.8839 13.741C15.591 14.0339 15.591 14.5088 15.8839 14.8017C16.1768 15.0946 16.6517 15.0946 16.9445 14.8017L15.8839 13.741ZM8.81282 6.66998C8.51992 6.96287 8.51992 7.43775 8.81282 7.73064C9.10571 8.02353 9.58058 8.02353 9.87348 7.73064L8.81282 6.66998ZM14.1161 17.6301C14.409 17.3372 14.409 16.8624 14.1161 16.5695C13.8232 16.2766 13.3483 16.2766 13.0555 16.5695L14.1161 17.6301ZM7.04505 10.5591C7.33794 10.2662 7.33794 9.7913 7.04505 9.49841C6.75216 9.20551 6.27728 9.20551 5.98439 9.49841L7.04505 10.5591ZM18.0052 11.6197L15.8839 13.741L16.9445 14.8017L19.0659 12.6804L18.0052 11.6197ZM9.87348 7.73064L11.9948 5.60932L10.9341 4.54866L8.81282 6.66998L9.87348 7.73064ZM13.0555 16.5695L10.9341 18.6908L11.9948 19.7515L14.1161 17.6301L13.0555 16.5695ZM4.92373 12.6804L7.04505 10.5591L5.98439 9.49841L3.86307 11.6197L4.92373 12.6804ZM4.92373 18.6908C3.264 17.0311 3.264 14.3401 4.92373 12.6804L3.86307 11.6197C1.61755 13.8652 1.61755 17.5059 3.86307 19.7515L4.92373 18.6908ZM3.86307 19.7515C6.10858 21.997 9.74928 21.997 11.9948 19.7515L10.9341 18.6908C9.27441 20.3505 6.58346 20.3505 4.92373 18.6908L3.86307 19.7515ZM18.0052 5.60932C19.6649 7.26905 19.6649 9.96 18.0052 11.6197L19.0659 12.6804C21.3114 10.4349 21.3114 6.79418 19.0659 4.54866L18.0052 5.60932ZM19.0659 4.54866C16.8203 2.30315 13.1797 2.30315 10.9341 4.54866L11.9948 5.60932C13.6545 3.94959 16.3455 3.94959 18.0052 5.60932L19.0659 4.54866Z" fill="#28293D"/>
<path d="M14.1518 10.4238L9.73242 14.8433" stroke="#28293D" stroke-width="1.5" stroke-linecap="round" stroke-linejoin="round"/>
</svg>
