<svg width="25" height="25" viewBox="0 0 25 26" fill="none" xmlns="http://www.w3.org/2000/svg">
<path d="M19.25 10.4582C19.25 12.9045 17.7887 15.5034 16.0314 17.5461C15.164 18.5545 14.2537 19.3925 13.4767 19.9717C13.0876 20.2618 12.7439 20.478 12.4658 20.618C12.327 20.6879 12.2139 20.7341 12.1268 20.7618C12.0354 20.7908 11.9969 20.7915 12 20.7915V22.2915C12.3812 22.2915 12.786 22.1362 13.1405 21.9577C13.5186 21.7673 13.9374 21.4992 14.3733 21.1743C15.2463 20.5235 16.236 19.6084 17.1686 18.5244C19.0113 16.3824 20.75 13.4397 20.75 10.4582H19.25ZM12 20.7915C12.0031 20.7915 11.9646 20.7908 11.8732 20.7618C11.7861 20.7341 11.673 20.6879 11.5342 20.618C11.2561 20.478 10.9124 20.2618 10.5233 19.9717C9.74629 19.3925 8.83605 18.5545 7.96856 17.5461C6.21128 15.5034 4.75 12.9045 4.75 10.4582H3.25C3.25 13.4397 4.98872 16.3824 6.83144 18.5244C7.76395 19.6084 8.75371 20.5235 9.62674 21.1743C10.0626 21.4992 10.4814 21.7673 10.8595 21.9577C11.214 22.1362 11.6188 22.2915 12 22.2915V20.7915ZM4.75 10.4582C4.75 6.50751 7.98851 3.2915 12 3.2915V1.7915C7.17493 1.7915 3.25 5.66432 3.25 10.4582H4.75ZM12 3.2915C16.0115 3.2915 19.25 6.50751 19.25 10.4582H20.75C20.75 5.66432 16.8251 1.7915 12 1.7915V3.2915Z" fill="#28293D"/>
<circle r="3" transform="matrix(-1 0 0 1 12 10.0415)" stroke="#28293D" stroke-width="1.5"/>
</svg>
