<svg width="25" height="25" viewBox="0 0 25 26" fill="none" xmlns="http://www.w3.org/2000/svg">
<rect x="4" y="9.41504" width="16" height="12" rx="4" stroke="#28293D" stroke-width="1.5"/>
<path d="M12.5 17.0819L12.5 14.9985" stroke="#28293D" stroke-width="1.5" stroke-linecap="round" stroke-linejoin="round"/>
<path d="M14.6667 5.55733C14.9035 5.89721 15.3709 5.98079 15.7108 5.74403C16.0507 5.50726 16.1343 5.0398 15.8975 4.69993L14.6667 5.55733ZM8.27819 4.46366C8.02082 4.78821 8.07528 5.25995 8.39984 5.51732C8.72439 5.77469 9.19613 5.72023 9.4535 5.39568L8.27819 4.46366ZM8.75 9.41504V7.41504H7.25V9.41504H8.75ZM8.75 7.41504C8.75 5.62011 10.2051 4.16504 12 4.16504V2.66504C9.37665 2.66504 7.25 4.79169 7.25 7.41504H8.75ZM15.8975 4.69993C15.331 3.88674 14.5244 3.2711 13.5905 2.93925L13.0883 4.35266C13.7272 4.57971 14.2791 5.00094 14.6667 5.55733L15.8975 4.69993ZM13.5905 2.93925C12.6567 2.6074 11.6424 2.57594 10.6898 2.8493L11.1036 4.29111C11.7554 4.10408 12.4493 4.1256 13.0883 4.35266L13.5905 2.93925ZM10.6898 2.8493C9.73722 3.12266 8.89397 3.68713 8.27819 4.46366L9.4535 5.39568C9.87482 4.86437 10.4518 4.47815 11.1036 4.29111L10.6898 2.8493Z" fill="#28293D"/>
</svg>
