<svg width="25" height="25" viewBox="0 0 25 26" fill="none" xmlns="http://www.w3.org/2000/svg">
<path d="M16.5 10.0425C16.0858 10.0425 15.75 9.70669 15.75 9.29248C15.75 8.87827 16.0858 8.54248 16.5 8.54248L16.5 10.0425ZM8.5 8.54248C8.91421 8.54248 9.25 8.87827 9.25 9.29248C9.25 9.70669 8.91421 10.0425 8.5 10.0425L8.5 8.54248ZM3.25 13.2925L3.25 18.2925L1.75 18.2925L1.75 13.2925L3.25 13.2925ZM6.5 21.5425L18.5 21.5425L18.5 23.0425L6.5 23.0425L6.5 21.5425ZM21.75 18.2925L21.75 13.2925L23.25 13.2925L23.25 18.2925L21.75 18.2925ZM18.5 10.0425L16.5 10.0425L16.5 8.54248L18.5 8.54248L18.5 10.0425ZM8.5 10.0425L6.5 10.0425L6.5 8.54248L8.5 8.54248L8.5 10.0425ZM21.75 13.2925C21.75 11.4976 20.2949 10.0425 18.5 10.0425L18.5 8.54248C21.1234 8.54248 23.25 10.6691 23.25 13.2925L21.75 13.2925ZM18.5 21.5425C20.2949 21.5425 21.75 20.0874 21.75 18.2925L23.25 18.2925C23.25 20.9158 21.1234 23.0425 18.5 23.0425L18.5 21.5425ZM3.25 18.2925C3.25 20.0874 4.70508 21.5425 6.5 21.5425L6.5 23.0425C3.87665 23.0425 1.75 20.9158 1.75 18.2925L3.25 18.2925ZM1.75 13.2925C1.75 10.6691 3.87665 8.54248 6.5 8.54248L6.5 10.0425C4.70507 10.0425 3.25 11.4976 3.25 13.2925L1.75 13.2925Z" fill="#28293D"/>
<path d="M15.5 6.29248L13.2071 3.99959C12.8166 3.60906 12.1834 3.60906 11.7929 3.99959L9.5 6.29248" stroke="#28293D" stroke-width="1.5" stroke-linecap="round"/>
<path d="M12.5 4.29248L12.5 16.2925" stroke="#28293D" stroke-width="1.5" stroke-linecap="round"/>
</svg>
