<svg width="25" height="25" viewBox="0 0 24 26" fill="none" xmlns="http://www.w3.org/2000/svg">
<rect x="2" y="8.66797" width="20" height="14" rx="5" stroke="#28293D" stroke-width="1.5"/>
<path d="M11.25 8.16797C11.25 8.58218 11.5858 8.91797 12 8.91797C12.4142 8.91797 12.75 8.58218 12.75 8.16797H11.25ZM9.75 3.66797C9.75 3.25376 9.41421 2.91797 9 2.91797C8.58579 2.91797 8.25 3.25376 8.25 3.66797H9.75ZM12.75 8.16797V7.66797H11.25V8.16797H12.75ZM9.75 4.66797V3.66797H8.25V4.66797H9.75ZM10.5 5.41797C10.0858 5.41797 9.75 5.08218 9.75 4.66797H8.25C8.25 5.91061 9.25736 6.91797 10.5 6.91797V5.41797ZM12.75 7.66797C12.75 6.42533 11.7426 5.41797 10.5 5.41797V6.91797C10.9142 6.91797 11.25 7.25376 11.25 7.66797H12.75Z" fill="#28293D"/>
<circle cx="18" cy="14.168" r="1" fill="#28293D"/>
<circle cx="16" cy="17.168" r="1" fill="#28293D"/>
<path d="M7.79395 18.3761L7.79395 14.2095" stroke="#28293D" stroke-width="1.5" stroke-linecap="round" stroke-linejoin="round"/>
<path d="M5.84546 16.293H9.74243" stroke="#28293D" stroke-width="1.5" stroke-linecap="round" stroke-linejoin="round"/>
</svg>
