<svg width="25" height="25" viewBox="0 0 25 26" fill="none" xmlns="http://www.w3.org/2000/svg">
<path d="M18.3036 13.7259L17.7537 13.2159L18.3036 13.7259ZM11.2326 6.65483L11.7426 7.20472L11.2326 6.65483ZM21.661 5.18931L22.4047 5.28658L21.661 5.18931ZM19.7691 3.29745L19.8664 4.04112L19.8664 4.04112L19.7691 3.29745ZM6.49447 13.5676L7.16789 13.8977L6.49447 13.5676ZM11.3909 18.464L11.0607 17.7906L11.0607 17.7906L11.3909 18.464ZM8.2274 11.0742C7.93451 10.7813 7.45963 10.7813 7.16674 11.0742C6.87385 11.3671 6.87385 11.842 7.16674 12.1349L8.2274 11.0742ZM12.8236 17.7917C13.1165 18.0846 13.5914 18.0846 13.8843 17.7917C14.1771 17.4988 14.1771 17.0239 13.8843 16.7311L12.8236 17.7917ZM6.45963 19.5595C6.75253 19.2666 6.75253 18.7917 6.45963 18.4988C6.16674 18.2059 5.69187 18.2059 5.39897 18.4988L6.45963 19.5595ZM2.57055 21.3272C2.27765 21.6201 2.27765 22.095 2.57055 22.3879C2.86344 22.6808 3.33831 22.6808 3.63121 22.3879L2.57055 21.3272ZM4.33831 17.4382C4.63121 17.1453 4.63121 16.6704 4.33831 16.3775C4.04542 16.0846 3.57054 16.0846 3.27765 16.3775L4.33831 17.4382ZM1.86344 17.7917C1.57055 18.0846 1.57055 18.5595 1.86344 18.8524C2.15633 19.1453 2.63121 19.1453 2.9241 18.8524L1.86344 17.7917ZM8.58095 21.6808C8.87384 21.3879 8.87384 20.913 8.58095 20.6201C8.28806 20.3273 7.81318 20.3273 7.52029 20.6201L8.58095 21.6808ZM6.10608 22.0344C5.81319 22.3272 5.81319 22.8021 6.10608 23.095C6.39897 23.3879 6.87385 23.3879 7.16674 23.095L6.10608 22.0344ZM10.5962 21.999L11.3387 21.8929L11.3387 21.8929L10.5962 21.999ZM15.7581 18.5342L16.5005 18.4281L16.5005 18.4281L15.7581 18.5342ZM2.95943 14.3623L3.0655 13.6198L3.0655 13.6198L2.95943 14.3623ZM6.42426 9.20039L6.31819 9.94285L6.31819 9.94285L6.42426 9.20039ZM9.75035 17.547L7.41149 15.2081L6.35083 16.2688L8.68969 18.6076L9.75035 17.547ZM17.7537 13.2159C15.8601 15.2576 12.7854 16.945 11.0607 17.7906L11.721 19.1374C13.4612 18.2843 16.7569 16.4965 18.8535 14.2359L17.7537 13.2159ZM7.16789 13.8977C8.01343 12.173 9.70084 9.09836 11.7426 7.20472L10.7226 6.10493C8.46194 8.20158 6.67418 11.4972 5.82104 13.2375L7.16789 13.8977ZM20.9173 5.09205C20.6135 7.4154 19.8062 11.003 17.7537 13.2159L18.8535 14.2359C21.249 11.6531 22.0961 7.64558 22.4047 5.28658L20.9173 5.09205ZM11.7426 7.20472C13.9555 5.15231 17.5431 4.34499 19.8664 4.04112L19.6719 2.55379C17.3129 2.86232 13.3054 3.70942 10.7226 6.10493L11.7426 7.20472ZM22.4047 5.28658C22.6157 3.6727 21.2858 2.34271 19.6719 2.55379L19.8664 4.04112C20.5034 3.95781 21.0006 4.45509 20.9173 5.09205L22.4047 5.28658ZM7.41149 15.2081C7.04831 14.8449 6.95957 14.3227 7.16789 13.8977L5.82104 13.2375C5.31284 14.2741 5.56304 15.481 6.35083 16.2688L7.41149 15.2081ZM8.68969 18.6076C9.47748 19.3954 10.6844 19.6456 11.721 19.1374L11.0607 17.7906C10.6358 17.9989 10.1135 17.9101 9.75035 17.547L8.68969 18.6076ZM7.16674 12.1349L12.8236 17.7917L13.8843 16.7311L8.2274 11.0742L7.16674 12.1349ZM5.39897 18.4988L2.57055 21.3272L3.63121 22.3879L6.45963 19.5595L5.39897 18.4988ZM3.27765 16.3775L1.86344 17.7917L2.9241 18.8524L4.33831 17.4382L3.27765 16.3775ZM7.52029 20.6201L6.10608 22.0344L7.16674 23.095L8.58095 21.6808L7.52029 20.6201ZM13.1771 7.89222C12.1032 8.96616 12.1032 10.7074 13.1771 11.7813L14.2378 10.7206C13.7497 10.2325 13.7497 9.44104 14.2378 8.95288L13.1771 7.89222ZM13.1771 11.7813C14.2511 12.8552 15.9923 12.8553 17.0662 11.7813L16.0056 10.7206C15.5174 11.2088 14.726 11.2088 14.2378 10.7206L13.1771 11.7813ZM17.0662 11.7813C18.1402 10.7074 18.1402 8.96616 17.0662 7.89222L16.0056 8.95288C16.4937 9.44104 16.4937 10.2325 16.0056 10.7206L17.0662 11.7813ZM17.0662 7.89222C15.9923 6.81828 14.2511 6.81828 13.1771 7.89222L14.2378 8.95288C14.726 8.46473 15.5174 8.46473 16.0056 8.95288L17.0662 7.89222ZM14.9449 18.8524L11.7629 22.0344L12.8236 23.095L16.0056 19.913L14.9449 18.8524ZM11.3387 21.8929L10.9144 18.9231L9.42948 19.1352L9.85375 22.1051L11.3387 21.8929ZM14.7328 16.6603L15.0156 18.6402L16.5005 18.4281L16.2177 16.4482L14.7328 16.6603ZM11.7629 22.0344C11.6173 22.18 11.3678 22.0969 11.3387 21.8929L9.85375 22.1051C10.0577 23.5327 11.8039 24.1147 12.8236 23.095L11.7629 22.0344ZM16.0056 19.913C16.3951 19.5235 16.5784 18.9734 16.5005 18.4281L15.0156 18.6402C15.0268 18.7181 15.0006 18.7967 14.9449 18.8524L16.0056 19.913ZM5.0454 8.9529L1.86342 12.1349L2.92408 13.1955L6.10606 10.0136L5.0454 8.9529ZM2.85337 15.1047L5.82321 15.529L6.03535 14.0441L3.0655 13.6198L2.85337 15.1047ZM8.51022 8.74077L6.53032 8.45793L6.31819 9.94285L8.29809 10.2257L8.51022 8.74077ZM1.86342 12.1349C0.843712 13.1546 1.42578 14.9008 2.85337 15.1047L3.0655 13.6198C2.86156 13.5907 2.77841 13.3412 2.92408 13.1955L1.86342 12.1349ZM6.10606 10.0136C6.1617 9.95792 6.24029 9.93172 6.31819 9.94285L6.53032 8.45793C5.98503 8.38003 5.43489 8.56341 5.0454 8.9529L6.10606 10.0136Z" fill="#28293D"/>
</svg>
