<svg width="25" height="25" viewBox="0 0 25 26" fill="none" xmlns="http://www.w3.org/2000/svg">
<path d="M2 6.79248C2 4.58334 3.79086 2.79248 6 2.79248H12H14.7574C15.553 2.79248 16.3161 3.10855 16.8787 3.67116L21.1213 7.9138C21.6839 8.47641 22 9.23947 22 10.0351V12.7925V18.7925C22 21.0016 20.2091 22.7925 18 22.7925H6C3.79086 22.7925 2 21.0016 2 18.7925V6.79248Z" stroke="#28293D" stroke-width="1.5"/>
<path d="M6 15.7925C6 14.6879 6.89543 13.7925 8 13.7925H16C17.1046 13.7925 18 14.6879 18 15.7925V22.7925H6V15.7925Z" stroke="#28293D" stroke-width="1.5"/>
<path d="M8 2.79248V6.79248C8 7.34477 8.44772 7.79248 9 7.79248H15C15.5523 7.79248 16 7.34477 16 6.79248V2.79248" stroke="#28293D" stroke-width="1.5"/>
</svg>
