<svg width="25" height="25" viewBox="0 0 25 26" fill="none" xmlns="http://www.w3.org/2000/svg">
<circle r="3" transform="matrix(-1 0 0 1 12 12.917)" stroke="#28293D" stroke-width="1.5"/>
<path d="M16.5001 5.85449L16.8751 5.20497L16.8751 5.20497L16.5001 5.85449ZM16.5 19.9791L16.125 19.3296L16.125 19.3296L16.5 19.9791ZM7.49999 19.9791L7.12499 20.6287L7.12499 20.6287L7.49999 19.9791ZM7.49999 5.85449L7.87499 6.50401L7.87499 6.50401L7.49999 5.85449ZM8.92293 3.93207L9.65362 4.10114L8.92293 3.93207ZM9.53914 3.22203L9.35515 2.49495L9.53914 3.22203ZM2.90639 10.6005L2.42947 11.1793L2.90639 10.6005ZM5.31183 19.6572L5.13965 18.9272L5.31183 19.6572ZM4.40294 19.42L3.83341 19.908L4.40294 19.42ZM9.53921 22.612L9.72319 21.8849L9.53921 22.612ZM8.92299 21.9018L9.6537 21.7328L8.92299 21.9018ZM15.077 21.9018L14.3463 21.7328L15.077 21.9018ZM14.4608 22.6119L14.2768 21.8849L14.4608 22.6119ZM19.597 19.42L19.0274 18.932L19.597 19.42ZM18.6881 19.6572L18.5159 20.3872L18.6881 19.6572ZM21.8776 11.3479L21.1367 11.4646L21.8776 11.3479ZM21.6615 12.0375L22.2458 12.5077L21.6615 12.0375ZM2.90638 15.2335L2.42947 14.6546L2.90638 15.2335ZM19.5967 6.4137L19.0272 6.9017L19.5967 6.4137ZM4.40321 6.41367L3.83369 5.92566L4.40321 6.41367ZM21.3828 15.3845L20.7289 15.7519L21.3828 15.3845ZM21.4819 16.1023L20.771 15.8635L21.4819 16.1023ZM15.0771 3.9321L15.8078 3.76302L15.0771 3.9321ZM14.3464 4.10118C14.5722 5.07704 15.1878 5.96291 16.1251 6.50401L16.8751 5.20497C16.3127 4.88029 15.9438 4.3508 15.8078 3.76302L14.3464 4.10118ZM16.1251 6.50401C16.986 7.00107 17.9638 7.11779 18.8601 6.90648L18.5158 5.44651C17.9767 5.57363 17.3921 5.50349 16.8751 5.20497L16.1251 6.50401ZM22.6184 11.2311C22.302 9.22327 21.43 7.40061 20.1662 5.9257L19.0272 6.9017C20.1156 8.17193 20.8648 9.73932 21.1367 11.4646L22.6184 11.2311ZM21.7499 13.917C21.7499 13.3826 21.9353 12.8936 22.2458 12.5077L21.0772 11.5673C20.56 12.21 20.2499 13.0283 20.2499 13.917H21.7499ZM22.0366 15.0171C21.8542 14.6925 21.7499 14.3181 21.7499 13.917H20.2499C20.2499 14.5821 20.4237 15.2088 20.7289 15.7519L22.0366 15.0171ZM20.1665 19.908C21.0542 18.8719 21.7486 17.6643 22.1929 16.341L20.771 15.8635C20.3891 17.0006 19.792 18.0396 19.0274 18.932L20.1665 19.908ZM16.875 20.6287C17.3921 20.3301 17.9767 20.26 18.5159 20.3872L18.8603 18.9272C17.9639 18.7158 16.986 18.8325 16.125 19.3296L16.875 20.6287ZM15.8077 22.0708C15.9437 21.483 16.3126 20.9534 16.875 20.6287L16.125 19.3296C15.1877 19.8708 14.572 20.7568 14.3463 21.7328L15.8077 22.0708ZM11.9999 23.667C12.9117 23.667 13.7979 23.5533 14.6448 23.339L14.2768 21.8849C13.5492 22.069 12.7866 22.167 11.9999 22.167V23.667ZM9.35524 23.3391C10.2021 23.5533 11.0883 23.667 11.9999 23.667V22.167C11.2134 22.167 10.4508 22.069 9.72319 21.8849L9.35524 23.3391ZM7.12499 20.6287C7.68743 20.9534 8.05631 21.483 8.19227 22.0708L9.6537 21.7328C9.42796 20.7568 8.81232 19.8708 7.87499 19.3296L7.12499 20.6287ZM5.484 20.3872C6.02321 20.26 6.60787 20.3301 7.12499 20.6287L7.87499 19.3296C7.01395 18.8325 6.036 18.7158 5.13965 18.9272L5.484 20.3872ZM1.84816 16.4613C2.29368 17.7375 2.97267 18.9034 3.83341 19.908L4.97248 18.932C4.23112 18.0668 3.6472 17.0636 3.26434 15.9669L1.84816 16.4613ZM3.24998 12.917C3.24998 13.6164 2.93179 14.2408 2.42947 14.6546L3.3833 15.8123C4.21662 15.1257 4.74998 14.0833 4.74998 12.917H3.24998ZM2.42947 11.1793C2.93179 11.5932 3.24998 12.2176 3.24998 12.917H4.74998C4.74998 11.7507 4.21662 10.7083 3.3833 10.0217L2.42947 11.1793ZM3.83369 5.92566C2.97282 6.93033 2.29373 8.09633 1.84816 9.37266L3.26434 9.86706C3.64724 8.77025 4.23126 7.767 4.97273 6.90167L3.83369 5.92566ZM7.12499 5.20497C6.60792 5.50351 6.02331 5.57363 5.48414 5.44649L5.13988 6.90645C6.03617 7.1178 7.01403 7.00109 7.87499 6.50401L7.12499 5.20497ZM8.19223 3.763C8.05623 4.35079 7.68737 4.88028 7.12499 5.20497L7.87499 6.50401C8.81221 5.96291 9.42782 5.07702 9.65362 4.10114L8.19223 3.763ZM11.9999 2.16699C11.0883 2.16699 10.202 2.28065 9.35515 2.49495L9.72312 3.94912C10.4507 3.76501 11.2133 3.66699 11.9999 3.66699V2.16699ZM14.6449 2.495C13.798 2.28067 12.9117 2.16699 11.9999 2.16699V3.66699C12.7866 3.66699 13.5493 3.76502 14.2769 3.94916L14.6449 2.495ZM9.65362 4.10114C9.66923 4.03368 9.69568 3.98608 9.7162 3.96112C9.73383 3.93968 9.73697 3.94561 9.72312 3.94912L9.35515 2.49495C8.66395 2.66986 8.30705 3.26679 8.19223 3.763L9.65362 4.10114ZM3.3833 10.0217C3.32242 9.9715 3.28703 9.91723 3.27283 9.88093C3.26089 9.85041 3.26968 9.85177 3.26434 9.86706L1.84816 9.37266C1.58215 10.1347 1.9943 10.8208 2.42947 11.1793L3.3833 10.0217ZM5.13965 18.9272C5.07242 18.9431 5.01815 18.9405 4.98668 18.9332C4.95963 18.9269 4.96335 18.9214 4.97248 18.932L3.83341 19.908C4.29646 20.4484 4.98843 20.5041 5.484 20.3872L5.13965 18.9272ZM9.72319 21.8849C9.73705 21.8884 9.7339 21.8943 9.71627 21.8729C9.69575 21.8479 9.6693 21.8003 9.6537 21.7328L8.19227 22.0708C8.30705 22.5671 8.66396 23.1641 9.35524 23.3391L9.72319 21.8849ZM14.3463 21.7328C14.3307 21.8003 14.3042 21.8479 14.2837 21.8729C14.2661 21.8943 14.263 21.8884 14.2768 21.8849L14.6448 23.339C15.336 23.1641 15.6929 22.5671 15.8077 22.0708L14.3463 21.7328ZM19.0274 18.932C19.0366 18.9213 19.0403 18.9268 19.0132 18.9331C18.9818 18.9405 18.9275 18.9431 18.8603 18.9272L18.5159 20.3872C19.0115 20.504 19.7035 20.4484 20.1665 19.908L19.0274 18.932ZM21.1367 11.4646C21.135 11.4541 21.1386 11.4552 21.1323 11.4739C21.1254 11.4945 21.109 11.5278 21.0772 11.5673L22.2458 12.5077C22.4899 12.2044 22.7005 11.7517 22.6184 11.2311L21.1367 11.4646ZM3.26434 15.9669C3.26968 15.9822 3.26089 15.9836 3.27283 15.953C3.28703 15.9167 3.32242 15.8625 3.3833 15.8123L2.42947 14.6546C1.9943 15.0132 1.58215 15.6993 1.84816 16.4613L3.26434 15.9669ZM18.8601 6.90648C18.9273 6.89063 18.9815 6.89324 19.013 6.90056C19.04 6.90686 19.0363 6.91236 19.0272 6.9017L20.1662 5.9257C19.7032 5.38535 19.0114 5.32968 18.5158 5.44651L18.8601 6.90648ZM4.97273 6.90167C4.9636 6.91233 4.95988 6.90683 4.98693 6.90053C5.01839 6.89321 5.07265 6.8906 5.13988 6.90645L5.48414 5.44649C4.98861 5.32964 4.29672 5.38529 3.83369 5.92566L4.97273 6.90167ZM20.7289 15.7519C20.754 15.7965 20.7647 15.8322 20.7681 15.8538C20.7712 15.8734 20.7675 15.8739 20.771 15.8635L22.1929 16.341C22.3613 15.8397 22.2276 15.357 22.0366 15.0171L20.7289 15.7519ZM15.8078 3.76302C15.693 3.26682 15.3361 2.66991 14.6449 2.495L14.2769 3.94916C14.2631 3.94565 14.2662 3.93972 14.2838 3.96116C14.3044 3.98612 14.3308 4.03371 14.3464 4.10118L15.8078 3.76302Z" fill="#28293D"/>
</svg>
