<svg width="25" height="25" viewBox="0 0 25 26" fill="none" xmlns="http://www.w3.org/2000/svg">
<path d="M11.4718 3.66696C11.9382 2.89198 13.0617 2.89198 13.5281 3.66696L16.0094 7.79005C16.177 8.06846 16.4503 8.26703 16.7669 8.34034L21.4549 9.42611C22.3361 9.63019 22.6833 10.6988 22.0904 11.3818L18.9358 15.0158C18.7228 15.2612 18.6184 15.5824 18.6465 15.9062L19.0626 20.7003C19.1408 21.6014 18.2318 22.2618 17.399 21.909L12.9681 20.0318C12.6689 19.9051 12.3311 19.9051 12.0319 20.0318L7.60094 21.909C6.7681 22.2618 5.85912 21.6014 5.93732 20.7003L6.35339 15.9062C6.38149 15.5824 6.2771 15.2612 6.06408 15.0158L2.90956 11.3818C2.31663 10.6988 2.66383 9.63019 3.54501 9.42611L8.23306 8.34034C8.54963 8.26703 8.82293 8.06846 8.99048 7.79005L11.4718 3.66696Z" stroke="#28293D" stroke-width="1.5"/>
</svg>
