<svg width="25" height="25" viewBox="0 0 24 26" fill="none" xmlns="http://www.w3.org/2000/svg">
<circle r="3.40426" transform="matrix(-1 0 0 1 12.2128 9.07222)" stroke="#28293D" stroke-width="1.5"/>
<path d="M6.25537 17.5274C6.25537 16.7951 6.71567 16.142 7.40524 15.8957V15.8957C10.5141 14.7854 13.9115 14.7854 17.0204 15.8957V15.8957C17.71 16.142 18.1703 16.7951 18.1703 17.5274V18.6469C18.1703 19.6575 17.2752 20.4338 16.2748 20.2909L15.9412 20.2433C13.4682 19.89 10.9575 19.89 8.48442 20.2433L8.15087 20.2909C7.15044 20.4338 6.25537 19.6575 6.25537 18.6469V17.5274Z" stroke="#28293D" stroke-width="1.5"/>
<path d="M17.3191 12.5707C18.7964 12.5707 19.9939 11.3732 19.9939 9.89596C19.9939 8.41873 18.7964 7.22119 17.3191 7.22119" stroke="#28293D" stroke-width="1.5" stroke-linecap="round"/>
<path d="M20.2486 18.673L20.5106 18.7105C21.2967 18.8228 22 18.2128 22 17.4188V16.5391C22 15.9638 21.6383 15.4506 21.0965 15.2571C20.5561 15.0641 20.0045 14.9138 19.4468 14.8062" stroke="#28293D" stroke-width="1.5" stroke-linecap="round"/>
<path d="M6.68088 12.5707C5.20364 12.5707 4.0061 11.3732 4.0061 9.89596C4.0061 8.41873 5.20364 7.22119 6.68088 7.22119" stroke="#28293D" stroke-width="1.5" stroke-linecap="round"/>
<path d="M3.75143 18.673L3.48935 18.7105C2.7033 18.8228 2.00003 18.2128 2.00003 17.4188V16.5391C2.00003 15.9638 2.3617 15.4506 2.9035 15.2571C3.44395 15.0641 3.99549 14.9138 4.55322 14.8062" stroke="#28293D" stroke-width="1.5" stroke-linecap="round"/>
</svg>
