<svg width="25" height="25" viewBox="0 0 25 26" fill="none" xmlns="http://www.w3.org/2000/svg">
<path d="M15 6.66113C15 4.9488 12.9884 4.02827 11.6926 5.14764L8.36317 8.02374C7.99988 8.33757 7.53583 8.51025 7.05576 8.51025L5.49998 8.51026C4.11928 8.51028 3 9.62956 3 11.0103V14.3032C3 15.684 4.11929 16.8032 5.5 16.8032H7.0558C7.53587 16.8032 7.99993 16.9759 8.36322 17.2898L11.6926 20.1658C12.9884 21.2852 15 20.3647 15 18.6523V12.6567V6.66113Z" stroke="#28293D" stroke-width="1.5"/>
<path d="M18 15.6572C18.6279 14.8216 19 13.7828 19 12.6572C19 11.5316 18.6279 10.4929 18 9.65723" stroke="#28293D" stroke-width="1.5" stroke-linecap="round"/>
</svg>
