<svg width="24" height="26" viewBox="0 0 24 26" fill="none" xmlns="http://www.w3.org/2000/svg">
<circle r="4" transform="matrix(-1 0 0 1 10 7.66797)" stroke="#28293D" stroke-width="1.5"/>
<path d="M3 17.6026C3 16.7423 3.54085 15.9748 4.35109 15.6854V15.6854C8.00404 14.3808 11.996 14.3808 15.6489 15.6854V15.6854C16.4591 15.9748 17 16.7423 17 17.6026V18.9181C17 20.1056 15.9483 21.0177 14.7728 20.8498L13.8184 20.7135C11.2856 20.3516 8.71435 20.3516 6.18162 20.7135L5.22721 20.8498C4.0517 21.0177 3 20.1056 3 18.9181V17.6026Z" stroke="#28293D" stroke-width="1.5"/>
<path d="M16.5621 12.1265H20.4591" stroke="#28293D" stroke-width="1.5" stroke-linecap="round" stroke-linejoin="round"/>
<path d="M18.5106 10.0428L18.5106 14.2095" stroke="#28293D" stroke-width="1.5" stroke-linecap="round" stroke-linejoin="round"/>
</svg>
