<svg width="25" height="26" viewBox="0 0 25 26" fill="none" xmlns="http://www.w3.org/2000/svg">
<path d="M2 6.58171L1.71154 5.8894C1.43205 6.00585 1.25 6.27893 1.25 6.58171H2ZM12 22.415L11.7115 23.1073C11.8962 23.1843 12.1038 23.1843 12.2885 23.1073L12 22.415ZM22 6.58171H22.75C22.75 6.27893 22.5679 6.00585 22.2885 5.8894L22 6.58171ZM7 8.66504L6.71154 9.35735L6.71154 9.35735L7 8.66504ZM11.2308 2.73555L10.9423 2.04324L11.2308 2.73555ZM2.61538 18.5048L2.32692 19.1971L2.61538 18.5048ZM2.75 17.5817V6.58171H1.25V17.5817H2.75ZM11.25 10.7484V22.415H12.75V10.7484H11.25ZM12.2885 21.7227L2.90385 17.8125L2.32692 19.1971L11.7115 23.1073L12.2885 21.7227ZM12.2885 23.1073L21.6731 19.1971L21.0962 17.8125L11.7115 21.7227L12.2885 23.1073ZM22.75 17.5817V6.58171H21.25V17.5817H22.75ZM21.7115 5.8894L11.7115 10.0561L12.2885 11.4407L22.2885 7.27401L21.7115 5.8894ZM10.9423 2.04324L1.71154 5.8894L2.28846 7.27401L11.5192 3.42786L10.9423 2.04324ZM1.71154 7.27401L6.71154 9.35735L7.28846 7.97273L2.28846 5.8894L1.71154 7.27401ZM6.71154 9.35735L11.7115 11.4407L12.2885 10.0561L7.28846 7.97273L6.71154 9.35735ZM22.2885 5.8894L17.2885 3.80606L16.7115 5.19068L21.7115 7.27401L22.2885 5.8894ZM17.2885 3.80606L13.0577 2.04324L12.4808 3.42786L16.7115 5.19068L17.2885 3.80606ZM7.28846 9.35735L17.2885 5.19068L16.7115 3.80606L6.71154 7.97273L7.28846 9.35735ZM11.5192 3.42786C11.8269 3.29965 12.1731 3.29965 12.4808 3.42786L13.0577 2.04324C12.3808 1.76119 11.6192 1.76119 10.9423 2.04324L11.5192 3.42786ZM21.6731 19.1971C22.3252 18.9254 22.75 18.2882 22.75 17.5817H21.25C21.25 17.6826 21.1893 17.7737 21.0962 17.8125L21.6731 19.1971ZM1.25 17.5817C1.25 18.2882 1.67479 18.9254 2.32692 19.1971L2.90385 17.8125C2.81068 17.7737 2.75 17.6826 2.75 17.5817H1.25Z" fill="#28293D"/>
</svg>
