<svg width="25" height="26" viewBox="0 0 25 26" fill="none" xmlns="http://www.w3.org/2000/svg">
<path d="M19.0621 20.7617L19.5924 21.2921L19.5924 21.2921L19.0621 20.7617ZM3.7817 5.48141L3.25137 4.95108L3.25137 4.95108L3.7817 5.48141ZM5.06847 4.19464L5.5988 4.72497L5.06847 4.19464ZM8.33784 4.24709L8.86817 3.71676L8.33784 4.24709ZM10.3309 6.24018L9.80059 6.77051L10.3309 6.24018ZM10.3834 9.50954L10.9137 10.0399L10.9137 10.0399L10.3834 9.50954ZM15.0339 14.1601L15.5642 14.6904L15.5642 14.6904L15.0339 14.1601ZM18.3033 14.2125L18.8336 13.6822L18.8336 13.6822L18.3033 14.2125ZM20.2964 16.2056L19.766 16.736L19.766 16.736L20.2964 16.2056ZM20.3488 19.475L19.8185 18.9447L19.8185 18.9447L20.3488 19.475ZM14.7575 14.4365L14.2272 13.9061L14.2272 13.9061L14.7575 14.4365ZM10.107 9.78593L9.57666 9.2556L9.57666 9.2556L10.107 9.78593ZM10.0261 11.5793L9.44763 12.0567L10.0261 11.5793ZM13.8973 14.07C13.487 14.1267 13.2003 14.5053 13.2571 14.9157C13.3138 15.326 13.6924 15.6126 14.1027 15.5559L13.8973 14.07ZM11.0159 18.3582C10.6804 18.1153 10.2115 18.1905 9.96862 18.526C9.72576 18.8616 9.8009 19.3305 10.1365 19.5733L11.0159 18.3582ZM3.25137 4.95108C1.94366 6.2588 2.04947 8.39818 2.81319 10.4797C3.60074 12.6262 5.18405 15.0216 7.35294 17.1905L8.4136 16.1299C6.36295 14.0792 4.91831 11.8624 4.22139 9.963C3.50063 7.99857 3.66544 6.65834 4.31203 6.01174L3.25137 4.95108ZM8.86817 3.71676C7.67415 2.52274 5.73527 2.46718 4.53814 3.66431L5.5988 4.72497C6.17832 4.14545 7.16694 4.13685 7.80751 4.77742L8.86817 3.71676ZM10.8613 5.70985L8.86817 3.71676L7.80751 4.77742L9.80059 6.77051L10.8613 5.70985ZM10.9137 10.0399C12.1108 8.84274 12.0553 6.90387 10.8613 5.70985L9.80059 6.77051C10.4412 7.41108 10.4326 8.39969 9.85304 8.97921L10.9137 10.0399ZM10.6373 10.3163L10.9137 10.0399L9.85304 8.97921L9.57666 9.2556L10.6373 10.3163ZM11.9522 12.5913C11.4691 12.1082 11.0217 11.6075 10.6046 11.102L9.44763 12.0567C9.89023 12.593 10.3697 13.13 10.8915 13.6519L11.9522 12.5913ZM14.5036 13.6298L14.2272 13.9061L15.2879 14.9668L15.5642 14.6904L14.5036 13.6298ZM18.8336 13.6822C17.6396 12.4882 15.7007 12.4326 14.5036 13.6298L15.5642 14.6904C16.1438 14.1109 17.1324 14.1023 17.7729 14.7429L18.8336 13.6822ZM20.8267 15.6753L18.8336 13.6822L17.7729 14.7429L19.766 16.736L20.8267 15.6753ZM20.8791 20.0053C22.0763 18.8082 22.0207 16.8693 20.8267 15.6753L19.766 16.736C20.4066 17.3765 20.398 18.3651 19.8185 18.9447L20.8791 20.0053ZM9.57666 9.2556C8.82565 10.0066 8.75424 11.2164 9.44763 12.0567L10.6046 11.102C10.4067 10.8621 10.4291 10.5245 10.6373 10.3163L9.57666 9.2556ZM4.53814 3.66431L3.25137 4.95108L4.31203 6.01174L5.5988 4.72497L4.53814 3.66431ZM19.5924 21.2921L20.8791 20.0053L19.8185 18.9447L18.5317 20.2314L19.5924 21.2921ZM14.1027 15.5559C14.5392 15.4956 14.9582 15.2965 15.2879 14.9668L14.2272 13.9061C14.1355 13.9978 14.0197 14.0531 13.8973 14.07L14.1027 15.5559ZM12.6546 13.2592C12.4173 13.0443 12.1827 12.8218 11.9522 12.5913L10.8915 13.6519C11.1407 13.9011 11.3932 14.1405 11.6475 14.3708L12.6546 13.2592ZM7.35294 17.1905C7.56324 17.4008 7.7755 17.6054 7.98927 17.8042L9.01073 16.7058C8.81026 16.5193 8.61108 16.3273 8.4136 16.1299L7.35294 17.1905ZM10.1365 19.5733C11.9279 20.8699 13.756 21.7624 15.3791 22.1194C16.9781 22.471 18.5526 22.3319 19.5924 21.2921L18.5317 20.2314C18.0226 20.7406 17.09 20.9598 15.7012 20.6544C14.3366 20.3543 12.6961 19.5743 11.0159 18.3582L10.1365 19.5733Z" fill="#28293D"/>
<path d="M20.8334 5.75196L5.20837 21.377" stroke="#28293D" stroke-width="1.5" stroke-linecap="round" stroke-linejoin="round"/>
</svg>
