<svg width="25" height="26" viewBox="0 0 25 26" fill="none" xmlns="http://www.w3.org/2000/svg">
<path d="M2 10.747C2 8.56189 3.77136 6.79053 5.95645 6.79053V6.79053C6.58953 6.79053 7.16169 6.41325 7.41107 5.83136L7.72075 5.10877C8.19349 4.00572 9.2781 3.29053 10.4782 3.29053H12H13.5218C14.7219 3.29053 15.8065 4.00572 16.2792 5.10877L16.5889 5.83136C16.8383 6.41324 17.4105 6.79053 18.0435 6.79053V6.79053C20.2286 6.79053 22 8.56189 22 10.747V15.7905C22 18.552 19.7614 20.7905 17 20.7905H7C4.23858 20.7905 2 18.552 2 15.7905V10.747Z" stroke="#28293D" stroke-width="1.5"/>
<circle r="3" transform="matrix(-1 0 0 1 12 12.7905)" stroke="#28293D" stroke-width="1.5"/>
</svg>
