<svg width="25" height="26" viewBox="0 0 25 26" fill="none" xmlns="http://www.w3.org/2000/svg">
<path d="M2.14709 3.18156C1.74092 3.10032 1.3458 3.36374 1.26456 3.76991C1.18333 4.17607 1.44674 4.57119 1.85291 4.65243L2.14709 3.18156ZM4.8 7.41699L4.05372 7.49162L4.05446 7.49899L4.05534 7.50635L4.8 7.41699ZM21.2855 10.2748L20.5579 10.0929L21.2855 10.2748ZM20.1628 14.7659L19.4352 14.584L20.1628 14.7659ZM4.6472 5.88902L3.90092 5.96365L4.6472 5.88902ZM1.85291 4.65243L2.90227 4.8623L3.19645 3.39143L2.14709 3.18156L1.85291 4.65243ZM7.77435 18.167H16.7673V16.667H7.77435V18.167ZM20.8904 14.9478L22.0131 10.4567L20.5579 10.0929L19.4352 14.584L20.8904 14.9478ZM3.90092 5.96365L4.05372 7.49162L5.54628 7.34236L5.39348 5.81439L3.90092 5.96365ZM4.05534 7.50635L5.04394 15.7446L6.53325 15.5659L5.54466 7.32763L4.05534 7.50635ZM19.0542 6.66699H4.8V8.16699H19.0542V6.66699ZM22.0131 10.4567C22.4944 8.53173 21.0385 6.66699 19.0542 6.66699V8.16699C20.0626 8.16699 20.8025 9.11464 20.5579 10.0929L22.0131 10.4567ZM16.7673 18.167C18.7175 18.167 20.4174 16.8397 20.8904 14.9478L19.4352 14.584C19.1291 15.8082 18.0292 16.667 16.7673 16.667V18.167ZM7.77435 16.667C7.1416 16.667 6.60864 16.1942 6.53325 15.5659L5.04394 15.7446C5.20979 17.1268 6.3823 18.167 7.77435 18.167V16.667ZM2.90227 4.8623C3.44102 4.97005 3.84626 5.41695 3.90092 5.96365L5.39348 5.81439C5.27321 4.61167 4.3817 3.62848 3.19645 3.39143L2.90227 4.8623Z" fill="#28293D"/>
<path d="M13.5417 14.9795H9.375" stroke="#28293D" stroke-width="1.5" stroke-linecap="round" stroke-linejoin="round"/>
<circle cx="8.5" cy="20.917" r="1.5" fill="#28293D"/>
<circle cx="17.5" cy="20.917" r="1.5" fill="#28293D"/>
</svg>
