<svg width="25" height="26" viewBox="0 0 25 26" fill="none" xmlns="http://www.w3.org/2000/svg">
<path d="M2 9.3457C2 8.24113 2.89543 7.3457 4 7.3457H20C21.1046 7.3457 22 8.24113 22 9.3457V11.0005C22 11.8837 21.4207 12.6623 20.5747 12.9161L13.1494 15.1437C12.3996 15.3686 11.6004 15.3686 10.8506 15.1437L3.42531 12.9161C2.57934 12.6623 2 11.8837 2 11.0005V9.3457Z" stroke="#28293D" stroke-width="1.5"/>
<path d="M12.5 12.9708L12.5 11.1851" stroke="#28293D" stroke-width="1.5" stroke-linecap="round" stroke-linejoin="round"/>
<path d="M2.83337 12.4883L2.83337 17.9168C2.83337 20.1259 4.62424 21.9168 6.83338 21.9168H17.1667C19.3758 21.9168 21.1667 20.1259 21.1667 17.9168V12.4883" stroke="#28293D" stroke-width="1.5"/>
<path d="M15.3333 7.34554V5.91699C15.3333 4.81242 14.4379 3.91699 13.3333 3.91699H10.6666C9.56206 3.91699 8.66663 4.81242 8.66663 5.91699L8.66663 7.34554" stroke="#28293D" stroke-width="1.5"/>
</svg>
