<svg width="25" height="26" viewBox="0 0 25 26" fill="none" xmlns="http://www.w3.org/2000/svg">
<path d="M22.75 9.16602C22.75 8.7518 22.4142 8.41602 22 8.41602C21.5858 8.41602 21.25 8.7518 21.25 9.16602H22.75ZM16 2.91602C16.4142 2.91602 16.75 2.58023 16.75 2.16602C16.75 1.7518 16.4142 1.41602 16 1.41602V2.91602ZM17 21.416H7V22.916H17V21.416ZM2.75 17.166V7.16602H1.25V17.166H2.75ZM21.25 9.16602V17.166H22.75V9.16602H21.25ZM7 2.91602H16V1.41602H7V2.91602ZM7 21.416C4.65279 21.416 2.75 19.5132 2.75 17.166H1.25C1.25 20.3417 3.82436 22.916 7 22.916V21.416ZM17 22.916C20.1756 22.916 22.75 20.3417 22.75 17.166H21.25C21.25 19.5132 19.3472 21.416 17 21.416V22.916ZM2.75 7.16602C2.75 4.81881 4.65279 2.91602 7 2.91602V1.41602C3.82436 1.41602 1.25 3.99038 1.25 7.16602H2.75Z" fill="#28293D"/>
<circle r="2" transform="matrix(-1 0 0 1 21 4.16602)" stroke="#28293D" stroke-width="1.5"/>
<path d="M7.29171 15.5308L10.9375 11.3641L14.0625 13.9683L17.7084 9.80159" stroke="#28293D" stroke-width="1.5" stroke-linecap="round" stroke-linejoin="round"/>
</svg>
