<svg width="25" height="26" viewBox="0 0 25 26" fill="none" xmlns="http://www.w3.org/2000/svg">
<path d="M6 10.4185H18L17.2292 19.6676C17.0997 21.2225 15.7999 22.4185 14.2396 22.4185H9.7604C8.20013 22.4185 6.90033 21.2225 6.77076 19.6676L6 10.4185Z" stroke="#28293D" stroke-width="1.5"/>
<circle r="2" transform="matrix(-1 0 0 1 12 16.4185)" stroke="#28293D" stroke-width="1.5"/>
<path d="M4 8.41846C4 7.31389 4.89543 6.41846 6 6.41846H18C19.1046 6.41846 20 7.31389 20 8.41846V8.41846C20 9.52303 19.1046 10.4185 18 10.4185H6C4.89543 10.4185 4 9.52303 4 8.41846V8.41846Z" stroke="#28293D" stroke-width="1.5"/>
<path d="M6 4.41846C6 3.31389 6.89543 2.41846 8 2.41846H16C17.1046 2.41846 18 3.31389 18 4.41846V5.41846C18 5.97074 17.5523 6.41846 17 6.41846H7C6.44772 6.41846 6 5.97074 6 5.41846V4.41846Z" stroke="#28293D" stroke-width="1.5"/>
</svg>
