<svg width="25" height="26" viewBox="0 0 25 26" fill="none" xmlns="http://www.w3.org/2000/svg">
<path d="M19 7.04004C19 8.42075 15.866 9.54004 12 9.54004C8.13401 9.54004 5 8.42075 5 7.04004M19 7.04004C19 5.65933 15.866 4.54004 12 4.54004C8.13401 4.54004 5 5.65933 5 7.04004M19 7.04004V19.04C19 20.4208 15.866 21.54 12 21.54C8.13401 21.54 5 20.4208 5 19.04V7.04004M19 11.04C19 12.4208 15.866 13.54 12 13.54C8.13401 13.54 5 12.4208 5 11.04M19 15.04C19 16.4208 15.866 17.54 12 17.54C8.13401 17.54 5 16.4208 5 15.04" stroke="#28293D" stroke-width="1.5"/>
</svg>
