<svg width="25" height="26" viewBox="0 0 25 26" fill="none" xmlns="http://www.w3.org/2000/svg">
<path d="M2.31525 10.5529L2.07079 11.262L2.31525 10.5529ZM2.31525 15.281L2.07079 14.572L2.31525 15.281ZM21.6847 15.281L21.9292 14.572L21.6847 15.281ZM21.6847 10.5529L21.4403 9.8439L21.6847 10.5529ZM6 4.16699C3.37665 4.16699 1.25 6.29364 1.25 8.91699H2.75C2.75 7.12207 4.20507 5.66699 6 5.66699V4.16699ZM18 4.16699H6V5.66699H18V4.16699ZM22.75 8.91699C22.75 6.29364 20.6234 4.16699 18 4.16699V5.66699C19.7949 5.66699 21.25 7.12207 21.25 8.91699H22.75ZM22.75 10.14V8.91699H21.25V10.14H22.75ZM20.75 12.917C20.75 12.1515 21.242 11.4989 21.9292 11.262L21.4403 9.8439C20.1667 10.283 19.25 11.492 19.25 12.917H20.75ZM21.9292 14.572C21.242 14.3351 20.75 13.6825 20.75 12.917H19.25C19.25 14.342 20.1667 15.551 21.4403 15.9901L21.9292 14.572ZM22.75 16.917V15.6939H21.25V16.917H22.75ZM18 21.667C20.6234 21.667 22.75 19.5403 22.75 16.917H21.25C21.25 18.7119 19.7949 20.167 18 20.167V21.667ZM6 21.667H18V20.167H6V21.667ZM1.25 16.917C1.25 19.5403 3.37665 21.667 6 21.667V20.167C4.20507 20.167 2.75 18.7119 2.75 16.917H1.25ZM1.25 15.6939V16.917H2.75V15.6939H1.25ZM2.55972 15.9901C3.83334 15.551 4.75 14.342 4.75 12.917H3.25C3.25 13.6825 2.75802 14.3351 2.07079 14.572L2.55972 15.9901ZM4.75 12.917C4.75 11.492 3.83334 10.283 2.55972 9.8439L2.07079 11.262C2.75802 11.4989 3.25 12.1515 3.25 12.917H4.75ZM1.25 8.91699V10.14H2.75V8.91699H1.25ZM2.55972 9.8439C2.62653 9.86693 2.75 9.95495 2.75 10.14H1.25C1.25 10.7056 1.64428 11.1149 2.07079 11.262L2.55972 9.8439ZM2.75 15.6939C2.75 15.879 2.62653 15.9671 2.55972 15.9901L2.07079 14.572C1.64428 14.7191 1.25 15.1284 1.25 15.6939H2.75ZM21.4403 15.9901C21.3735 15.9671 21.25 15.879 21.25 15.6939H22.75C22.75 15.1284 22.3557 14.7191 21.9292 14.572L21.4403 15.9901ZM21.25 10.14C21.25 9.95495 21.3735 9.86693 21.4403 9.8439L21.9292 11.262C22.3557 11.1149 22.75 10.7056 22.75 10.14H21.25Z" fill="#28293D"/>
<path d="M12.101 9.7788C12.3011 9.51391 12.699 9.51391 12.899 9.7788L13.9512 11.172C14.011 11.2512 14.0931 11.3108 14.1869 11.3432L15.837 11.9134C16.1508 12.0218 16.2737 12.4002 16.0836 12.6723L15.0838 14.1035C15.0269 14.1849 14.9956 14.2813 14.9937 14.3806L14.9614 16.1261C14.9553 16.458 14.6334 16.6919 14.3158 16.5952L12.6457 16.0865C12.5508 16.0576 12.4493 16.0576 12.3544 16.0865L10.6843 16.5952C10.3667 16.6919 10.0448 16.458 10.0387 16.1261L10.0063 14.3806C10.0045 14.2813 9.97316 14.1849 9.91631 14.1035L8.91646 12.6723C8.72636 12.4002 8.84931 12.0218 9.16305 11.9134L10.8132 11.3432C10.907 11.3108 10.9891 11.2512 11.0489 11.172L12.101 9.7788Z" stroke="#28293D" stroke-width="1.5"/>
</svg>
