<svg width="25" height="26" viewBox="0 0 25 26" fill="none" xmlns="http://www.w3.org/2000/svg">
<path d="M2 18.0921C2 17.4847 2.15479 16.8874 2.44975 16.3565L8.63566 5.22182C9.18399 4.23483 10.1381 3.5384 11.2452 3.31697V3.31697C11.7435 3.21732 12.2565 3.21732 12.7548 3.31697V3.31697C13.8619 3.5384 14.816 4.23483 15.3643 5.22182L21.5502 16.3565C21.8452 16.8874 22 17.4847 22 18.0921V18.0921C22 20.0659 20.3999 21.666 18.4261 21.666H5.57391C3.60009 21.666 2 20.0659 2 18.0921V18.0921Z" stroke="#28293D" stroke-width="1.5"/>
<path d="M12.5 9.54085L12.5 13.7075" stroke="#28293D" stroke-width="1.5" stroke-linecap="round" stroke-linejoin="round"/>
<path d="M12.5 16.8327L12.5 17.3535" stroke="#28293D" stroke-width="1.5" stroke-linecap="round" stroke-linejoin="round"/>
</svg>
