<svg width="25" height="26" viewBox="0 0 25 26" fill="none" xmlns="http://www.w3.org/2000/svg">
<path d="M18.25 12.54C18.25 12.9543 18.5858 13.29 19 13.29C19.4142 13.29 19.75 12.9543 19.75 12.54H18.25ZM12 23.29C12.4142 23.29 12.75 22.9543 12.75 22.54C12.75 22.1258 12.4142 21.79 12 21.79V23.29ZM18.5364 7.98377L19.1126 7.50363L18.5364 7.98377ZM3.75 18.54V6.54004H2.25V18.54H3.75ZM7 3.29004H11V1.79004H7V3.29004ZM11 3.29004H13.0633V1.79004H11V3.29004ZM18.25 9.26414V12.54H19.75V9.26414H18.25ZM14.0235 3.73981L17.9603 8.46391L19.1126 7.50363L15.1759 2.77953L14.0235 3.73981ZM12 21.79H7V23.29H12V21.79ZM13.0633 3.29004C13.4342 3.29004 13.786 3.45482 14.0235 3.73981L15.1759 2.77953C14.6534 2.15255 13.8794 1.79004 13.0633 1.79004V3.29004ZM2.25 18.54C2.25 21.1634 4.37665 23.29 7 23.29V21.79C5.20507 21.79 3.75 20.335 3.75 18.54H2.25ZM19.75 9.26414C19.75 8.62081 19.5245 7.99785 19.1126 7.50363L17.9603 8.46391C18.1475 8.68855 18.25 8.97172 18.25 9.26414H19.75ZM3.75 6.54004C3.75 4.74511 5.20507 3.29004 7 3.29004V1.79004C4.37665 1.79004 2.25 3.91669 2.25 6.54004H3.75Z" fill="#28293D"/>
<path d="M16.6666 20.3315H22.9166" stroke="#28293D" stroke-width="1.5" stroke-linecap="round" stroke-linejoin="round"/>
<path d="M14 3.04004V6.54004C14 7.64461 14.8954 8.54004 16 8.54004H18.5" stroke="#28293D" stroke-width="1.5" stroke-linecap="round"/>
</svg>
