<svg width="25" height="26" viewBox="0 0 25 26" fill="none" xmlns="http://www.w3.org/2000/svg">
<path fill-rule="evenodd" clip-rule="evenodd" d="M20.0378 3.26356C19.0731 2.30291 17.5097 2.3035 16.5457 3.26487L9.0903 10.7018C8.49401 11.2965 8.14344 12.0926 8.10796 12.9326L8.00182 15.4453C7.9535 16.5894 8.87116 17.5433 10.0203 17.5433L12.4924 17.5435C13.4 17.5435 14.2692 17.1784 14.9029 16.5309L22.2984 8.9515C23.2425 7.98689 23.2326 6.44498 22.2761 5.49253L20.0378 3.26356ZM17.4985 4.21364C17.9366 3.77665 18.6473 3.77638 19.0858 4.21304L21.3241 6.44201C21.7588 6.87495 21.7634 7.57581 21.3342 8.01427L19.8489 9.53182L16.0046 5.70354L17.4985 4.21364ZM15.0526 6.65302L10.043 11.6506C9.68526 12.0074 9.47492 12.4851 9.45363 12.989L9.3475 15.5017C9.33139 15.8831 9.63728 16.2011 10.0203 16.2011L12.4924 16.2012C13.037 16.2012 13.5585 15.9821 13.9388 15.5936L18.9084 10.4928L15.0526 6.65302Z" fill="#28293D"/>
<path d="M21.75 13.5435C21.75 13.1292 21.4142 12.7935 21 12.7935C20.5858 12.7935 20.25 13.1292 20.25 13.5435H21.75ZM12 5.29346C12.4142 5.29346 12.75 4.95767 12.75 4.54346C12.75 4.12924 12.4142 3.79346 12 3.79346V5.29346ZM16 21.7935H8V23.2935H16V21.7935ZM3.75 17.5435V9.54346H2.25V17.5435H3.75ZM20.25 13.5435V17.5435H21.75V13.5435H20.25ZM8 5.29346H12V3.79346H8V5.29346ZM8 21.7935C5.65279 21.7935 3.75 19.8907 3.75 17.5435H2.25C2.25 20.7191 4.82436 23.2935 8 23.2935V21.7935ZM16 23.2935C19.1756 23.2935 21.75 20.7191 21.75 17.5435H20.25C20.25 19.8907 18.3472 21.7935 16 21.7935V23.2935ZM3.75 9.54346C3.75 7.19625 5.65279 5.29346 8 5.29346V3.79346C4.82436 3.79346 2.25 6.36782 2.25 9.54346H3.75Z" fill="#28293D"/>
</svg>
