<svg width="25" height="26" viewBox="0 0 25 26" fill="none" xmlns="http://www.w3.org/2000/svg">
<path fill-rule="evenodd" clip-rule="evenodd" d="M13.5137 4.34947C14.5869 3.27471 16.3274 3.27405 17.4013 4.34799L19.8932 6.83985C20.958 7.90463 20.969 9.62839 19.918 10.7068L18.3034 12.3633C18.3864 12.6224 18.3252 12.9176 18.1198 13.1233C17.919 13.3244 17.6326 13.3876 17.3779 13.3129L10.6849 20.18C9.97933 20.9039 9.01167 21.3121 8.00124 21.312L5.24909 21.3119C3.96984 21.3119 2.94823 20.2455 3.00203 18.9664L3.12019 16.1574C3.15968 15.2183 3.54996 14.3283 4.2138 13.6635L13.5137 4.34947ZM18.8446 9.659L17.3005 11.2433L13.022 6.96484L14.5744 5.41013C15.0622 4.9216 15.8533 4.9213 16.3415 5.40946L18.8333 7.90131C19.3173 8.3853 19.3224 9.16883 18.8446 9.659ZM5.27446 14.7241L11.9622 8.02631L16.2534 12.3176L9.61148 19.1323C9.18816 19.5666 8.60756 19.8115 8.0013 19.8115L5.24916 19.8113C4.82274 19.8113 4.4822 19.4559 4.50014 19.0295L4.61829 16.2205C4.64199 15.6571 4.87616 15.1231 5.27446 14.7241ZM21.3696 22.0698C21.7837 22.0698 22.1193 21.7338 22.1193 21.3195C22.1193 20.9051 21.7837 20.5692 21.3696 20.5692H14.9928C14.5788 20.5692 14.2431 20.9051 14.2431 21.3195C14.2431 21.7338 14.5788 22.0698 14.9928 22.0698H21.3696Z" fill="#28293D"/>
</svg>
