<svg width="25" height="26" viewBox="0 0 25 26" fill="none" xmlns="http://www.w3.org/2000/svg">
<path d="M14.5 11.7925H20V18.7925C20 21.0016 18.2091 22.7925 16 22.7925H8C5.79086 22.7925 4 21.0016 4 18.7925V11.7925H9.5" stroke="#28293D" stroke-width="1.5"/>
<path d="M16.5 11.7925H19.5C20.3284 11.7925 21 11.1209 21 10.2925V8.29248C21 7.46405 20.3284 6.79248 19.5 6.79248H4.5C3.67157 6.79248 3 7.46405 3 8.29248V10.2925C3 11.1209 3.67157 11.7925 4.5 11.7925H7.5" stroke="#28293D" stroke-width="1.5"/>
<path d="M12 5.29248C12 3.91177 13.1193 2.79248 14.5 2.79248H15C16.1046 2.79248 17 3.68791 17 4.79248V4.79248C17 5.89705 16.1046 6.79248 15 6.79248H12V5.29248Z" stroke="#28293D" stroke-width="1.5"/>
<path d="M12 5.29248C12 3.91177 10.8807 2.79248 9.5 2.79248H9C7.89543 2.79248 7 3.68791 7 4.79248V4.79248C7 5.89705 7.89543 6.79248 9 6.79248H12V5.29248Z" stroke="#28293D" stroke-width="1.5"/>
<path d="M14.5 6.79248L14.5 22.7925L9.5 22.7925L9.5 6.79248L14.5 6.79248Z" stroke="#28293D" stroke-width="1.5"/>
</svg>
