<svg width="25" height="26" viewBox="0 0 25 26" fill="none" xmlns="http://www.w3.org/2000/svg">
<path d="M11 6.41504C11 5.86275 10.5506 5.4086 10.0026 5.47745C8.77376 5.63187 7.59275 6.07017 6.55544 6.76328C5.23985 7.64233 4.21446 8.89176 3.60896 10.3536C3.00346 11.8154 2.84504 13.4239 3.15372 14.9758C3.4624 16.5276 4.22433 17.9531 5.34315 19.0719C6.46197 20.1907 7.88743 20.9526 9.43928 21.2613C10.9911 21.57 12.5997 21.4116 14.0615 20.8061C15.5233 20.2006 16.7727 19.1752 17.6518 17.8596C18.3449 16.8223 18.7832 15.6413 18.9376 14.4125C19.0064 13.8645 18.5523 13.415 18 13.415H12.5C11.6716 13.415 11 12.7435 11 11.915V6.41504Z" stroke="#28293D" stroke-width="1.5"/>
<path d="M14 4.41504C14 3.86275 14.45 3.40772 14.9966 3.48635C15.5731 3.56927 16.1383 3.724 16.6788 3.94788C17.5281 4.29967 18.2997 4.81528 18.9497 5.46529C19.5998 6.1153 20.1154 6.88698 20.4672 7.73626C20.691 8.27675 20.8458 8.84194 20.9287 9.41843C21.0073 9.96509 20.5523 10.415 20 10.415L15 10.415C14.4477 10.415 14 9.96732 14 9.41504V4.41504Z" stroke="#28293D" stroke-width="1.5"/>
</svg>
