<svg width="25" height="26" viewBox="0 0 25 26" fill="none" xmlns="http://www.w3.org/2000/svg">
<path d="M21 19.2905V12.2905C21 7.31996 16.9706 3.29053 12 3.29053V3.29053C7.02944 3.29053 3 7.31996 3 12.2905V19.2905" stroke="#28293D" stroke-width="1.5" stroke-linecap="round"/>
<path d="M16 15.2905C16 14.186 16.8954 13.2905 18 13.2905H19C20.1046 13.2905 21 14.186 21 15.2905V19.2905C21 20.3951 20.1046 21.2905 19 21.2905H18C16.8954 21.2905 16 20.3951 16 19.2905V15.2905Z" stroke="#28293D" stroke-width="1.5"/>
<path d="M8 15.2905C8 14.186 7.10457 13.2905 6 13.2905H5C3.89543 13.2905 3 14.186 3 15.2905V19.2905C3 20.3951 3.89543 21.2905 5 21.2905H6C7.10457 21.2905 8 20.3951 8 19.2905V15.2905Z" stroke="#28293D" stroke-width="1.5"/>
</svg>
