<svg width="25" height="26" viewBox="0 0 25 26" fill="none" xmlns="http://www.w3.org/2000/svg">
<rect x="2" y="2.91699" width="20" height="20" rx="5" stroke="#28293D" stroke-width="1.5"/>
<path d="M2.06407 17.8067C1.72701 18.0474 1.64894 18.5159 1.8897 18.8529C2.13046 19.19 2.59887 19.268 2.93593 19.0273L2.06407 17.8067ZM21.5199 17.4932C21.8381 17.7583 22.311 17.7153 22.5762 17.3971C22.8413 17.0789 22.7983 16.606 22.4801 16.3408L21.5199 17.4932ZM7.07822 16.9952L6.54789 17.5255L7.07822 16.9952ZM2.93593 19.0273L5.19512 17.4136L4.32327 16.193L2.06407 17.8067L2.93593 19.0273ZM6.54789 17.5255L7.62114 18.5988L8.6818 17.5381L7.60855 16.4649L6.54789 17.5255ZM10.3789 18.5988L15.368 13.6097L14.3073 12.549L9.3182 17.5381L10.3789 18.5988ZM16.7827 13.5455L21.5199 17.4932L22.4801 16.3408L17.7429 12.3932L16.7827 13.5455ZM15.368 13.6097C15.752 13.2257 16.3655 13.1978 16.7827 13.5455L17.7429 12.3932C16.7297 11.5488 15.2399 11.6164 14.3073 12.549L15.368 13.6097ZM7.62114 18.5988C8.38266 19.3603 9.61734 19.3603 10.3789 18.5988L9.3182 17.5381C9.14246 17.7139 8.85754 17.7139 8.6818 17.5381L7.62114 18.5988ZM5.19512 17.4136C5.6128 17.1152 6.18494 17.1626 6.54789 17.5255L7.60855 16.4649C6.72711 15.5834 5.33762 15.4684 4.32327 16.193L5.19512 17.4136Z" fill="#28293D"/>
<circle r="2" transform="matrix(-1 0 0 1 8 8.91699)" stroke="#28293D" stroke-width="1.5"/>
</svg>
