<svg width="25" height="26" viewBox="0 0 25 26" fill="none" xmlns="http://www.w3.org/2000/svg">
<path d="M17.7189 9.94232L19.8442 11.092L20.2891 11.342C21.237 11.8745 21.237 13.2475 20.2891 13.7801L14.2525 17.1716C12.8524 17.9582 11.1476 17.9582 9.74754 17.1716L3.71092 13.7801C2.76302 13.2475 2.76303 11.8745 3.71093 11.342L4.15585 11.092L6.16334 9.94232M18.1811 15.0611L20.1129 16.0336C21.1092 16.5351 21.1412 17.9548 20.1685 18.5013L14.2525 21.8251C12.8524 22.6117 11.1476 22.6117 9.74754 21.8251L3.9178 18.5498C2.9284 17.9939 2.98291 16.5428 4.0112 16.0638L6.16334 15.0611M14.2525 12.2262L20.2891 8.83465C21.237 8.30209 21.237 6.92909 20.2891 6.39653L14.2525 3.00497C12.8524 2.2184 11.1476 2.2184 9.74754 3.00497L3.71093 6.39653C2.76303 6.92909 2.76302 8.30209 3.71092 8.83465L9.74754 12.2262C11.1476 13.0128 12.8524 13.0128 14.2525 12.2262Z" stroke="#28293D" stroke-width="1.5"/>
</svg>
