<svg width="25" height="26" viewBox="0 0 25 26" fill="none" xmlns="http://www.w3.org/2000/svg">
<path d="M9.75 16.7925C9.75 16.3783 9.41421 16.0425 9 16.0425C8.58579 16.0425 8.25 16.3783 8.25 16.7925H9.75ZM8.25 8.79248C8.25 9.20669 8.58579 9.54248 9 9.54248C9.41421 9.54248 9.75 9.20669 9.75 8.79248H8.25ZM13 3.54248H18V2.04248H13V3.54248ZM21.25 6.79248V18.7925H22.75V6.79248H21.25ZM18 22.0425H13V23.5425H18V22.0425ZM9.75 18.7925V16.7925H8.25V18.7925H9.75ZM9.75 8.79248V6.79248H8.25V8.79248H9.75ZM13 22.0425C11.2051 22.0425 9.75 20.5874 9.75 18.7925H8.25C8.25 21.4158 10.3766 23.5425 13 23.5425V22.0425ZM21.25 18.7925C21.25 20.5874 19.7949 22.0425 18 22.0425V23.5425C20.6234 23.5425 22.75 21.4158 22.75 18.7925H21.25ZM18 3.54248C19.7949 3.54248 21.25 4.99756 21.25 6.79248H22.75C22.75 4.16913 20.6234 2.04248 18 2.04248V3.54248ZM13 2.04248C10.3766 2.04248 8.25 4.16913 8.25 6.79248H9.75C9.75 4.99756 11.2051 3.54248 13 3.54248V2.04248Z" fill="#28293D"/>
<path d="M14 15.7925L16.2929 13.4996C16.6834 13.1091 16.6834 12.4759 16.2929 12.0854L14 9.79248" stroke="#28293D" stroke-width="1.5" stroke-linecap="round"/>
<path d="M16 12.7925L4 12.7925" stroke="#28293D" stroke-width="1.5" stroke-linecap="round"/>
</svg>
