<svg width="25" height="26" viewBox="0 0 25 26" fill="none" xmlns="http://www.w3.org/2000/svg">
<path d="M2.23903 20.0707L1.53188 19.8208L1.53188 19.8208L2.23903 20.0707ZM3.77027 21.602L4.02015 22.3091L4.02015 22.3091L3.77027 21.602ZM6.29286 20.7106L6.54274 21.4177L6.29286 20.7106ZM7.15817 20.7933L6.79451 21.4492L7.15817 20.7933ZM3.10104 16.6078L2.43404 16.9507L3.10104 16.6078ZM2.75 12.0415C2.75 6.93287 6.89137 2.7915 12 2.7915V1.2915C6.06294 1.2915 1.25 6.10444 1.25 12.0415H2.75ZM3.76804 16.2648C3.11751 14.9996 2.75 13.5646 2.75 12.0415H1.25C1.25 13.8086 1.67697 15.4782 2.43404 16.9507L3.76804 16.2648ZM2.94618 20.3206L3.87446 17.6936L2.46016 17.1938L1.53188 19.8208L2.94618 20.3206ZM3.52039 20.8948C3.16372 21.0209 2.82014 20.6773 2.94618 20.3206L1.53188 19.8208C0.985728 21.3664 2.47455 22.8553 4.02015 22.3091L3.52039 20.8948ZM6.04298 20.0034L3.52039 20.8948L4.02015 22.3091L6.54274 21.4177L6.04298 20.0034ZM12 21.2915C10.3739 21.2915 8.84798 20.8726 7.52184 20.1373L6.79451 21.4492C8.33751 22.3047 10.113 22.7915 12 22.7915V21.2915ZM21.25 12.0415C21.25 17.1501 17.1086 21.2915 12 21.2915V22.7915C17.9371 22.7915 22.75 17.9786 22.75 12.0415H21.25ZM12 2.7915C17.1086 2.7915 21.25 6.93287 21.25 12.0415H22.75C22.75 6.10444 17.9371 1.2915 12 1.2915V2.7915ZM6.54274 21.4177C6.60823 21.3946 6.7001 21.3969 6.79451 21.4492L7.52184 20.1373C7.08623 19.8958 6.54889 19.8247 6.04298 20.0034L6.54274 21.4177ZM2.43404 16.9507C2.4814 17.0428 2.48243 17.1308 2.46016 17.1938L3.87446 17.6936C4.04633 17.2072 3.98714 16.6909 3.76804 16.2648L2.43404 16.9507Z" fill="#28293D"/>
<circle cx="7.05005" cy="12.0913" r="1.25" fill="#28293D"/>
<circle cx="12.05" cy="12.0913" r="1.25" fill="#28293D"/>
<circle cx="17.05" cy="12.0913" r="1.25" fill="#28293D"/>
</svg>
