<svg width="25" height="26" viewBox="0 0 25 26" fill="none" xmlns="http://www.w3.org/2000/svg">
<path d="M3.6247 21.7417L4.09322 22.3274L4.09322 22.3274L3.6247 21.7417ZM6.45217 19.4798L6.92069 20.0654L6.45217 19.4798ZM2.75 8.0415C2.75 5.69429 4.65279 3.7915 7 3.7915V2.2915C3.82436 2.2915 1.25 4.86587 1.25 8.0415H2.75ZM2.75 13.5415V8.0415H1.25V13.5415H2.75ZM2.75 14.0415V13.5415H1.25V14.0415H2.75ZM2.75 20.9609V14.0415H1.25V20.9609H2.75ZM3.15617 21.1561C2.99248 21.287 2.75 21.1705 2.75 20.9609H1.25C1.25 22.4283 2.94738 23.2441 4.09322 22.3274L3.15617 21.1561ZM5.98365 18.8941L3.15617 21.1561L4.09322 22.3274L6.92069 20.0654L5.98365 18.8941ZM17 18.2915H7.70156V19.7915H17V18.2915ZM21.25 14.0415C21.25 16.3887 19.3472 18.2915 17 18.2915V19.7915C20.1756 19.7915 22.75 17.2171 22.75 14.0415H21.25ZM21.25 8.0415V14.0415H22.75V8.0415H21.25ZM17 3.7915C19.3472 3.7915 21.25 5.69429 21.25 8.0415H22.75C22.75 4.86587 20.1756 2.2915 17 2.2915V3.7915ZM7 3.7915H17V2.2915H7V3.7915ZM6.92069 20.0654C7.14233 19.8881 7.41772 19.7915 7.70156 19.7915V18.2915C7.07712 18.2915 6.47126 18.504 5.98365 18.8941L6.92069 20.0654Z" fill="#28293D"/>
<circle cx="7.05005" cy="11.0913" r="1.25" fill="#28293D"/>
<circle cx="12.05" cy="11.0913" r="1.25" fill="#28293D"/>
<circle cx="17.05" cy="11.0913" r="1.25" fill="#28293D"/>
</svg>
