<svg width="25" height="26" viewBox="0 0 25 26" fill="none" xmlns="http://www.w3.org/2000/svg">
<path d="M5 4.04004H19V20.0056C19 20.8359 18.0466 21.3046 17.3892 20.7974L16.0584 19.7708C15.7236 19.5125 15.2625 19.4927 14.9068 19.7214L13.0815 20.8948C12.4227 21.3183 11.5773 21.3183 10.9185 20.8948L9.0932 19.7214C8.73751 19.4927 8.27644 19.5125 7.94164 19.7708L6.6108 20.7974C5.95338 21.3046 5 20.8359 5 20.0056V4.04004Z" stroke="#28293D" stroke-width="1.5"/>
<path d="M9.375 10.4359H12.5" stroke="#28293D" stroke-width="1.5" stroke-linecap="round" stroke-linejoin="round"/>
<path d="M3.125 4.18587H21.875" stroke="#28293D" stroke-width="1.5" stroke-linecap="round" stroke-linejoin="round"/>
<path d="M9.375 14.6024H12.5" stroke="#28293D" stroke-width="1.5" stroke-linecap="round" stroke-linejoin="round"/>
<path d="M15.625 10.4359H16.1458" stroke="#28293D" stroke-width="1.5" stroke-linecap="round" stroke-linejoin="round"/>
<path d="M15.625 14.6024H16.1458" stroke="#28293D" stroke-width="1.5" stroke-linecap="round" stroke-linejoin="round"/>
</svg>
