<svg width="25" height="26" viewBox="0 0 25 26" fill="none" xmlns="http://www.w3.org/2000/svg">
<path d="M3.42805 18.0696L2.78562 18.4566L3.42805 18.0696ZM18.3707 20.6253L17.8926 20.0474L18.3707 20.6253ZM19.7087 19.2872L20.2866 19.7653L19.7087 19.2872ZM21.5783 15.7996L22.2965 16.0155L21.5783 15.7996ZM21.1699 8.92129L21.8573 8.62135L21.1699 8.92129ZM21.9064 11.5427L21.1634 11.6448L21.9064 11.5427ZM14.8829 22.495L14.667 21.7767L14.8829 22.495ZM16.295 3.05928C16.176 3.00736 16.0558 2.95754 15.9346 2.90984L15.3854 4.30568C15.4896 4.34667 15.5928 4.38951 15.6952 4.43414L16.295 3.05928ZM22.6494 11.4406C22.5136 10.4518 22.2432 9.50561 21.8573 8.62135L20.4825 9.22123C20.8141 9.98122 21.0465 10.7944 21.1634 11.6448L22.6494 11.4406ZM20.2866 19.7653C21.1878 18.676 21.8788 17.4053 22.2965 16.0155L20.86 15.5838C20.5011 16.7779 19.907 17.871 19.1308 18.8091L20.2866 19.7653ZM15.0988 23.2133C16.4887 22.7955 17.7595 22.1044 18.8488 21.2031L17.8926 20.0474C16.9544 20.8236 15.8612 21.4178 14.667 21.7767L15.0988 23.2133ZM8.79994 23.1822C9.35668 23.3556 9.93273 23.485 10.5239 23.5662L10.7281 22.0802C10.2196 22.0103 9.72436 21.8991 9.24595 21.7501L8.79994 23.1822ZM1.9931 16.8514C2.2133 17.411 2.47901 17.9476 2.78562 18.4566L4.07049 17.6825C3.80668 17.2446 3.5782 16.7832 3.38894 16.3022L1.9931 16.8514ZM2.14263 8.62166C2.09068 8.74074 2.04082 8.86095 1.9931 8.98223L3.38893 9.53146C3.42995 9.4272 3.47281 9.32387 3.51748 9.2215L2.14263 8.62166ZM8.06547 2.90985C7.94428 2.95754 7.82416 3.00736 7.70517 3.05927L8.30497 4.43413C8.40727 4.3895 8.51052 4.34667 8.6147 4.30568L8.06547 2.90985ZM6.51997 7.4365C6.82125 7.13523 7.0286 6.77363 7.18667 6.44221C7.34003 6.12066 7.4797 5.75229 7.59502 5.47422C7.86447 4.8245 8.06059 4.54074 8.30497 4.43413L7.70517 3.05927C6.83959 3.43689 6.45615 4.30473 6.20945 4.89961C6.06669 5.24384 5.96415 5.52102 5.83277 5.79649C5.70609 6.06209 5.58619 6.24897 5.45931 6.37584L6.51997 7.4365ZM3.51748 9.2215C3.6241 8.97711 3.90787 8.78099 4.55762 8.51155C4.8357 8.39624 5.20408 8.25656 5.52565 8.10321C5.85708 7.94514 6.21869 7.73779 6.51997 7.4365L5.45931 6.37584C5.33243 6.50272 5.14555 6.62262 4.87995 6.7493C4.60448 6.88067 4.32729 6.98321 3.98304 7.12596C3.38815 7.37265 2.52028 7.75608 2.14263 8.62166L3.51748 9.2215ZM4.25005 12.9168C4.25005 12.4906 4.14087 12.0881 4.01819 11.7419C3.89917 11.406 3.73731 11.0466 3.62219 10.7685C3.35312 10.1184 3.29139 9.77935 3.38893 9.53146L1.9931 8.98223C1.64707 9.86165 1.98986 10.7469 2.23621 11.3421C2.37878 11.6866 2.50235 11.9551 2.60434 12.2429C2.70266 12.5204 2.75005 12.7373 2.75005 12.9168H4.25005ZM3.38894 16.3022C3.2914 16.0543 3.35313 15.7153 3.62219 15.0652C3.73732 14.787 3.89918 14.4276 4.01819 14.0917C4.14087 13.7455 4.25005 13.343 4.25005 12.9168H2.75005C2.75005 13.0963 2.70266 13.3132 2.60434 13.5907C2.50235 13.8785 2.37878 14.147 2.23621 14.4915C1.98986 15.0867 1.64708 15.972 1.9931 16.8514L3.38894 16.3022ZM7.51997 19.3969C7.18942 19.0663 6.78955 18.8586 6.41955 18.7101C6.05596 18.5641 5.65653 18.4518 5.33431 18.3537C4.59679 18.1291 4.23477 17.9552 4.07049 17.6825L2.78562 18.4566C3.2911 19.2957 4.25097 19.5918 4.89735 19.7886C5.26708 19.9012 5.57511 19.9874 5.8607 20.1021C6.13989 20.2142 6.33096 20.3292 6.45931 20.4575L7.51997 19.3969ZM9.24595 21.7501C9.04038 21.6861 8.84429 21.4877 8.55809 20.9879C8.49126 20.8712 8.4262 20.751 8.35439 20.6193C8.28437 20.4909 8.20871 20.353 8.12855 20.2169C7.97025 19.9481 7.77476 19.6517 7.51997 19.3969L6.45931 20.4575C6.58159 20.5798 6.70152 20.7497 6.83606 20.9781C6.90232 21.0906 6.96743 21.209 7.03743 21.3374C7.10564 21.4625 7.17983 21.5996 7.25638 21.7332C7.54373 22.2351 7.98721 22.9291 8.79994 23.1822L9.24595 21.7501ZM18.4801 19.3966C18.3379 19.5388 18.2085 19.7007 18.1228 19.8032C18.0244 19.9209 17.9574 19.9938 17.8926 20.0474L18.8488 21.2031C19.0273 21.0554 19.1686 20.8909 19.2734 20.7655C19.3909 20.625 19.4597 20.5383 19.5408 20.4573L18.4801 19.3966ZM19.1308 18.8091C19.0772 18.874 19.0043 18.9409 18.8867 19.0393C18.7841 19.125 18.6223 19.2544 18.4801 19.3966L19.5408 20.4573C19.6219 20.3762 19.7085 20.3074 19.849 20.1899C19.9743 20.0851 20.1389 19.9438 20.2866 19.7653L19.1308 18.8091ZM20.7501 13.9168C20.7501 14.2981 20.8308 14.7203 20.8637 14.9674C20.9032 15.2637 20.9023 15.443 20.86 15.5838L22.2965 16.0155C22.4355 15.5531 22.3955 15.1059 22.3506 14.7691C22.2991 14.383 22.2501 14.1654 22.2501 13.9168H20.7501ZM17.4801 7.43628C17.7814 7.73756 18.143 7.94491 18.4744 8.10297C18.796 8.25632 19.1643 8.39599 19.4424 8.5113C20.0921 8.78073 20.3759 8.97684 20.4825 9.22123L21.8573 8.62135C21.4797 7.7558 20.6119 7.3724 20.017 7.12571C19.6728 6.98297 19.3956 6.88043 19.1201 6.74906C18.8545 6.6224 18.6677 6.5025 18.5408 6.37562L17.4801 7.43628ZM13.0001 21.6668C12.4664 21.6668 11.9494 21.8388 11.5998 21.941C11.1977 22.0586 10.9475 22.1103 10.7281 22.0802L10.5239 23.5662C11.0984 23.6451 11.6345 23.4937 12.0207 23.3808C12.4593 23.2525 12.7325 23.1668 13.0001 23.1668V21.6668ZM15.6952 4.43414C15.9395 4.54075 16.1356 4.82448 16.4051 5.47414C16.5204 5.75218 16.6601 6.12053 16.8135 6.44206C16.9715 6.77345 17.1789 7.13503 17.4801 7.43628L18.5408 6.37562C18.4139 6.24875 18.294 6.06188 18.1673 5.7963C18.036 5.52085 17.9334 5.24369 17.7907 4.89948C17.5439 4.30464 17.1605 3.43688 16.295 3.05928L15.6952 4.43414ZM12 5.16681C12.4263 5.16681 12.8288 5.05763 13.175 4.93494C13.5108 4.81592 13.8702 4.65406 14.1484 4.53894C14.7985 4.26987 15.1375 4.20814 15.3854 4.30568L15.9346 2.90984C15.0552 2.56382 14.17 2.90661 13.5747 3.15296C13.2303 3.29553 12.9617 3.41911 12.6739 3.52109C12.3965 3.61941 12.1795 3.66681 12 3.66681V5.16681ZM21.1634 11.6448C21.1935 11.8641 21.1418 12.1144 21.0243 12.5165C20.922 12.8662 20.7501 13.3831 20.7501 13.9168H22.2501C22.2501 13.6492 22.3358 13.376 22.464 12.9374C22.5769 12.5512 22.7284 12.0151 22.6494 11.4406L21.1634 11.6448ZM14.667 21.7767C14.5263 21.8191 14.347 21.82 14.0506 21.7805C13.8036 21.7475 13.3814 21.6668 13.0001 21.6668V23.1668C13.2487 23.1668 13.4662 23.2158 13.8524 23.2673C14.1891 23.3122 14.6363 23.3523 15.0988 23.2133L14.667 21.7767ZM12 3.66681C11.8206 3.66681 11.6036 3.61941 11.3261 3.52109C11.0383 3.41911 10.7698 3.29554 10.4253 3.15296C9.83013 2.90661 8.94488 2.56382 8.06547 2.90985L8.6147 4.30568C8.86259 4.20815 9.20161 4.26988 9.8517 4.53894C10.1299 4.65407 10.4892 4.81593 10.8251 4.93495C11.1713 5.05763 11.5738 5.16681 12 5.16681V3.66681Z" fill="#28293D"/>
<circle cx="9.79858" cy="10.7156" r="0.791538" transform="rotate(45 9.79858 10.7156)" fill="#28293D"/>
<circle cx="14.2015" cy="15.1184" r="0.791538" transform="rotate(45 14.2015 15.1184)" fill="#28293D"/>
<path d="M9.76128 15.1558L14.2389 10.6782" stroke="#28293D" stroke-width="1.5" stroke-linecap="round" stroke-linejoin="round"/>
</svg>
