<svg width="25" height="26" viewBox="0 0 25 26" fill="none" xmlns="http://www.w3.org/2000/svg">
<path d="M6.07327 8.12089C6.8115 6.84349 7.8886 5.79511 9.18549 5.09167C10.4824 4.38823 11.9485 4.05712 13.4218 4.13496C14.8952 4.21279 16.3183 4.69654 17.5338 5.53272C18.7494 6.36889 19.71 7.52493 20.3095 8.87301M4.23435 5.63548L4.96243 8.79533C5.08643 9.33351 5.62324 9.66927 6.16143 9.54526L9.32127 8.81718M19.9263 16.1266C19.1881 17.404 18.111 18.4524 16.8141 19.1559C15.5173 19.8593 14.0511 20.1904 12.5778 20.1126C11.1045 20.0347 9.68135 19.551 8.4658 18.7148C7.25026 17.8786 6.28962 16.7226 5.6901 15.3745M21.7653 18.612L21.0372 15.4522C20.9132 14.914 20.3764 14.5783 19.8382 14.7023L16.6784 15.4303" stroke="#28293D" stroke-width="1.5" stroke-linecap="round"/>
</svg>
