<svg width="25" height="26" viewBox="0 0 25 26" fill="none" xmlns="http://www.w3.org/2000/svg">
<path d="M5.05063 9.65117C4.20573 8.52463 5.00954 6.91699 6.41772 6.91699H17.5823C18.9905 6.91699 19.7943 8.52463 18.9494 9.65117V9.65117C18.3331 10.4728 18 11.4722 18 12.4993V18.917C18 21.1261 16.2091 22.917 14 22.917H10C7.79086 22.917 6 21.1261 6 18.917V12.4993C6 11.4722 5.66688 10.4728 5.05063 9.65117V9.65117Z" stroke="#28293D" stroke-width="1.5"/>
<path d="M14.5834 18.6255L14.5834 12.3755" stroke="#28293D" stroke-width="1.5" stroke-linecap="round" stroke-linejoin="round"/>
<path d="M10.4166 18.6255L10.4166 12.3755" stroke="#28293D" stroke-width="1.5" stroke-linecap="round" stroke-linejoin="round"/>
<path d="M16 6.91699L15.4558 5.28454C15.1836 4.46785 14.4193 3.91699 13.5585 3.91699H10.4415C9.58066 3.91699 8.81638 4.46785 8.54415 5.28454L8 6.91699" stroke="#28293D" stroke-width="1.5" stroke-linecap="round"/>
</svg>
