<svg width="25" height="26" viewBox="0 0 25 26" fill="none" xmlns="http://www.w3.org/2000/svg">
<path d="M18.75 13.2905C18.75 12.8763 18.4142 12.5405 18 12.5405C17.5858 12.5405 17.25 12.8763 17.25 13.2905H18.75ZM14.4 19.9131L14.8903 19.3455L14.8799 19.3365L14.8692 19.328L14.4 19.9131ZM13.4692 18.2054C13.146 17.9463 12.674 17.9982 12.4149 18.3214C12.1558 18.6445 12.2077 19.1165 12.5308 19.3757L13.4692 18.2054ZM8.49998 8.51026L8.49998 7.76026L8.49998 8.51026ZM14.6926 20.1658L15.1828 19.5983L14.6926 20.1658ZM10.0558 8.51025L10.0558 7.76025L10.0558 8.51025ZM11.8535 8.5913L15.1828 5.7152L14.2023 4.58009L10.8729 7.45618L11.8535 8.5913ZM8.49999 9.26026L10.0558 9.26025L10.0558 7.76025L8.49998 7.76026L8.49999 9.26026ZM6.75 14.3032V11.0103H5.25V14.3032H6.75ZM10.8 16.0532H8.5V17.5532H10.8V16.0532ZM17.25 14.7905V18.6523H18.75V14.7905H17.25ZM17.25 6.66113V9.29053H18.75V6.66113H17.25ZM17.25 13.2905V14.7905H18.75V13.2905H17.25ZM15.1828 19.5983L14.8903 19.3455L13.9097 20.4806L14.2023 20.7334L15.1828 19.5983ZM14.8692 19.328L13.4692 18.2054L12.5308 19.3757L13.9308 20.4982L14.8692 19.328ZM5.25 14.3032C5.25 16.0982 6.70507 17.5532 8.5 17.5532V16.0532C7.5335 16.0532 6.75 15.2697 6.75 14.3032H5.25ZM8.49998 7.76026C6.70506 7.76028 5.25 9.21535 5.25 11.0103H6.75C6.75 10.0438 7.53349 9.26027 8.49999 9.26026L8.49998 7.76026ZM15.1828 5.7152C15.9927 5.01559 17.25 5.59092 17.25 6.66113H18.75C18.75 4.30668 15.984 3.04095 14.2023 4.58009L15.1828 5.7152ZM17.25 18.6523C17.25 19.7225 15.9927 20.2979 15.1828 19.5983L14.2023 20.7334C15.984 22.2725 18.75 21.0068 18.75 18.6523H17.25ZM10.8729 7.45618C10.6458 7.65232 10.3558 7.76025 10.0558 7.76025L10.0558 9.26025C10.7159 9.26025 11.3539 9.02281 11.8535 8.5913L10.8729 7.45618Z" fill="#28293D"/>
<path d="M22.9166 5.49903L7.29163 21.124" stroke="#28293D" stroke-width="1.5" stroke-linecap="round" stroke-linejoin="round"/>
</svg>
